G04 EAGLE Gerber RS-274X export*
G75*
%MOMM*%
%FSLAX34Y34*%
%LPD*%
%INSilkscreen Top*%
%IPPOS*%
%AMOC8*
5,1,8,0,0,1.08239X$1,22.5*%
G01*
%ADD10C,0.152400*%
%ADD11C,0.500000*%
%ADD12C,0.200000*%
%ADD13C,0.101600*%
%ADD14C,0.127000*%
%ADD15C,0.279400*%
%ADD16C,0.100000*%
%ADD17C,0.177800*%
%ADD18R,11.000000X1.500000*%
%ADD19R,0.300000X0.600000*%
%ADD20R,10.300000X1.500000*%


D10*
X408000Y18000D02*
X408000Y88000D01*
X408000Y18000D02*
X473000Y18000D01*
X408000Y18000D02*
X343000Y18000D01*
X408000Y18000D02*
X408000Y-52000D01*
X408000Y88000D02*
X343000Y88000D01*
X343000Y18000D01*
X343000Y-52000D01*
X408000Y-52000D01*
X473000Y-52000D01*
X473000Y18000D01*
X473000Y88000D01*
X408000Y88000D01*
X348865Y18000D02*
X348883Y19451D01*
X348936Y20902D01*
X349025Y22350D01*
X349150Y23796D01*
X349310Y25239D01*
X349505Y26677D01*
X349736Y28110D01*
X350001Y29537D01*
X350302Y30957D01*
X350637Y32369D01*
X351007Y33772D01*
X351411Y35166D01*
X351850Y36550D01*
X352322Y37922D01*
X352827Y39282D01*
X353366Y40630D01*
X353938Y41964D01*
X354543Y43283D01*
X355179Y44588D01*
X355848Y45876D01*
X356547Y47148D01*
X357278Y48401D01*
X358040Y49637D01*
X358831Y50854D01*
X359652Y52050D01*
X360502Y53227D01*
X361381Y54382D01*
X362288Y55515D01*
X363222Y56625D01*
X364184Y57713D01*
X365172Y58776D01*
X366185Y59815D01*
X367224Y60828D01*
X368287Y61816D01*
X369375Y62778D01*
X370485Y63712D01*
X371618Y64619D01*
X372773Y65498D01*
X373950Y66348D01*
X375146Y67169D01*
X376363Y67960D01*
X377599Y68722D01*
X378852Y69453D01*
X380124Y70152D01*
X381412Y70821D01*
X382717Y71457D01*
X384036Y72062D01*
X385370Y72634D01*
X386718Y73173D01*
X388078Y73678D01*
X389450Y74150D01*
X390834Y74589D01*
X392228Y74993D01*
X393631Y75363D01*
X395043Y75698D01*
X396463Y75999D01*
X397890Y76264D01*
X399323Y76495D01*
X400761Y76690D01*
X402204Y76850D01*
X403650Y76975D01*
X405098Y77064D01*
X406549Y77117D01*
X408000Y77135D01*
X409451Y77117D01*
X410902Y77064D01*
X412350Y76975D01*
X413796Y76850D01*
X415239Y76690D01*
X416677Y76495D01*
X418110Y76264D01*
X419537Y75999D01*
X420957Y75698D01*
X422369Y75363D01*
X423772Y74993D01*
X425166Y74589D01*
X426550Y74150D01*
X427922Y73678D01*
X429282Y73173D01*
X430630Y72634D01*
X431964Y72062D01*
X433283Y71457D01*
X434588Y70821D01*
X435876Y70152D01*
X437148Y69453D01*
X438401Y68722D01*
X439637Y67960D01*
X440854Y67169D01*
X442050Y66348D01*
X443227Y65498D01*
X444382Y64619D01*
X445515Y63712D01*
X446625Y62778D01*
X447713Y61816D01*
X448776Y60828D01*
X449815Y59815D01*
X450828Y58776D01*
X451816Y57713D01*
X452778Y56625D01*
X453712Y55515D01*
X454619Y54382D01*
X455498Y53227D01*
X456348Y52050D01*
X457169Y50854D01*
X457960Y49637D01*
X458722Y48401D01*
X459453Y47148D01*
X460152Y45876D01*
X460821Y44588D01*
X461457Y43283D01*
X462062Y41964D01*
X462634Y40630D01*
X463173Y39282D01*
X463678Y37922D01*
X464150Y36550D01*
X464589Y35166D01*
X464993Y33772D01*
X465363Y32369D01*
X465698Y30957D01*
X465999Y29537D01*
X466264Y28110D01*
X466495Y26677D01*
X466690Y25239D01*
X466850Y23796D01*
X466975Y22350D01*
X467064Y20902D01*
X467117Y19451D01*
X467135Y18000D01*
X467117Y16549D01*
X467064Y15098D01*
X466975Y13650D01*
X466850Y12204D01*
X466690Y10761D01*
X466495Y9323D01*
X466264Y7890D01*
X465999Y6463D01*
X465698Y5043D01*
X465363Y3631D01*
X464993Y2228D01*
X464589Y834D01*
X464150Y-550D01*
X463678Y-1922D01*
X463173Y-3282D01*
X462634Y-4630D01*
X462062Y-5964D01*
X461457Y-7283D01*
X460821Y-8588D01*
X460152Y-9876D01*
X459453Y-11148D01*
X458722Y-12401D01*
X457960Y-13637D01*
X457169Y-14854D01*
X456348Y-16050D01*
X455498Y-17227D01*
X454619Y-18382D01*
X453712Y-19515D01*
X452778Y-20625D01*
X451816Y-21713D01*
X450828Y-22776D01*
X449815Y-23815D01*
X448776Y-24828D01*
X447713Y-25816D01*
X446625Y-26778D01*
X445515Y-27712D01*
X444382Y-28619D01*
X443227Y-29498D01*
X442050Y-30348D01*
X440854Y-31169D01*
X439637Y-31960D01*
X438401Y-32722D01*
X437148Y-33453D01*
X435876Y-34152D01*
X434588Y-34821D01*
X433283Y-35457D01*
X431964Y-36062D01*
X430630Y-36634D01*
X429282Y-37173D01*
X427922Y-37678D01*
X426550Y-38150D01*
X425166Y-38589D01*
X423772Y-38993D01*
X422369Y-39363D01*
X420957Y-39698D01*
X419537Y-39999D01*
X418110Y-40264D01*
X416677Y-40495D01*
X415239Y-40690D01*
X413796Y-40850D01*
X412350Y-40975D01*
X410902Y-41064D01*
X409451Y-41117D01*
X408000Y-41135D01*
X406549Y-41117D01*
X405098Y-41064D01*
X403650Y-40975D01*
X402204Y-40850D01*
X400761Y-40690D01*
X399323Y-40495D01*
X397890Y-40264D01*
X396463Y-39999D01*
X395043Y-39698D01*
X393631Y-39363D01*
X392228Y-38993D01*
X390834Y-38589D01*
X389450Y-38150D01*
X388078Y-37678D01*
X386718Y-37173D01*
X385370Y-36634D01*
X384036Y-36062D01*
X382717Y-35457D01*
X381412Y-34821D01*
X380124Y-34152D01*
X378852Y-33453D01*
X377599Y-32722D01*
X376363Y-31960D01*
X375146Y-31169D01*
X373950Y-30348D01*
X372773Y-29498D01*
X371618Y-28619D01*
X370485Y-27712D01*
X369375Y-26778D01*
X368287Y-25816D01*
X367224Y-24828D01*
X366185Y-23815D01*
X365172Y-22776D01*
X364184Y-21713D01*
X363222Y-20625D01*
X362288Y-19515D01*
X361381Y-18382D01*
X360502Y-17227D01*
X359652Y-16050D01*
X358831Y-14854D01*
X358040Y-13637D01*
X357278Y-12401D01*
X356547Y-11148D01*
X355848Y-9876D01*
X355179Y-8588D01*
X354543Y-7283D01*
X353938Y-5964D01*
X353366Y-4630D01*
X352827Y-3282D01*
X352322Y-1922D01*
X351850Y-550D01*
X351411Y834D01*
X351007Y2228D01*
X350637Y3631D01*
X350302Y5043D01*
X350001Y6463D01*
X349736Y7890D01*
X349505Y9323D01*
X349310Y10761D01*
X349150Y12204D01*
X349025Y13650D01*
X348936Y15098D01*
X348883Y16549D01*
X348865Y18000D01*
X348883Y19451D01*
X348936Y20902D01*
X349025Y22350D01*
X349150Y23796D01*
X349310Y25239D01*
X349505Y26677D01*
X349736Y28110D01*
X350001Y29537D01*
X350302Y30957D01*
X350637Y32369D01*
X351007Y33772D01*
X351411Y35166D01*
X351850Y36550D01*
X352322Y37922D01*
X352827Y39282D01*
X353366Y40630D01*
X353938Y41964D01*
X354543Y43283D01*
X355179Y44588D01*
X355848Y45876D01*
X356547Y47148D01*
X357278Y48401D01*
X358040Y49637D01*
X358831Y50854D01*
X359652Y52050D01*
X360502Y53227D01*
X361381Y54382D01*
X362288Y55515D01*
X363222Y56625D01*
X364184Y57713D01*
X365172Y58776D01*
X366185Y59815D01*
X367224Y60828D01*
X368287Y61816D01*
X369375Y62778D01*
X370485Y63712D01*
X371618Y64619D01*
X372773Y65498D01*
X373950Y66348D01*
X375146Y67169D01*
X376363Y67960D01*
X377599Y68722D01*
X378852Y69453D01*
X380124Y70152D01*
X381412Y70821D01*
X382717Y71457D01*
X384036Y72062D01*
X385370Y72634D01*
X386718Y73173D01*
X388078Y73678D01*
X389450Y74150D01*
X390834Y74589D01*
X392228Y74993D01*
X393631Y75363D01*
X395043Y75698D01*
X396463Y75999D01*
X397890Y76264D01*
X399323Y76495D01*
X400761Y76690D01*
X402204Y76850D01*
X403650Y76975D01*
X405098Y77064D01*
X406549Y77117D01*
X408000Y77135D01*
X409451Y77117D01*
X410902Y77064D01*
X412350Y76975D01*
X413796Y76850D01*
X415239Y76690D01*
X416677Y76495D01*
X418110Y76264D01*
X419537Y75999D01*
X420957Y75698D01*
X422369Y75363D01*
X423772Y74993D01*
X425166Y74589D01*
X426550Y74150D01*
X427922Y73678D01*
X429282Y73173D01*
X430630Y72634D01*
X431964Y72062D01*
X433283Y71457D01*
X434588Y70821D01*
X435876Y70152D01*
X437148Y69453D01*
X438401Y68722D01*
X439637Y67960D01*
X440854Y67169D01*
X442050Y66348D01*
X443227Y65498D01*
X444382Y64619D01*
X445515Y63712D01*
X446625Y62778D01*
X447713Y61816D01*
X448776Y60828D01*
X449815Y59815D01*
X450828Y58776D01*
X451816Y57713D01*
X452778Y56625D01*
X453712Y55515D01*
X454619Y54382D01*
X455498Y53227D01*
X456348Y52050D01*
X457169Y50854D01*
X457960Y49637D01*
X458722Y48401D01*
X459453Y47148D01*
X460152Y45876D01*
X460821Y44588D01*
X461457Y43283D01*
X462062Y41964D01*
X462634Y40630D01*
X463173Y39282D01*
X463678Y37922D01*
X464150Y36550D01*
X464589Y35166D01*
X464993Y33772D01*
X465363Y32369D01*
X465698Y30957D01*
X465999Y29537D01*
X466264Y28110D01*
X466495Y26677D01*
X466690Y25239D01*
X466850Y23796D01*
X466975Y22350D01*
X467064Y20902D01*
X467117Y19451D01*
X467135Y18000D01*
X467117Y16549D01*
X467064Y15098D01*
X466975Y13650D01*
X466850Y12204D01*
X466690Y10761D01*
X466495Y9323D01*
X466264Y7890D01*
X465999Y6463D01*
X465698Y5043D01*
X465363Y3631D01*
X464993Y2228D01*
X464589Y834D01*
X464150Y-550D01*
X463678Y-1922D01*
X463173Y-3282D01*
X462634Y-4630D01*
X462062Y-5964D01*
X461457Y-7283D01*
X460821Y-8588D01*
X460152Y-9876D01*
X459453Y-11148D01*
X458722Y-12401D01*
X457960Y-13637D01*
X457169Y-14854D01*
X456348Y-16050D01*
X455498Y-17227D01*
X454619Y-18382D01*
X453712Y-19515D01*
X452778Y-20625D01*
X451816Y-21713D01*
X450828Y-22776D01*
X449815Y-23815D01*
X448776Y-24828D01*
X447713Y-25816D01*
X446625Y-26778D01*
X445515Y-27712D01*
X444382Y-28619D01*
X443227Y-29498D01*
X442050Y-30348D01*
X440854Y-31169D01*
X439637Y-31960D01*
X438401Y-32722D01*
X437148Y-33453D01*
X435876Y-34152D01*
X434588Y-34821D01*
X433283Y-35457D01*
X431964Y-36062D01*
X430630Y-36634D01*
X429282Y-37173D01*
X427922Y-37678D01*
X426550Y-38150D01*
X425166Y-38589D01*
X423772Y-38993D01*
X422369Y-39363D01*
X420957Y-39698D01*
X419537Y-39999D01*
X418110Y-40264D01*
X416677Y-40495D01*
X415239Y-40690D01*
X413796Y-40850D01*
X412350Y-40975D01*
X410902Y-41064D01*
X409451Y-41117D01*
X408000Y-41135D01*
X406549Y-41117D01*
X405098Y-41064D01*
X403650Y-40975D01*
X402204Y-40850D01*
X400761Y-40690D01*
X399323Y-40495D01*
X397890Y-40264D01*
X396463Y-39999D01*
X395043Y-39698D01*
X393631Y-39363D01*
X392228Y-38993D01*
X390834Y-38589D01*
X389450Y-38150D01*
X388078Y-37678D01*
X386718Y-37173D01*
X385370Y-36634D01*
X384036Y-36062D01*
X382717Y-35457D01*
X381412Y-34821D01*
X380124Y-34152D01*
X378852Y-33453D01*
X377599Y-32722D01*
X376363Y-31960D01*
X375146Y-31169D01*
X373950Y-30348D01*
X372773Y-29498D01*
X371618Y-28619D01*
X370485Y-27712D01*
X369375Y-26778D01*
X368287Y-25816D01*
X367224Y-24828D01*
X366185Y-23815D01*
X365172Y-22776D01*
X364184Y-21713D01*
X363222Y-20625D01*
X362288Y-19515D01*
X361381Y-18382D01*
X360502Y-17227D01*
X359652Y-16050D01*
X358831Y-14854D01*
X358040Y-13637D01*
X357278Y-12401D01*
X356547Y-11148D01*
X355848Y-9876D01*
X355179Y-8588D01*
X354543Y-7283D01*
X353938Y-5964D01*
X353366Y-4630D01*
X352827Y-3282D01*
X352322Y-1922D01*
X351850Y-550D01*
X351411Y834D01*
X351007Y2228D01*
X350637Y3631D01*
X350302Y5043D01*
X350001Y6463D01*
X349736Y7890D01*
X349505Y9323D01*
X349310Y10761D01*
X349150Y12204D01*
X349025Y13650D01*
X348936Y15098D01*
X348883Y16549D01*
X348865Y18000D01*
D11*
X366000Y-106000D02*
X373000Y-106000D01*
X366000Y-106000D02*
X358000Y-114000D01*
X358000Y-251000D01*
X438000Y-106000D02*
X453000Y-106000D01*
X458000Y-111000D01*
X458000Y-176000D02*
X458000Y-251000D01*
D12*
X267197Y137319D02*
X267064Y137449D01*
X266928Y137575D01*
X266789Y137698D01*
X266647Y137817D01*
X266503Y137934D01*
X266355Y138046D01*
X266205Y138155D01*
X266052Y138260D01*
X265897Y138362D01*
X265740Y138460D01*
X265580Y138554D01*
X265417Y138644D01*
X265253Y138730D01*
X265087Y138812D01*
X264918Y138890D01*
X264748Y138964D01*
X264576Y139034D01*
X264403Y139099D01*
X264228Y139161D01*
X264051Y139218D01*
X263873Y139271D01*
X263694Y139319D01*
X263514Y139363D01*
X263333Y139403D01*
X263151Y139439D01*
X262968Y139469D01*
X262784Y139496D01*
X262600Y139518D01*
X262415Y139536D01*
X262230Y139549D01*
X262045Y139557D01*
X261859Y139562D01*
X261674Y139561D01*
X261488Y139556D01*
X261303Y139547D01*
X261118Y139533D01*
X260934Y139515D01*
X267197Y137319D02*
X267327Y137186D01*
X267453Y137050D01*
X267576Y136911D01*
X267696Y136769D01*
X267812Y136625D01*
X267924Y136477D01*
X268033Y136327D01*
X268139Y136174D01*
X268240Y136019D01*
X268338Y135861D01*
X268432Y135701D01*
X268522Y135539D01*
X268608Y135375D01*
X268690Y135209D01*
X268768Y135040D01*
X268842Y134870D01*
X268912Y134698D01*
X268977Y134525D01*
X269039Y134350D01*
X269096Y134173D01*
X269149Y133995D01*
X269197Y133816D01*
X269241Y133636D01*
X269281Y133455D01*
X269316Y133273D01*
X269347Y133090D01*
X269374Y132906D01*
X269396Y132722D01*
X269414Y132537D01*
X269427Y132352D01*
X269435Y132167D01*
X269440Y131982D01*
X269439Y131796D01*
X269434Y131611D01*
X269425Y131425D01*
X269411Y131240D01*
X269393Y131056D01*
X269393Y131055D02*
X269393Y-132898D01*
X269394Y-132897D02*
X269415Y-133046D01*
X269432Y-133194D01*
X269446Y-133343D01*
X269456Y-133493D01*
X269462Y-133642D01*
X269464Y-133792D01*
X269462Y-133941D01*
X269457Y-134091D01*
X269448Y-134240D01*
X269435Y-134389D01*
X269418Y-134538D01*
X269397Y-134686D01*
X269373Y-134834D01*
X269345Y-134981D01*
X269313Y-135127D01*
X269278Y-135272D01*
X269239Y-135417D01*
X269196Y-135560D01*
X269149Y-135703D01*
X269099Y-135844D01*
X269046Y-135983D01*
X268989Y-136122D01*
X268928Y-136258D01*
X268864Y-136394D01*
X268797Y-136527D01*
X268726Y-136659D01*
X268652Y-136789D01*
X268574Y-136917D01*
X268493Y-137043D01*
X268410Y-137167D01*
X268323Y-137289D01*
X268233Y-137408D01*
X268139Y-137525D01*
X268044Y-137640D01*
X267945Y-137753D01*
X267843Y-137862D01*
X267739Y-137969D01*
X267737Y-137969D02*
X267630Y-138074D01*
X267521Y-138175D01*
X267408Y-138274D01*
X267293Y-138370D01*
X267176Y-138463D01*
X267057Y-138553D01*
X266935Y-138640D01*
X266811Y-138724D01*
X266685Y-138805D01*
X266557Y-138882D01*
X266427Y-138956D01*
X266295Y-139027D01*
X266162Y-139095D01*
X266026Y-139159D01*
X265890Y-139219D01*
X265751Y-139276D01*
X265612Y-139330D01*
X265471Y-139380D01*
X265328Y-139426D01*
X265185Y-139469D01*
X265041Y-139508D01*
X264895Y-139544D01*
X264749Y-139575D01*
X264602Y-139603D01*
X264454Y-139628D01*
X264306Y-139648D01*
X264157Y-139665D01*
X264008Y-139678D01*
X263859Y-139687D01*
X263710Y-139692D01*
X263560Y-139694D01*
X263410Y-139692D01*
X263261Y-139686D01*
X263111Y-139676D01*
X262962Y-139662D01*
X262814Y-139645D01*
X262666Y-139624D01*
X-263925Y-139624D01*
X-264073Y-139615D01*
X-264221Y-139603D01*
X-264369Y-139586D01*
X-264516Y-139566D01*
X-264662Y-139542D01*
X-264808Y-139514D01*
X-264953Y-139482D01*
X-265097Y-139447D01*
X-265240Y-139408D01*
X-265382Y-139365D01*
X-265523Y-139319D01*
X-265662Y-139269D01*
X-265801Y-139215D01*
X-265937Y-139158D01*
X-266073Y-139097D01*
X-266206Y-139033D01*
X-266338Y-138965D01*
X-266468Y-138894D01*
X-266597Y-138819D01*
X-266723Y-138742D01*
X-266847Y-138661D01*
X-266969Y-138576D01*
X-267089Y-138489D01*
X-267207Y-138399D01*
X-267322Y-138305D01*
X-267435Y-138209D01*
X-267545Y-138109D01*
X-267652Y-138007D01*
X-267757Y-137902D01*
X-267859Y-137795D01*
X-267959Y-137685D01*
X-268055Y-137572D01*
X-268149Y-137457D01*
X-268239Y-137339D01*
X-268326Y-137219D01*
X-268411Y-137097D01*
X-268492Y-136973D01*
X-268569Y-136847D01*
X-268644Y-136718D01*
X-268715Y-136588D01*
X-268783Y-136456D01*
X-268847Y-136323D01*
X-268908Y-136187D01*
X-268965Y-136051D01*
X-269019Y-135912D01*
X-269069Y-135773D01*
X-269115Y-135632D01*
X-269158Y-135490D01*
X-269197Y-135347D01*
X-269232Y-135203D01*
X-269264Y-135058D01*
X-269292Y-134912D01*
X-269316Y-134766D01*
X-269336Y-134619D01*
X-269353Y-134471D01*
X-269365Y-134323D01*
X-269374Y-134175D01*
X-269373Y-134176D02*
X-269373Y133736D01*
X-269373Y133735D02*
X-269379Y133879D01*
X-269381Y134023D01*
X-269379Y134167D01*
X-269374Y134311D01*
X-269364Y134455D01*
X-269351Y134598D01*
X-269334Y134741D01*
X-269314Y134883D01*
X-269289Y135025D01*
X-269261Y135166D01*
X-269229Y135307D01*
X-269194Y135446D01*
X-269155Y135585D01*
X-269112Y135722D01*
X-269066Y135859D01*
X-269016Y135994D01*
X-268963Y136128D01*
X-268906Y136260D01*
X-268846Y136390D01*
X-268782Y136520D01*
X-268715Y136647D01*
X-268644Y136773D01*
X-268571Y136896D01*
X-268494Y137018D01*
X-268414Y137138D01*
X-268331Y137255D01*
X-268245Y137370D01*
X-268156Y137483D01*
X-268063Y137594D01*
X-267968Y137702D01*
X-267871Y137808D01*
X-267770Y137911D01*
X-267667Y138012D01*
X-267561Y138109D01*
X-267453Y138204D01*
X-267342Y138296D01*
X-267229Y138386D01*
X-267114Y138472D01*
X-266996Y138555D01*
X-266877Y138635D01*
X-266755Y138712D01*
X-266631Y138785D01*
X-266506Y138856D01*
X-266378Y138923D01*
X-266249Y138986D01*
X-266118Y139047D01*
X-265986Y139104D01*
X-265852Y139157D01*
X-265717Y139207D01*
X-265581Y139253D01*
X-265444Y139296D01*
X-265305Y139335D01*
X-265165Y139370D01*
X-265025Y139402D01*
X-264884Y139430D01*
X-264742Y139454D01*
X-264600Y139475D01*
X-264457Y139492D01*
X-264313Y139505D01*
X-264170Y139515D01*
X-264026Y139520D01*
X-263882Y139522D01*
X-263738Y139520D01*
X-263594Y139514D01*
X-263594Y139515D02*
X260933Y139515D01*
X332330Y-90129D02*
X22176Y-90129D01*
X22176Y89961D02*
X332330Y89961D01*
X270069Y89961D02*
X270069Y-90129D01*
X332330Y-90129D02*
X332330Y89961D01*
X22176Y89961D02*
X22176Y-90129D01*
X292410Y39936D02*
X309087Y35316D01*
X292410Y30694D01*
X297969Y32428D02*
X297969Y38203D01*
X292410Y25497D02*
X309087Y25497D01*
X292410Y17411D01*
X309087Y17411D01*
X309087Y8170D02*
X292410Y8170D01*
X309087Y12212D02*
X309087Y4127D01*
X309087Y-1071D02*
X301146Y-1071D01*
X292410Y-1071D01*
X309087Y-1071D02*
X309087Y-8579D01*
X301146Y-5691D02*
X301146Y-1071D01*
X292410Y-1071D02*
X292410Y-8579D01*
X292410Y-13778D02*
X309087Y-13778D01*
X292410Y-21863D01*
X309087Y-21863D01*
X309087Y-27061D02*
X292410Y-27061D01*
X292410Y-35147D02*
X309087Y-27061D01*
X309087Y-35147D02*
X292410Y-35147D01*
X292410Y-40345D02*
X309087Y-44966D01*
X292410Y-49586D01*
X297969Y-47854D02*
X297969Y-42077D01*
X269627Y692D02*
X269627Y698D01*
X-215000Y40000D02*
X-277000Y40000D01*
X-277000Y-45000D01*
X-215000Y-45000D01*
X-215000Y40000D01*
D13*
X51308Y51308D02*
X56501Y51308D01*
X51308Y51308D02*
X51308Y62992D01*
X56501Y62992D01*
X55203Y57799D02*
X51308Y57799D01*
X64324Y51308D02*
X64423Y51310D01*
X64523Y51316D01*
X64622Y51325D01*
X64720Y51338D01*
X64818Y51355D01*
X64916Y51376D01*
X65012Y51401D01*
X65107Y51429D01*
X65201Y51461D01*
X65294Y51496D01*
X65386Y51535D01*
X65476Y51578D01*
X65564Y51623D01*
X65651Y51673D01*
X65735Y51725D01*
X65818Y51781D01*
X65898Y51839D01*
X65976Y51901D01*
X66051Y51966D01*
X66124Y52034D01*
X66194Y52104D01*
X66262Y52177D01*
X66327Y52252D01*
X66389Y52330D01*
X66447Y52410D01*
X66503Y52493D01*
X66555Y52577D01*
X66605Y52664D01*
X66650Y52752D01*
X66693Y52842D01*
X66732Y52934D01*
X66767Y53027D01*
X66799Y53121D01*
X66827Y53216D01*
X66852Y53312D01*
X66873Y53410D01*
X66890Y53508D01*
X66903Y53606D01*
X66912Y53705D01*
X66918Y53805D01*
X66920Y53904D01*
X64324Y51308D02*
X64180Y51310D01*
X64035Y51316D01*
X63891Y51325D01*
X63748Y51338D01*
X63604Y51355D01*
X63461Y51376D01*
X63319Y51401D01*
X63178Y51429D01*
X63037Y51461D01*
X62897Y51497D01*
X62758Y51536D01*
X62620Y51579D01*
X62484Y51626D01*
X62348Y51676D01*
X62214Y51730D01*
X62082Y51787D01*
X61951Y51848D01*
X61822Y51912D01*
X61694Y51980D01*
X61568Y52050D01*
X61444Y52125D01*
X61323Y52202D01*
X61203Y52283D01*
X61085Y52366D01*
X60970Y52453D01*
X60857Y52543D01*
X60746Y52636D01*
X60638Y52731D01*
X60532Y52830D01*
X60429Y52931D01*
X60754Y60396D02*
X60756Y60495D01*
X60762Y60595D01*
X60771Y60694D01*
X60784Y60792D01*
X60801Y60890D01*
X60822Y60988D01*
X60847Y61084D01*
X60875Y61179D01*
X60907Y61273D01*
X60942Y61366D01*
X60981Y61458D01*
X61024Y61548D01*
X61069Y61636D01*
X61119Y61723D01*
X61171Y61807D01*
X61227Y61890D01*
X61285Y61970D01*
X61347Y62048D01*
X61412Y62123D01*
X61480Y62196D01*
X61550Y62266D01*
X61623Y62334D01*
X61698Y62399D01*
X61776Y62461D01*
X61856Y62519D01*
X61939Y62575D01*
X62023Y62627D01*
X62110Y62677D01*
X62198Y62722D01*
X62288Y62765D01*
X62380Y62804D01*
X62473Y62839D01*
X62567Y62871D01*
X62662Y62899D01*
X62759Y62924D01*
X62856Y62945D01*
X62954Y62962D01*
X63052Y62975D01*
X63151Y62984D01*
X63251Y62990D01*
X63350Y62992D01*
X63486Y62990D01*
X63622Y62984D01*
X63758Y62975D01*
X63894Y62962D01*
X64029Y62944D01*
X64163Y62924D01*
X64297Y62899D01*
X64431Y62871D01*
X64563Y62838D01*
X64694Y62803D01*
X64825Y62763D01*
X64954Y62720D01*
X65082Y62674D01*
X65208Y62623D01*
X65334Y62570D01*
X65457Y62512D01*
X65579Y62452D01*
X65699Y62388D01*
X65818Y62320D01*
X65934Y62250D01*
X66048Y62176D01*
X66161Y62099D01*
X66271Y62018D01*
X62052Y58124D02*
X61966Y58177D01*
X61882Y58234D01*
X61800Y58293D01*
X61720Y58356D01*
X61643Y58422D01*
X61568Y58490D01*
X61496Y58562D01*
X61427Y58636D01*
X61361Y58713D01*
X61298Y58792D01*
X61238Y58874D01*
X61181Y58958D01*
X61127Y59044D01*
X61077Y59132D01*
X61030Y59222D01*
X60986Y59313D01*
X60947Y59407D01*
X60910Y59501D01*
X60878Y59597D01*
X60849Y59695D01*
X60824Y59793D01*
X60803Y59892D01*
X60785Y59992D01*
X60772Y60092D01*
X60762Y60193D01*
X60756Y60295D01*
X60754Y60396D01*
X65623Y56176D02*
X65709Y56123D01*
X65793Y56066D01*
X65875Y56007D01*
X65955Y55944D01*
X66032Y55878D01*
X66107Y55810D01*
X66179Y55738D01*
X66248Y55664D01*
X66314Y55587D01*
X66377Y55508D01*
X66437Y55426D01*
X66494Y55342D01*
X66548Y55256D01*
X66598Y55168D01*
X66645Y55078D01*
X66689Y54987D01*
X66728Y54893D01*
X66765Y54799D01*
X66797Y54703D01*
X66826Y54605D01*
X66851Y54507D01*
X66872Y54408D01*
X66890Y54308D01*
X66903Y54208D01*
X66913Y54107D01*
X66919Y54005D01*
X66921Y53904D01*
X65622Y56176D02*
X62052Y58124D01*
X72029Y62992D02*
X72029Y51308D01*
X72029Y62992D02*
X75274Y62992D01*
X75387Y62990D01*
X75500Y62984D01*
X75613Y62974D01*
X75726Y62960D01*
X75838Y62943D01*
X75949Y62921D01*
X76059Y62896D01*
X76169Y62866D01*
X76277Y62833D01*
X76384Y62796D01*
X76490Y62756D01*
X76594Y62711D01*
X76697Y62663D01*
X76798Y62612D01*
X76897Y62557D01*
X76994Y62499D01*
X77089Y62437D01*
X77182Y62372D01*
X77272Y62304D01*
X77360Y62233D01*
X77446Y62158D01*
X77529Y62081D01*
X77609Y62001D01*
X77686Y61918D01*
X77761Y61832D01*
X77832Y61744D01*
X77900Y61654D01*
X77965Y61561D01*
X78027Y61466D01*
X78085Y61369D01*
X78140Y61270D01*
X78191Y61169D01*
X78239Y61066D01*
X78284Y60962D01*
X78324Y60856D01*
X78361Y60749D01*
X78394Y60641D01*
X78424Y60531D01*
X78449Y60421D01*
X78471Y60310D01*
X78488Y60198D01*
X78502Y60085D01*
X78512Y59972D01*
X78518Y59859D01*
X78520Y59746D01*
X78518Y59633D01*
X78512Y59520D01*
X78502Y59407D01*
X78488Y59294D01*
X78471Y59182D01*
X78449Y59071D01*
X78424Y58961D01*
X78394Y58851D01*
X78361Y58743D01*
X78324Y58636D01*
X78284Y58530D01*
X78239Y58426D01*
X78191Y58323D01*
X78140Y58222D01*
X78085Y58123D01*
X78027Y58026D01*
X77965Y57931D01*
X77900Y57838D01*
X77832Y57748D01*
X77761Y57660D01*
X77686Y57574D01*
X77609Y57491D01*
X77529Y57411D01*
X77446Y57334D01*
X77360Y57259D01*
X77272Y57188D01*
X77182Y57120D01*
X77089Y57055D01*
X76994Y56993D01*
X76897Y56935D01*
X76798Y56880D01*
X76697Y56829D01*
X76594Y56781D01*
X76490Y56736D01*
X76384Y56696D01*
X76277Y56659D01*
X76169Y56626D01*
X76059Y56596D01*
X75949Y56571D01*
X75838Y56549D01*
X75726Y56532D01*
X75613Y56518D01*
X75500Y56508D01*
X75387Y56502D01*
X75274Y56500D01*
X75274Y56501D02*
X72029Y56501D01*
X82908Y51308D02*
X86154Y51308D01*
X86267Y51310D01*
X86380Y51316D01*
X86493Y51326D01*
X86606Y51340D01*
X86718Y51357D01*
X86829Y51379D01*
X86939Y51404D01*
X87049Y51434D01*
X87157Y51467D01*
X87264Y51504D01*
X87370Y51544D01*
X87474Y51589D01*
X87577Y51637D01*
X87678Y51688D01*
X87777Y51743D01*
X87874Y51801D01*
X87969Y51863D01*
X88062Y51928D01*
X88152Y51996D01*
X88240Y52067D01*
X88326Y52142D01*
X88409Y52219D01*
X88489Y52299D01*
X88566Y52382D01*
X88641Y52468D01*
X88712Y52556D01*
X88780Y52646D01*
X88845Y52739D01*
X88907Y52834D01*
X88965Y52931D01*
X89020Y53030D01*
X89071Y53131D01*
X89119Y53234D01*
X89164Y53338D01*
X89204Y53444D01*
X89241Y53551D01*
X89274Y53659D01*
X89304Y53769D01*
X89329Y53879D01*
X89351Y53990D01*
X89368Y54102D01*
X89382Y54215D01*
X89392Y54328D01*
X89398Y54441D01*
X89400Y54554D01*
X89398Y54667D01*
X89392Y54780D01*
X89382Y54893D01*
X89368Y55006D01*
X89351Y55118D01*
X89329Y55229D01*
X89304Y55339D01*
X89274Y55449D01*
X89241Y55557D01*
X89204Y55664D01*
X89164Y55770D01*
X89119Y55874D01*
X89071Y55977D01*
X89020Y56078D01*
X88965Y56177D01*
X88907Y56274D01*
X88845Y56369D01*
X88780Y56462D01*
X88712Y56552D01*
X88641Y56640D01*
X88566Y56726D01*
X88489Y56809D01*
X88409Y56889D01*
X88326Y56966D01*
X88240Y57041D01*
X88152Y57112D01*
X88062Y57180D01*
X87969Y57245D01*
X87874Y57307D01*
X87777Y57365D01*
X87678Y57420D01*
X87577Y57471D01*
X87474Y57519D01*
X87370Y57564D01*
X87264Y57604D01*
X87157Y57641D01*
X87049Y57674D01*
X86939Y57704D01*
X86829Y57729D01*
X86718Y57751D01*
X86606Y57768D01*
X86493Y57782D01*
X86380Y57792D01*
X86267Y57798D01*
X86154Y57800D01*
X86803Y62992D02*
X82908Y62992D01*
X86803Y62992D02*
X86904Y62990D01*
X87004Y62984D01*
X87104Y62974D01*
X87204Y62961D01*
X87303Y62943D01*
X87402Y62922D01*
X87499Y62897D01*
X87596Y62868D01*
X87691Y62835D01*
X87785Y62799D01*
X87877Y62759D01*
X87968Y62716D01*
X88057Y62669D01*
X88144Y62619D01*
X88230Y62565D01*
X88313Y62508D01*
X88393Y62448D01*
X88472Y62385D01*
X88548Y62318D01*
X88621Y62249D01*
X88691Y62177D01*
X88759Y62103D01*
X88824Y62026D01*
X88885Y61946D01*
X88944Y61864D01*
X88999Y61780D01*
X89051Y61694D01*
X89100Y61606D01*
X89145Y61516D01*
X89187Y61424D01*
X89225Y61331D01*
X89259Y61236D01*
X89290Y61141D01*
X89317Y61044D01*
X89340Y60946D01*
X89360Y60847D01*
X89375Y60747D01*
X89387Y60647D01*
X89395Y60547D01*
X89399Y60446D01*
X89399Y60346D01*
X89395Y60245D01*
X89387Y60145D01*
X89375Y60045D01*
X89360Y59945D01*
X89340Y59846D01*
X89317Y59748D01*
X89290Y59651D01*
X89259Y59556D01*
X89225Y59461D01*
X89187Y59368D01*
X89145Y59276D01*
X89100Y59186D01*
X89051Y59098D01*
X88999Y59012D01*
X88944Y58928D01*
X88885Y58846D01*
X88824Y58766D01*
X88759Y58689D01*
X88691Y58615D01*
X88621Y58543D01*
X88548Y58474D01*
X88472Y58407D01*
X88393Y58344D01*
X88313Y58284D01*
X88230Y58227D01*
X88144Y58173D01*
X88057Y58123D01*
X87968Y58076D01*
X87877Y58033D01*
X87785Y57993D01*
X87691Y57957D01*
X87596Y57924D01*
X87499Y57895D01*
X87402Y57870D01*
X87303Y57849D01*
X87204Y57831D01*
X87104Y57818D01*
X87004Y57808D01*
X86904Y57802D01*
X86803Y57800D01*
X86803Y57799D02*
X84207Y57799D01*
X97908Y62992D02*
X98015Y62990D01*
X98121Y62984D01*
X98227Y62974D01*
X98333Y62961D01*
X98439Y62943D01*
X98543Y62922D01*
X98647Y62897D01*
X98750Y62868D01*
X98851Y62836D01*
X98951Y62799D01*
X99050Y62759D01*
X99148Y62716D01*
X99244Y62669D01*
X99338Y62618D01*
X99430Y62564D01*
X99520Y62507D01*
X99608Y62447D01*
X99693Y62383D01*
X99776Y62316D01*
X99857Y62246D01*
X99935Y62174D01*
X100011Y62098D01*
X100083Y62020D01*
X100153Y61939D01*
X100220Y61856D01*
X100284Y61771D01*
X100344Y61683D01*
X100401Y61593D01*
X100455Y61501D01*
X100506Y61407D01*
X100553Y61311D01*
X100596Y61213D01*
X100636Y61114D01*
X100673Y61014D01*
X100705Y60913D01*
X100734Y60810D01*
X100759Y60706D01*
X100780Y60602D01*
X100798Y60496D01*
X100811Y60390D01*
X100821Y60284D01*
X100827Y60178D01*
X100829Y60071D01*
X97908Y62992D02*
X97787Y62990D01*
X97666Y62984D01*
X97546Y62974D01*
X97425Y62961D01*
X97306Y62943D01*
X97186Y62922D01*
X97068Y62897D01*
X96951Y62868D01*
X96834Y62835D01*
X96719Y62799D01*
X96605Y62758D01*
X96492Y62715D01*
X96380Y62667D01*
X96271Y62616D01*
X96163Y62561D01*
X96056Y62503D01*
X95952Y62442D01*
X95850Y62377D01*
X95750Y62309D01*
X95652Y62238D01*
X95556Y62164D01*
X95463Y62087D01*
X95373Y62006D01*
X95285Y61923D01*
X95200Y61837D01*
X95117Y61748D01*
X95038Y61657D01*
X94961Y61563D01*
X94888Y61467D01*
X94818Y61369D01*
X94751Y61268D01*
X94687Y61165D01*
X94627Y61060D01*
X94570Y60953D01*
X94516Y60845D01*
X94466Y60735D01*
X94420Y60623D01*
X94377Y60510D01*
X94338Y60395D01*
X99856Y57799D02*
X99935Y57876D01*
X100011Y57957D01*
X100084Y58040D01*
X100154Y58125D01*
X100221Y58213D01*
X100285Y58303D01*
X100345Y58395D01*
X100402Y58490D01*
X100456Y58586D01*
X100507Y58684D01*
X100554Y58784D01*
X100598Y58886D01*
X100638Y58989D01*
X100674Y59093D01*
X100706Y59199D01*
X100735Y59305D01*
X100760Y59413D01*
X100782Y59521D01*
X100799Y59631D01*
X100813Y59740D01*
X100822Y59850D01*
X100828Y59961D01*
X100830Y60071D01*
X99856Y57799D02*
X94338Y51308D01*
X100829Y51308D01*
X105881Y55852D02*
X113671Y55852D01*
X122236Y51308D02*
X122335Y51310D01*
X122435Y51316D01*
X122534Y51325D01*
X122632Y51338D01*
X122730Y51355D01*
X122828Y51376D01*
X122924Y51401D01*
X123019Y51429D01*
X123113Y51461D01*
X123206Y51496D01*
X123298Y51535D01*
X123388Y51578D01*
X123476Y51623D01*
X123563Y51673D01*
X123647Y51725D01*
X123730Y51781D01*
X123810Y51839D01*
X123888Y51901D01*
X123963Y51966D01*
X124036Y52034D01*
X124106Y52104D01*
X124174Y52177D01*
X124239Y52252D01*
X124301Y52330D01*
X124359Y52410D01*
X124415Y52493D01*
X124467Y52577D01*
X124517Y52664D01*
X124562Y52752D01*
X124605Y52842D01*
X124644Y52934D01*
X124679Y53027D01*
X124711Y53121D01*
X124739Y53216D01*
X124764Y53312D01*
X124785Y53410D01*
X124802Y53508D01*
X124815Y53606D01*
X124824Y53705D01*
X124830Y53805D01*
X124832Y53904D01*
X122236Y51308D02*
X122092Y51310D01*
X121947Y51316D01*
X121803Y51325D01*
X121660Y51338D01*
X121516Y51355D01*
X121373Y51376D01*
X121231Y51401D01*
X121090Y51429D01*
X120949Y51461D01*
X120809Y51497D01*
X120670Y51536D01*
X120532Y51579D01*
X120396Y51626D01*
X120260Y51676D01*
X120126Y51730D01*
X119994Y51787D01*
X119863Y51848D01*
X119734Y51912D01*
X119606Y51980D01*
X119480Y52050D01*
X119356Y52125D01*
X119235Y52202D01*
X119115Y52283D01*
X118997Y52366D01*
X118882Y52453D01*
X118769Y52543D01*
X118658Y52636D01*
X118550Y52731D01*
X118444Y52830D01*
X118341Y52931D01*
X118666Y60396D02*
X118668Y60495D01*
X118674Y60595D01*
X118683Y60694D01*
X118696Y60792D01*
X118713Y60890D01*
X118734Y60988D01*
X118759Y61084D01*
X118787Y61179D01*
X118819Y61273D01*
X118854Y61366D01*
X118893Y61458D01*
X118936Y61548D01*
X118981Y61636D01*
X119031Y61723D01*
X119083Y61807D01*
X119139Y61890D01*
X119197Y61970D01*
X119259Y62048D01*
X119324Y62123D01*
X119392Y62196D01*
X119462Y62266D01*
X119535Y62334D01*
X119610Y62399D01*
X119688Y62461D01*
X119768Y62519D01*
X119851Y62575D01*
X119935Y62627D01*
X120022Y62677D01*
X120110Y62722D01*
X120200Y62765D01*
X120292Y62804D01*
X120385Y62839D01*
X120479Y62871D01*
X120574Y62899D01*
X120671Y62924D01*
X120768Y62945D01*
X120866Y62962D01*
X120964Y62975D01*
X121063Y62984D01*
X121163Y62990D01*
X121262Y62992D01*
X121398Y62990D01*
X121534Y62984D01*
X121670Y62975D01*
X121806Y62962D01*
X121941Y62944D01*
X122075Y62924D01*
X122209Y62899D01*
X122343Y62871D01*
X122475Y62838D01*
X122606Y62803D01*
X122737Y62763D01*
X122866Y62720D01*
X122994Y62674D01*
X123120Y62623D01*
X123246Y62570D01*
X123369Y62512D01*
X123491Y62452D01*
X123611Y62388D01*
X123730Y62320D01*
X123846Y62250D01*
X123960Y62176D01*
X124073Y62099D01*
X124183Y62018D01*
X119964Y58124D02*
X119878Y58177D01*
X119794Y58234D01*
X119712Y58293D01*
X119632Y58356D01*
X119555Y58422D01*
X119480Y58490D01*
X119408Y58562D01*
X119339Y58636D01*
X119273Y58713D01*
X119210Y58792D01*
X119150Y58874D01*
X119093Y58958D01*
X119039Y59044D01*
X118989Y59132D01*
X118942Y59222D01*
X118898Y59313D01*
X118859Y59407D01*
X118822Y59501D01*
X118790Y59597D01*
X118761Y59695D01*
X118736Y59793D01*
X118715Y59892D01*
X118697Y59992D01*
X118684Y60092D01*
X118674Y60193D01*
X118668Y60295D01*
X118666Y60396D01*
X123534Y56176D02*
X123620Y56123D01*
X123704Y56066D01*
X123786Y56007D01*
X123866Y55944D01*
X123943Y55878D01*
X124018Y55810D01*
X124090Y55738D01*
X124159Y55664D01*
X124225Y55587D01*
X124288Y55508D01*
X124348Y55426D01*
X124405Y55342D01*
X124459Y55256D01*
X124509Y55168D01*
X124556Y55078D01*
X124600Y54987D01*
X124639Y54893D01*
X124676Y54799D01*
X124708Y54703D01*
X124737Y54605D01*
X124762Y54507D01*
X124783Y54408D01*
X124801Y54308D01*
X124814Y54208D01*
X124824Y54107D01*
X124830Y54005D01*
X124832Y53904D01*
X123534Y56176D02*
X119964Y58124D01*
X132960Y62992D02*
X133067Y62990D01*
X133173Y62984D01*
X133279Y62974D01*
X133385Y62961D01*
X133491Y62943D01*
X133595Y62922D01*
X133699Y62897D01*
X133802Y62868D01*
X133903Y62836D01*
X134003Y62799D01*
X134102Y62759D01*
X134200Y62716D01*
X134296Y62669D01*
X134390Y62618D01*
X134482Y62564D01*
X134572Y62507D01*
X134660Y62447D01*
X134745Y62383D01*
X134828Y62316D01*
X134909Y62246D01*
X134987Y62174D01*
X135063Y62098D01*
X135135Y62020D01*
X135205Y61939D01*
X135272Y61856D01*
X135336Y61771D01*
X135396Y61683D01*
X135453Y61593D01*
X135507Y61501D01*
X135558Y61407D01*
X135605Y61311D01*
X135648Y61213D01*
X135688Y61114D01*
X135725Y61014D01*
X135757Y60913D01*
X135786Y60810D01*
X135811Y60706D01*
X135832Y60602D01*
X135850Y60496D01*
X135863Y60390D01*
X135873Y60284D01*
X135879Y60178D01*
X135881Y60071D01*
X132960Y62992D02*
X132839Y62990D01*
X132718Y62984D01*
X132598Y62974D01*
X132477Y62961D01*
X132358Y62943D01*
X132238Y62922D01*
X132120Y62897D01*
X132003Y62868D01*
X131886Y62835D01*
X131771Y62799D01*
X131657Y62758D01*
X131544Y62715D01*
X131432Y62667D01*
X131323Y62616D01*
X131215Y62561D01*
X131108Y62503D01*
X131004Y62442D01*
X130902Y62377D01*
X130802Y62309D01*
X130704Y62238D01*
X130608Y62164D01*
X130515Y62087D01*
X130425Y62006D01*
X130337Y61923D01*
X130252Y61837D01*
X130169Y61748D01*
X130090Y61657D01*
X130013Y61563D01*
X129940Y61467D01*
X129870Y61369D01*
X129803Y61268D01*
X129739Y61165D01*
X129679Y61060D01*
X129622Y60953D01*
X129568Y60845D01*
X129518Y60735D01*
X129472Y60623D01*
X129429Y60510D01*
X129390Y60395D01*
X134908Y57799D02*
X134987Y57876D01*
X135063Y57957D01*
X135136Y58040D01*
X135206Y58125D01*
X135273Y58213D01*
X135337Y58303D01*
X135397Y58395D01*
X135454Y58490D01*
X135508Y58586D01*
X135559Y58684D01*
X135606Y58784D01*
X135650Y58886D01*
X135690Y58989D01*
X135726Y59093D01*
X135758Y59199D01*
X135787Y59305D01*
X135812Y59413D01*
X135834Y59521D01*
X135851Y59631D01*
X135865Y59740D01*
X135874Y59850D01*
X135880Y59961D01*
X135882Y60071D01*
X134908Y57799D02*
X129390Y51308D01*
X135881Y51308D01*
X140933Y55852D02*
X148722Y55852D01*
X157288Y51308D02*
X157387Y51310D01*
X157487Y51316D01*
X157586Y51325D01*
X157684Y51338D01*
X157782Y51355D01*
X157880Y51376D01*
X157976Y51401D01*
X158071Y51429D01*
X158165Y51461D01*
X158258Y51496D01*
X158350Y51535D01*
X158440Y51578D01*
X158528Y51623D01*
X158615Y51673D01*
X158699Y51725D01*
X158782Y51781D01*
X158862Y51839D01*
X158940Y51901D01*
X159015Y51966D01*
X159088Y52034D01*
X159158Y52104D01*
X159226Y52177D01*
X159291Y52252D01*
X159353Y52330D01*
X159411Y52410D01*
X159467Y52493D01*
X159519Y52577D01*
X159569Y52664D01*
X159614Y52752D01*
X159657Y52842D01*
X159696Y52934D01*
X159731Y53027D01*
X159763Y53121D01*
X159791Y53216D01*
X159816Y53312D01*
X159837Y53410D01*
X159854Y53508D01*
X159867Y53606D01*
X159876Y53705D01*
X159882Y53805D01*
X159884Y53904D01*
X157288Y51308D02*
X157144Y51310D01*
X156999Y51316D01*
X156855Y51325D01*
X156712Y51338D01*
X156568Y51355D01*
X156425Y51376D01*
X156283Y51401D01*
X156142Y51429D01*
X156001Y51461D01*
X155861Y51497D01*
X155722Y51536D01*
X155584Y51579D01*
X155448Y51626D01*
X155312Y51676D01*
X155178Y51730D01*
X155046Y51787D01*
X154915Y51848D01*
X154786Y51912D01*
X154658Y51980D01*
X154532Y52050D01*
X154408Y52125D01*
X154287Y52202D01*
X154167Y52283D01*
X154049Y52366D01*
X153934Y52453D01*
X153821Y52543D01*
X153710Y52636D01*
X153602Y52731D01*
X153496Y52830D01*
X153393Y52931D01*
X153718Y60396D02*
X153720Y60495D01*
X153726Y60595D01*
X153735Y60694D01*
X153748Y60792D01*
X153765Y60890D01*
X153786Y60988D01*
X153811Y61084D01*
X153839Y61179D01*
X153871Y61273D01*
X153906Y61366D01*
X153945Y61458D01*
X153988Y61548D01*
X154033Y61636D01*
X154083Y61723D01*
X154135Y61807D01*
X154191Y61890D01*
X154249Y61970D01*
X154311Y62048D01*
X154376Y62123D01*
X154444Y62196D01*
X154514Y62266D01*
X154587Y62334D01*
X154662Y62399D01*
X154740Y62461D01*
X154820Y62519D01*
X154903Y62575D01*
X154987Y62627D01*
X155074Y62677D01*
X155162Y62722D01*
X155252Y62765D01*
X155344Y62804D01*
X155437Y62839D01*
X155531Y62871D01*
X155626Y62899D01*
X155723Y62924D01*
X155820Y62945D01*
X155918Y62962D01*
X156016Y62975D01*
X156115Y62984D01*
X156215Y62990D01*
X156314Y62992D01*
X156450Y62990D01*
X156586Y62984D01*
X156722Y62975D01*
X156858Y62962D01*
X156993Y62944D01*
X157127Y62924D01*
X157261Y62899D01*
X157395Y62871D01*
X157527Y62838D01*
X157658Y62803D01*
X157789Y62763D01*
X157918Y62720D01*
X158046Y62674D01*
X158172Y62623D01*
X158298Y62570D01*
X158421Y62512D01*
X158543Y62452D01*
X158663Y62388D01*
X158782Y62320D01*
X158898Y62250D01*
X159012Y62176D01*
X159125Y62099D01*
X159235Y62018D01*
X155016Y58124D02*
X154930Y58177D01*
X154846Y58234D01*
X154764Y58293D01*
X154684Y58356D01*
X154607Y58422D01*
X154532Y58490D01*
X154460Y58562D01*
X154391Y58636D01*
X154325Y58713D01*
X154262Y58792D01*
X154202Y58874D01*
X154145Y58958D01*
X154091Y59044D01*
X154041Y59132D01*
X153994Y59222D01*
X153950Y59313D01*
X153911Y59407D01*
X153874Y59501D01*
X153842Y59597D01*
X153813Y59695D01*
X153788Y59793D01*
X153767Y59892D01*
X153749Y59992D01*
X153736Y60092D01*
X153726Y60193D01*
X153720Y60295D01*
X153718Y60396D01*
X158586Y56176D02*
X158672Y56123D01*
X158756Y56066D01*
X158838Y56007D01*
X158918Y55944D01*
X158995Y55878D01*
X159070Y55810D01*
X159142Y55738D01*
X159211Y55664D01*
X159277Y55587D01*
X159340Y55508D01*
X159400Y55426D01*
X159457Y55342D01*
X159511Y55256D01*
X159561Y55168D01*
X159608Y55078D01*
X159652Y54987D01*
X159691Y54893D01*
X159728Y54799D01*
X159760Y54703D01*
X159789Y54605D01*
X159814Y54507D01*
X159835Y54408D01*
X159853Y54308D01*
X159866Y54208D01*
X159876Y54107D01*
X159882Y54005D01*
X159884Y53904D01*
X158586Y56176D02*
X155016Y58124D01*
X163793Y51308D02*
X167688Y62992D01*
X171582Y51308D01*
X170609Y54229D02*
X164767Y54229D01*
X175872Y54554D02*
X175872Y59746D01*
X175874Y59859D01*
X175880Y59972D01*
X175890Y60085D01*
X175904Y60198D01*
X175921Y60310D01*
X175943Y60421D01*
X175968Y60531D01*
X175998Y60641D01*
X176031Y60749D01*
X176068Y60856D01*
X176108Y60962D01*
X176153Y61066D01*
X176201Y61169D01*
X176252Y61270D01*
X176307Y61369D01*
X176365Y61466D01*
X176427Y61561D01*
X176492Y61654D01*
X176560Y61744D01*
X176631Y61832D01*
X176706Y61918D01*
X176783Y62001D01*
X176863Y62081D01*
X176946Y62158D01*
X177032Y62233D01*
X177120Y62304D01*
X177210Y62372D01*
X177303Y62437D01*
X177398Y62499D01*
X177495Y62557D01*
X177594Y62612D01*
X177695Y62663D01*
X177798Y62711D01*
X177902Y62756D01*
X178008Y62796D01*
X178115Y62833D01*
X178223Y62866D01*
X178333Y62896D01*
X178443Y62921D01*
X178554Y62943D01*
X178666Y62960D01*
X178779Y62974D01*
X178892Y62984D01*
X179005Y62990D01*
X179118Y62992D01*
X179231Y62990D01*
X179344Y62984D01*
X179457Y62974D01*
X179570Y62960D01*
X179682Y62943D01*
X179793Y62921D01*
X179903Y62896D01*
X180013Y62866D01*
X180121Y62833D01*
X180228Y62796D01*
X180334Y62756D01*
X180438Y62711D01*
X180541Y62663D01*
X180642Y62612D01*
X180741Y62557D01*
X180838Y62499D01*
X180933Y62437D01*
X181026Y62372D01*
X181116Y62304D01*
X181204Y62233D01*
X181290Y62158D01*
X181373Y62081D01*
X181453Y62001D01*
X181530Y61918D01*
X181605Y61832D01*
X181676Y61744D01*
X181744Y61654D01*
X181809Y61561D01*
X181871Y61466D01*
X181929Y61369D01*
X181984Y61270D01*
X182035Y61169D01*
X182083Y61066D01*
X182128Y60962D01*
X182168Y60856D01*
X182205Y60749D01*
X182238Y60641D01*
X182268Y60531D01*
X182293Y60421D01*
X182315Y60310D01*
X182332Y60198D01*
X182346Y60085D01*
X182356Y59972D01*
X182362Y59859D01*
X182364Y59746D01*
X182363Y59746D02*
X182363Y54554D01*
X182364Y54554D02*
X182362Y54441D01*
X182356Y54328D01*
X182346Y54215D01*
X182332Y54102D01*
X182315Y53990D01*
X182293Y53879D01*
X182268Y53769D01*
X182238Y53659D01*
X182205Y53551D01*
X182168Y53444D01*
X182128Y53338D01*
X182083Y53234D01*
X182035Y53131D01*
X181984Y53030D01*
X181929Y52931D01*
X181871Y52834D01*
X181809Y52739D01*
X181744Y52646D01*
X181676Y52556D01*
X181605Y52468D01*
X181530Y52382D01*
X181453Y52299D01*
X181373Y52219D01*
X181290Y52142D01*
X181204Y52067D01*
X181116Y51996D01*
X181026Y51928D01*
X180933Y51863D01*
X180838Y51801D01*
X180741Y51743D01*
X180642Y51688D01*
X180541Y51637D01*
X180438Y51589D01*
X180334Y51544D01*
X180228Y51504D01*
X180121Y51467D01*
X180013Y51434D01*
X179903Y51404D01*
X179793Y51379D01*
X179682Y51357D01*
X179570Y51340D01*
X179457Y51326D01*
X179344Y51316D01*
X179231Y51310D01*
X179118Y51308D01*
X179005Y51310D01*
X178892Y51316D01*
X178779Y51326D01*
X178666Y51340D01*
X178554Y51357D01*
X178443Y51379D01*
X178333Y51404D01*
X178223Y51434D01*
X178115Y51467D01*
X178008Y51504D01*
X177902Y51544D01*
X177798Y51589D01*
X177695Y51637D01*
X177594Y51688D01*
X177495Y51743D01*
X177398Y51801D01*
X177303Y51863D01*
X177210Y51928D01*
X177120Y51996D01*
X177032Y52067D01*
X176946Y52142D01*
X176863Y52219D01*
X176783Y52299D01*
X176706Y52382D01*
X176631Y52468D01*
X176560Y52556D01*
X176492Y52646D01*
X176427Y52739D01*
X176365Y52834D01*
X176307Y52931D01*
X176252Y53030D01*
X176201Y53131D01*
X176153Y53234D01*
X176108Y53338D01*
X176068Y53444D01*
X176031Y53551D01*
X175998Y53659D01*
X175968Y53769D01*
X175943Y53879D01*
X175921Y53990D01*
X175904Y54102D01*
X175890Y54215D01*
X175880Y54328D01*
X175874Y54441D01*
X175872Y54554D01*
X187706Y51308D02*
X187706Y62992D01*
X187706Y51308D02*
X192899Y51308D01*
X196559Y51308D02*
X200454Y62992D01*
X204348Y51308D01*
X203375Y54229D02*
X197533Y54229D01*
X208751Y55852D02*
X216540Y55852D01*
X221592Y60396D02*
X224838Y62992D01*
X224838Y51308D01*
X228083Y51308D02*
X221592Y51308D01*
D12*
X-254804Y69000D02*
X-254799Y69437D01*
X-254783Y69874D01*
X-254756Y70310D01*
X-254718Y70745D01*
X-254670Y71179D01*
X-254611Y71612D01*
X-254542Y72044D01*
X-254462Y72473D01*
X-254371Y72901D01*
X-254270Y73326D01*
X-254159Y73749D01*
X-254037Y74168D01*
X-253905Y74585D01*
X-253763Y74998D01*
X-253611Y75408D01*
X-253449Y75813D01*
X-253277Y76215D01*
X-253095Y76612D01*
X-252903Y77005D01*
X-252702Y77393D01*
X-252491Y77776D01*
X-252271Y78153D01*
X-252042Y78525D01*
X-251803Y78891D01*
X-251556Y79252D01*
X-251300Y79606D01*
X-251036Y79954D01*
X-250763Y80295D01*
X-250481Y80629D01*
X-250192Y80956D01*
X-249894Y81277D01*
X-249589Y81589D01*
X-249277Y81894D01*
X-248956Y82192D01*
X-248629Y82481D01*
X-248295Y82763D01*
X-247954Y83036D01*
X-247606Y83300D01*
X-247252Y83556D01*
X-246891Y83803D01*
X-246525Y84042D01*
X-246153Y84271D01*
X-245776Y84491D01*
X-245393Y84702D01*
X-245005Y84903D01*
X-244612Y85095D01*
X-244215Y85277D01*
X-243813Y85449D01*
X-243408Y85611D01*
X-242998Y85763D01*
X-242585Y85905D01*
X-242168Y86037D01*
X-241749Y86159D01*
X-241326Y86270D01*
X-240901Y86371D01*
X-240473Y86462D01*
X-240044Y86542D01*
X-239612Y86611D01*
X-239179Y86670D01*
X-238745Y86718D01*
X-238310Y86756D01*
X-237874Y86783D01*
X-237437Y86799D01*
X-237000Y86804D01*
X-236563Y86799D01*
X-236126Y86783D01*
X-235690Y86756D01*
X-235255Y86718D01*
X-234821Y86670D01*
X-234388Y86611D01*
X-233956Y86542D01*
X-233527Y86462D01*
X-233099Y86371D01*
X-232674Y86270D01*
X-232251Y86159D01*
X-231832Y86037D01*
X-231415Y85905D01*
X-231002Y85763D01*
X-230592Y85611D01*
X-230187Y85449D01*
X-229785Y85277D01*
X-229388Y85095D01*
X-228995Y84903D01*
X-228607Y84702D01*
X-228224Y84491D01*
X-227847Y84271D01*
X-227475Y84042D01*
X-227109Y83803D01*
X-226748Y83556D01*
X-226394Y83300D01*
X-226046Y83036D01*
X-225705Y82763D01*
X-225371Y82481D01*
X-225044Y82192D01*
X-224723Y81894D01*
X-224411Y81589D01*
X-224106Y81277D01*
X-223808Y80956D01*
X-223519Y80629D01*
X-223237Y80295D01*
X-222964Y79954D01*
X-222700Y79606D01*
X-222444Y79252D01*
X-222197Y78891D01*
X-221958Y78525D01*
X-221729Y78153D01*
X-221509Y77776D01*
X-221298Y77393D01*
X-221097Y77005D01*
X-220905Y76612D01*
X-220723Y76215D01*
X-220551Y75813D01*
X-220389Y75408D01*
X-220237Y74998D01*
X-220095Y74585D01*
X-219963Y74168D01*
X-219841Y73749D01*
X-219730Y73326D01*
X-219629Y72901D01*
X-219538Y72473D01*
X-219458Y72044D01*
X-219389Y71612D01*
X-219330Y71179D01*
X-219282Y70745D01*
X-219244Y70310D01*
X-219217Y69874D01*
X-219201Y69437D01*
X-219196Y69000D01*
X-219201Y68563D01*
X-219217Y68126D01*
X-219244Y67690D01*
X-219282Y67255D01*
X-219330Y66821D01*
X-219389Y66388D01*
X-219458Y65956D01*
X-219538Y65527D01*
X-219629Y65099D01*
X-219730Y64674D01*
X-219841Y64251D01*
X-219963Y63832D01*
X-220095Y63415D01*
X-220237Y63002D01*
X-220389Y62592D01*
X-220551Y62187D01*
X-220723Y61785D01*
X-220905Y61388D01*
X-221097Y60995D01*
X-221298Y60607D01*
X-221509Y60224D01*
X-221729Y59847D01*
X-221958Y59475D01*
X-222197Y59109D01*
X-222444Y58748D01*
X-222700Y58394D01*
X-222964Y58046D01*
X-223237Y57705D01*
X-223519Y57371D01*
X-223808Y57044D01*
X-224106Y56723D01*
X-224411Y56411D01*
X-224723Y56106D01*
X-225044Y55808D01*
X-225371Y55519D01*
X-225705Y55237D01*
X-226046Y54964D01*
X-226394Y54700D01*
X-226748Y54444D01*
X-227109Y54197D01*
X-227475Y53958D01*
X-227847Y53729D01*
X-228224Y53509D01*
X-228607Y53298D01*
X-228995Y53097D01*
X-229388Y52905D01*
X-229785Y52723D01*
X-230187Y52551D01*
X-230592Y52389D01*
X-231002Y52237D01*
X-231415Y52095D01*
X-231832Y51963D01*
X-232251Y51841D01*
X-232674Y51730D01*
X-233099Y51629D01*
X-233527Y51538D01*
X-233956Y51458D01*
X-234388Y51389D01*
X-234821Y51330D01*
X-235255Y51282D01*
X-235690Y51244D01*
X-236126Y51217D01*
X-236563Y51201D01*
X-237000Y51196D01*
X-237437Y51201D01*
X-237874Y51217D01*
X-238310Y51244D01*
X-238745Y51282D01*
X-239179Y51330D01*
X-239612Y51389D01*
X-240044Y51458D01*
X-240473Y51538D01*
X-240901Y51629D01*
X-241326Y51730D01*
X-241749Y51841D01*
X-242168Y51963D01*
X-242585Y52095D01*
X-242998Y52237D01*
X-243408Y52389D01*
X-243813Y52551D01*
X-244215Y52723D01*
X-244612Y52905D01*
X-245005Y53097D01*
X-245393Y53298D01*
X-245776Y53509D01*
X-246153Y53729D01*
X-246525Y53958D01*
X-246891Y54197D01*
X-247252Y54444D01*
X-247606Y54700D01*
X-247954Y54964D01*
X-248295Y55237D01*
X-248629Y55519D01*
X-248956Y55808D01*
X-249277Y56106D01*
X-249589Y56411D01*
X-249894Y56723D01*
X-250192Y57044D01*
X-250481Y57371D01*
X-250763Y57705D01*
X-251036Y58046D01*
X-251300Y58394D01*
X-251556Y58748D01*
X-251803Y59109D01*
X-252042Y59475D01*
X-252271Y59847D01*
X-252491Y60224D01*
X-252702Y60607D01*
X-252903Y60995D01*
X-253095Y61388D01*
X-253277Y61785D01*
X-253449Y62187D01*
X-253611Y62592D01*
X-253763Y63002D01*
X-253905Y63415D01*
X-254037Y63832D01*
X-254159Y64251D01*
X-254270Y64674D01*
X-254371Y65099D01*
X-254462Y65527D01*
X-254542Y65956D01*
X-254611Y66388D01*
X-254670Y66821D01*
X-254718Y67255D01*
X-254756Y67690D01*
X-254783Y68126D01*
X-254799Y68563D01*
X-254804Y69000D01*
X-254205Y-74000D02*
X-254200Y-73578D01*
X-254184Y-73156D01*
X-254158Y-72734D01*
X-254122Y-72314D01*
X-254076Y-71894D01*
X-254019Y-71476D01*
X-253952Y-71059D01*
X-253874Y-70643D01*
X-253787Y-70230D01*
X-253689Y-69820D01*
X-253582Y-69411D01*
X-253464Y-69006D01*
X-253337Y-68603D01*
X-253199Y-68204D01*
X-253052Y-67808D01*
X-252895Y-67416D01*
X-252729Y-67028D01*
X-252553Y-66644D01*
X-252368Y-66264D01*
X-252173Y-65890D01*
X-251970Y-65520D01*
X-251757Y-65155D01*
X-251536Y-64795D01*
X-251305Y-64441D01*
X-251067Y-64093D01*
X-250819Y-63751D01*
X-250564Y-63415D01*
X-250300Y-63085D01*
X-250028Y-62762D01*
X-249748Y-62446D01*
X-249461Y-62136D01*
X-249166Y-61834D01*
X-248864Y-61539D01*
X-248554Y-61252D01*
X-248238Y-60972D01*
X-247915Y-60700D01*
X-247585Y-60436D01*
X-247249Y-60181D01*
X-246907Y-59933D01*
X-246559Y-59695D01*
X-246205Y-59464D01*
X-245845Y-59243D01*
X-245480Y-59030D01*
X-245110Y-58827D01*
X-244736Y-58632D01*
X-244356Y-58447D01*
X-243972Y-58271D01*
X-243584Y-58105D01*
X-243192Y-57948D01*
X-242796Y-57801D01*
X-242397Y-57663D01*
X-241994Y-57536D01*
X-241589Y-57418D01*
X-241180Y-57311D01*
X-240770Y-57213D01*
X-240357Y-57126D01*
X-239941Y-57048D01*
X-239524Y-56981D01*
X-239106Y-56924D01*
X-238686Y-56878D01*
X-238266Y-56842D01*
X-237844Y-56816D01*
X-237422Y-56800D01*
X-237000Y-56795D01*
X-236578Y-56800D01*
X-236156Y-56816D01*
X-235734Y-56842D01*
X-235314Y-56878D01*
X-234894Y-56924D01*
X-234476Y-56981D01*
X-234059Y-57048D01*
X-233643Y-57126D01*
X-233230Y-57213D01*
X-232820Y-57311D01*
X-232411Y-57418D01*
X-232006Y-57536D01*
X-231603Y-57663D01*
X-231204Y-57801D01*
X-230808Y-57948D01*
X-230416Y-58105D01*
X-230028Y-58271D01*
X-229644Y-58447D01*
X-229264Y-58632D01*
X-228890Y-58827D01*
X-228520Y-59030D01*
X-228155Y-59243D01*
X-227795Y-59464D01*
X-227441Y-59695D01*
X-227093Y-59933D01*
X-226751Y-60181D01*
X-226415Y-60436D01*
X-226085Y-60700D01*
X-225762Y-60972D01*
X-225446Y-61252D01*
X-225136Y-61539D01*
X-224834Y-61834D01*
X-224539Y-62136D01*
X-224252Y-62446D01*
X-223972Y-62762D01*
X-223700Y-63085D01*
X-223436Y-63415D01*
X-223181Y-63751D01*
X-222933Y-64093D01*
X-222695Y-64441D01*
X-222464Y-64795D01*
X-222243Y-65155D01*
X-222030Y-65520D01*
X-221827Y-65890D01*
X-221632Y-66264D01*
X-221447Y-66644D01*
X-221271Y-67028D01*
X-221105Y-67416D01*
X-220948Y-67808D01*
X-220801Y-68204D01*
X-220663Y-68603D01*
X-220536Y-69006D01*
X-220418Y-69411D01*
X-220311Y-69820D01*
X-220213Y-70230D01*
X-220126Y-70643D01*
X-220048Y-71059D01*
X-219981Y-71476D01*
X-219924Y-71894D01*
X-219878Y-72314D01*
X-219842Y-72734D01*
X-219816Y-73156D01*
X-219800Y-73578D01*
X-219795Y-74000D01*
X-219800Y-74422D01*
X-219816Y-74844D01*
X-219842Y-75266D01*
X-219878Y-75686D01*
X-219924Y-76106D01*
X-219981Y-76524D01*
X-220048Y-76941D01*
X-220126Y-77357D01*
X-220213Y-77770D01*
X-220311Y-78180D01*
X-220418Y-78589D01*
X-220536Y-78994D01*
X-220663Y-79397D01*
X-220801Y-79796D01*
X-220948Y-80192D01*
X-221105Y-80584D01*
X-221271Y-80972D01*
X-221447Y-81356D01*
X-221632Y-81736D01*
X-221827Y-82110D01*
X-222030Y-82480D01*
X-222243Y-82845D01*
X-222464Y-83205D01*
X-222695Y-83559D01*
X-222933Y-83907D01*
X-223181Y-84249D01*
X-223436Y-84585D01*
X-223700Y-84915D01*
X-223972Y-85238D01*
X-224252Y-85554D01*
X-224539Y-85864D01*
X-224834Y-86166D01*
X-225136Y-86461D01*
X-225446Y-86748D01*
X-225762Y-87028D01*
X-226085Y-87300D01*
X-226415Y-87564D01*
X-226751Y-87819D01*
X-227093Y-88067D01*
X-227441Y-88305D01*
X-227795Y-88536D01*
X-228155Y-88757D01*
X-228520Y-88970D01*
X-228890Y-89173D01*
X-229264Y-89368D01*
X-229644Y-89553D01*
X-230028Y-89729D01*
X-230416Y-89895D01*
X-230808Y-90052D01*
X-231204Y-90199D01*
X-231603Y-90337D01*
X-232006Y-90464D01*
X-232411Y-90582D01*
X-232820Y-90689D01*
X-233230Y-90787D01*
X-233643Y-90874D01*
X-234059Y-90952D01*
X-234476Y-91019D01*
X-234894Y-91076D01*
X-235314Y-91122D01*
X-235734Y-91158D01*
X-236156Y-91184D01*
X-236578Y-91200D01*
X-237000Y-91205D01*
X-237422Y-91200D01*
X-237844Y-91184D01*
X-238266Y-91158D01*
X-238686Y-91122D01*
X-239106Y-91076D01*
X-239524Y-91019D01*
X-239941Y-90952D01*
X-240357Y-90874D01*
X-240770Y-90787D01*
X-241180Y-90689D01*
X-241589Y-90582D01*
X-241994Y-90464D01*
X-242397Y-90337D01*
X-242796Y-90199D01*
X-243192Y-90052D01*
X-243584Y-89895D01*
X-243972Y-89729D01*
X-244356Y-89553D01*
X-244736Y-89368D01*
X-245110Y-89173D01*
X-245480Y-88970D01*
X-245845Y-88757D01*
X-246205Y-88536D01*
X-246559Y-88305D01*
X-246907Y-88067D01*
X-247249Y-87819D01*
X-247585Y-87564D01*
X-247915Y-87300D01*
X-248238Y-87028D01*
X-248554Y-86748D01*
X-248864Y-86461D01*
X-249166Y-86166D01*
X-249461Y-85864D01*
X-249748Y-85554D01*
X-250028Y-85238D01*
X-250300Y-84915D01*
X-250564Y-84585D01*
X-250819Y-84249D01*
X-251067Y-83907D01*
X-251305Y-83559D01*
X-251536Y-83205D01*
X-251757Y-82845D01*
X-251970Y-82480D01*
X-252173Y-82110D01*
X-252368Y-81736D01*
X-252553Y-81356D01*
X-252729Y-80972D01*
X-252895Y-80584D01*
X-253052Y-80192D01*
X-253199Y-79796D01*
X-253337Y-79397D01*
X-253464Y-78994D01*
X-253582Y-78589D01*
X-253689Y-78180D01*
X-253787Y-77770D01*
X-253874Y-77357D01*
X-253952Y-76941D01*
X-254019Y-76524D01*
X-254076Y-76106D01*
X-254122Y-75686D01*
X-254158Y-75266D01*
X-254184Y-74844D01*
X-254200Y-74422D01*
X-254205Y-74000D01*
D10*
X336550Y139700D02*
X349250Y139700D01*
X355600Y133350D01*
X355600Y120650D02*
X349250Y114300D01*
X355600Y133350D02*
X361950Y139700D01*
X374650Y139700D01*
X381000Y133350D01*
X381000Y120650D02*
X374650Y114300D01*
X361950Y114300D01*
X355600Y120650D01*
X330200Y120650D02*
X330200Y133350D01*
X336550Y139700D01*
X330200Y120650D02*
X336550Y114300D01*
X349250Y114300D01*
X381000Y133350D02*
X387350Y139700D01*
X400050Y139700D01*
X406400Y133350D01*
X406400Y120650D02*
X400050Y114300D01*
X387350Y114300D01*
X381000Y120650D01*
X406400Y120650D02*
X406400Y133350D01*
D13*
X333954Y140208D02*
X330708Y140208D01*
X333954Y140208D02*
X334067Y140210D01*
X334180Y140216D01*
X334293Y140226D01*
X334406Y140240D01*
X334518Y140257D01*
X334629Y140279D01*
X334739Y140304D01*
X334849Y140334D01*
X334957Y140367D01*
X335064Y140404D01*
X335170Y140444D01*
X335274Y140489D01*
X335377Y140537D01*
X335478Y140588D01*
X335577Y140643D01*
X335674Y140701D01*
X335769Y140763D01*
X335862Y140828D01*
X335952Y140896D01*
X336040Y140967D01*
X336126Y141042D01*
X336209Y141119D01*
X336289Y141199D01*
X336366Y141282D01*
X336441Y141368D01*
X336512Y141456D01*
X336580Y141546D01*
X336645Y141639D01*
X336707Y141734D01*
X336765Y141831D01*
X336820Y141930D01*
X336871Y142031D01*
X336919Y142134D01*
X336964Y142238D01*
X337004Y142344D01*
X337041Y142451D01*
X337074Y142559D01*
X337104Y142669D01*
X337129Y142779D01*
X337151Y142890D01*
X337168Y143002D01*
X337182Y143115D01*
X337192Y143228D01*
X337198Y143341D01*
X337200Y143454D01*
X337198Y143567D01*
X337192Y143680D01*
X337182Y143793D01*
X337168Y143906D01*
X337151Y144018D01*
X337129Y144129D01*
X337104Y144239D01*
X337074Y144349D01*
X337041Y144457D01*
X337004Y144564D01*
X336964Y144670D01*
X336919Y144774D01*
X336871Y144877D01*
X336820Y144978D01*
X336765Y145077D01*
X336707Y145174D01*
X336645Y145269D01*
X336580Y145362D01*
X336512Y145452D01*
X336441Y145540D01*
X336366Y145626D01*
X336289Y145709D01*
X336209Y145789D01*
X336126Y145866D01*
X336040Y145941D01*
X335952Y146012D01*
X335862Y146080D01*
X335769Y146145D01*
X335674Y146207D01*
X335577Y146265D01*
X335478Y146320D01*
X335377Y146371D01*
X335274Y146419D01*
X335170Y146464D01*
X335064Y146504D01*
X334957Y146541D01*
X334849Y146574D01*
X334739Y146604D01*
X334629Y146629D01*
X334518Y146651D01*
X334406Y146668D01*
X334293Y146682D01*
X334180Y146692D01*
X334067Y146698D01*
X333954Y146700D01*
X334603Y151892D02*
X330708Y151892D01*
X334603Y151892D02*
X334704Y151890D01*
X334804Y151884D01*
X334904Y151874D01*
X335004Y151861D01*
X335103Y151843D01*
X335202Y151822D01*
X335299Y151797D01*
X335396Y151768D01*
X335491Y151735D01*
X335585Y151699D01*
X335677Y151659D01*
X335768Y151616D01*
X335857Y151569D01*
X335944Y151519D01*
X336030Y151465D01*
X336113Y151408D01*
X336193Y151348D01*
X336272Y151285D01*
X336348Y151218D01*
X336421Y151149D01*
X336491Y151077D01*
X336559Y151003D01*
X336624Y150926D01*
X336685Y150846D01*
X336744Y150764D01*
X336799Y150680D01*
X336851Y150594D01*
X336900Y150506D01*
X336945Y150416D01*
X336987Y150324D01*
X337025Y150231D01*
X337059Y150136D01*
X337090Y150041D01*
X337117Y149944D01*
X337140Y149846D01*
X337160Y149747D01*
X337175Y149647D01*
X337187Y149547D01*
X337195Y149447D01*
X337199Y149346D01*
X337199Y149246D01*
X337195Y149145D01*
X337187Y149045D01*
X337175Y148945D01*
X337160Y148845D01*
X337140Y148746D01*
X337117Y148648D01*
X337090Y148551D01*
X337059Y148456D01*
X337025Y148361D01*
X336987Y148268D01*
X336945Y148176D01*
X336900Y148086D01*
X336851Y147998D01*
X336799Y147912D01*
X336744Y147828D01*
X336685Y147746D01*
X336624Y147666D01*
X336559Y147589D01*
X336491Y147515D01*
X336421Y147443D01*
X336348Y147374D01*
X336272Y147307D01*
X336193Y147244D01*
X336113Y147184D01*
X336030Y147127D01*
X335944Y147073D01*
X335857Y147023D01*
X335768Y146976D01*
X335677Y146933D01*
X335585Y146893D01*
X335491Y146857D01*
X335396Y146824D01*
X335299Y146795D01*
X335202Y146770D01*
X335103Y146749D01*
X335004Y146731D01*
X334904Y146718D01*
X334804Y146708D01*
X334704Y146702D01*
X334603Y146700D01*
X334603Y146699D02*
X332006Y146699D01*
X341489Y140208D02*
X349278Y151892D01*
X341489Y151892D02*
X349278Y140208D01*
X353568Y149296D02*
X356814Y151892D01*
X356814Y140208D01*
X360059Y140208D02*
X353568Y140208D01*
X330708Y113792D02*
X330708Y102108D01*
X330708Y113792D02*
X333954Y113792D01*
X334067Y113790D01*
X334180Y113784D01*
X334293Y113774D01*
X334406Y113760D01*
X334518Y113743D01*
X334629Y113721D01*
X334739Y113696D01*
X334849Y113666D01*
X334957Y113633D01*
X335064Y113596D01*
X335170Y113556D01*
X335274Y113511D01*
X335377Y113463D01*
X335478Y113412D01*
X335577Y113357D01*
X335674Y113299D01*
X335769Y113237D01*
X335862Y113172D01*
X335952Y113104D01*
X336040Y113033D01*
X336126Y112958D01*
X336209Y112881D01*
X336289Y112801D01*
X336366Y112718D01*
X336441Y112632D01*
X336512Y112544D01*
X336580Y112454D01*
X336645Y112361D01*
X336707Y112266D01*
X336765Y112169D01*
X336820Y112070D01*
X336871Y111969D01*
X336919Y111866D01*
X336964Y111762D01*
X337004Y111656D01*
X337041Y111549D01*
X337074Y111441D01*
X337104Y111331D01*
X337129Y111221D01*
X337151Y111110D01*
X337168Y110998D01*
X337182Y110885D01*
X337192Y110772D01*
X337198Y110659D01*
X337200Y110546D01*
X337198Y110433D01*
X337192Y110320D01*
X337182Y110207D01*
X337168Y110094D01*
X337151Y109982D01*
X337129Y109871D01*
X337104Y109761D01*
X337074Y109651D01*
X337041Y109543D01*
X337004Y109436D01*
X336964Y109330D01*
X336919Y109226D01*
X336871Y109123D01*
X336820Y109022D01*
X336765Y108923D01*
X336707Y108826D01*
X336645Y108731D01*
X336580Y108638D01*
X336512Y108548D01*
X336441Y108460D01*
X336366Y108374D01*
X336289Y108291D01*
X336209Y108211D01*
X336126Y108134D01*
X336040Y108059D01*
X335952Y107988D01*
X335862Y107920D01*
X335769Y107855D01*
X335674Y107793D01*
X335577Y107735D01*
X335478Y107680D01*
X335377Y107629D01*
X335274Y107581D01*
X335170Y107536D01*
X335064Y107496D01*
X334957Y107459D01*
X334849Y107426D01*
X334739Y107396D01*
X334629Y107371D01*
X334518Y107349D01*
X334406Y107332D01*
X334293Y107318D01*
X334180Y107308D01*
X334067Y107302D01*
X333954Y107300D01*
X333954Y107301D02*
X330708Y107301D01*
X342547Y102108D02*
X342547Y113792D01*
X341249Y102108D02*
X343845Y102108D01*
X343845Y113792D02*
X341249Y113792D01*
X348827Y113792D02*
X348827Y102108D01*
X355318Y102108D02*
X348827Y113792D01*
X355318Y113792D02*
X355318Y102108D01*
X360751Y106652D02*
X368540Y106652D01*
X373973Y102108D02*
X373973Y113792D01*
X373973Y108599D02*
X380464Y108599D01*
X380464Y113792D02*
X380464Y102108D01*
X386187Y102108D02*
X391380Y102108D01*
X386187Y102108D02*
X386187Y113792D01*
X391380Y113792D01*
X390082Y108599D02*
X386187Y108599D01*
X395040Y102108D02*
X398935Y113792D01*
X402830Y102108D01*
X401856Y105029D02*
X396014Y105029D01*
X407501Y102108D02*
X407501Y113792D01*
X410746Y113792D01*
X410859Y113790D01*
X410972Y113784D01*
X411085Y113774D01*
X411198Y113760D01*
X411310Y113743D01*
X411421Y113721D01*
X411531Y113696D01*
X411641Y113666D01*
X411749Y113633D01*
X411856Y113596D01*
X411962Y113556D01*
X412066Y113511D01*
X412169Y113463D01*
X412270Y113412D01*
X412369Y113357D01*
X412466Y113299D01*
X412561Y113237D01*
X412654Y113172D01*
X412744Y113104D01*
X412832Y113033D01*
X412918Y112958D01*
X413001Y112881D01*
X413081Y112801D01*
X413158Y112718D01*
X413233Y112632D01*
X413304Y112544D01*
X413372Y112454D01*
X413437Y112361D01*
X413499Y112266D01*
X413557Y112169D01*
X413612Y112070D01*
X413663Y111969D01*
X413711Y111866D01*
X413756Y111762D01*
X413796Y111656D01*
X413833Y111549D01*
X413866Y111441D01*
X413896Y111331D01*
X413921Y111221D01*
X413943Y111110D01*
X413960Y110998D01*
X413974Y110885D01*
X413984Y110772D01*
X413990Y110659D01*
X413992Y110546D01*
X413992Y105354D01*
X413990Y105241D01*
X413984Y105128D01*
X413974Y105015D01*
X413960Y104902D01*
X413943Y104790D01*
X413921Y104679D01*
X413896Y104569D01*
X413866Y104459D01*
X413833Y104351D01*
X413796Y104244D01*
X413756Y104138D01*
X413711Y104034D01*
X413663Y103931D01*
X413612Y103830D01*
X413557Y103731D01*
X413499Y103634D01*
X413437Y103539D01*
X413372Y103446D01*
X413304Y103356D01*
X413233Y103268D01*
X413158Y103182D01*
X413081Y103099D01*
X413001Y103019D01*
X412918Y102942D01*
X412832Y102867D01*
X412744Y102796D01*
X412654Y102728D01*
X412561Y102663D01*
X412466Y102601D01*
X412369Y102543D01*
X412270Y102488D01*
X412169Y102437D01*
X412066Y102389D01*
X411962Y102344D01*
X411856Y102304D01*
X411749Y102267D01*
X411641Y102234D01*
X411531Y102204D01*
X411421Y102179D01*
X411310Y102157D01*
X411198Y102140D01*
X411085Y102126D01*
X410972Y102116D01*
X410859Y102110D01*
X410746Y102108D01*
X407501Y102108D01*
X419715Y102108D02*
X424908Y102108D01*
X419715Y102108D02*
X419715Y113792D01*
X424908Y113792D01*
X423610Y108599D02*
X419715Y108599D01*
X429672Y113792D02*
X429672Y102108D01*
X429672Y113792D02*
X432918Y113792D01*
X433031Y113790D01*
X433144Y113784D01*
X433257Y113774D01*
X433370Y113760D01*
X433482Y113743D01*
X433593Y113721D01*
X433703Y113696D01*
X433813Y113666D01*
X433921Y113633D01*
X434028Y113596D01*
X434134Y113556D01*
X434238Y113511D01*
X434341Y113463D01*
X434442Y113412D01*
X434541Y113357D01*
X434638Y113299D01*
X434733Y113237D01*
X434826Y113172D01*
X434916Y113104D01*
X435004Y113033D01*
X435090Y112958D01*
X435173Y112881D01*
X435253Y112801D01*
X435330Y112718D01*
X435405Y112632D01*
X435476Y112544D01*
X435544Y112454D01*
X435609Y112361D01*
X435671Y112266D01*
X435729Y112169D01*
X435784Y112070D01*
X435835Y111969D01*
X435883Y111866D01*
X435928Y111762D01*
X435968Y111656D01*
X436005Y111549D01*
X436038Y111441D01*
X436068Y111331D01*
X436093Y111221D01*
X436115Y111110D01*
X436132Y110998D01*
X436146Y110885D01*
X436156Y110772D01*
X436162Y110659D01*
X436164Y110546D01*
X436162Y110433D01*
X436156Y110320D01*
X436146Y110207D01*
X436132Y110094D01*
X436115Y109982D01*
X436093Y109871D01*
X436068Y109761D01*
X436038Y109651D01*
X436005Y109543D01*
X435968Y109436D01*
X435928Y109330D01*
X435883Y109226D01*
X435835Y109123D01*
X435784Y109022D01*
X435729Y108923D01*
X435671Y108826D01*
X435609Y108731D01*
X435544Y108638D01*
X435476Y108548D01*
X435405Y108460D01*
X435330Y108374D01*
X435253Y108291D01*
X435173Y108211D01*
X435090Y108134D01*
X435004Y108059D01*
X434916Y107988D01*
X434826Y107920D01*
X434733Y107855D01*
X434638Y107793D01*
X434541Y107735D01*
X434442Y107680D01*
X434341Y107629D01*
X434238Y107581D01*
X434134Y107536D01*
X434028Y107496D01*
X433921Y107459D01*
X433813Y107426D01*
X433703Y107396D01*
X433593Y107371D01*
X433482Y107349D01*
X433370Y107332D01*
X433257Y107318D01*
X433144Y107308D01*
X433031Y107302D01*
X432918Y107300D01*
X432918Y107301D02*
X429672Y107301D01*
X433567Y107301D02*
X436163Y102108D01*
D14*
X234950Y165100D02*
X234950Y177800D01*
X234950Y165100D02*
X146050Y165100D01*
X146050Y177800D01*
X146050Y190500D01*
X234950Y190500D01*
X234950Y177800D01*
X241300Y177800D01*
X146050Y177800D02*
X139700Y177800D01*
X69850Y177800D02*
X69850Y165100D01*
X-19050Y165100D01*
X-19050Y177800D01*
X-19050Y190500D01*
X69850Y190500D01*
X69850Y177800D01*
X76200Y177800D01*
X-19050Y177800D02*
X-25400Y177800D01*
X-95250Y177800D02*
X-95250Y165100D01*
X-184150Y165100D01*
X-184150Y177800D01*
X-184150Y190500D01*
X-95250Y190500D01*
X-95250Y177800D01*
X-88900Y177800D01*
X-184150Y177800D02*
X-190500Y177800D01*
D10*
X647700Y133350D02*
X647700Y120650D01*
X641350Y114300D01*
X628650Y114300D02*
X622300Y120650D01*
X641350Y114300D02*
X647700Y107950D01*
X647700Y95250D01*
X641350Y88900D01*
X628650Y88900D02*
X622300Y95250D01*
X622300Y107950D01*
X628650Y114300D01*
X628650Y139700D02*
X641350Y139700D01*
X647700Y133350D01*
X628650Y139700D02*
X622300Y133350D01*
X622300Y120650D01*
X641350Y88900D02*
X647700Y82550D01*
X647700Y69850D01*
X641350Y63500D01*
X628650Y63500D02*
X622300Y69850D01*
X622300Y82550D01*
X628650Y88900D01*
X647700Y57150D02*
X647700Y44450D01*
X641350Y38100D01*
X628650Y38100D02*
X622300Y44450D01*
X641350Y38100D02*
X647700Y31750D01*
X647700Y19050D01*
X641350Y12700D01*
X628650Y12700D02*
X622300Y19050D01*
X622300Y31750D01*
X628650Y38100D01*
X647700Y57150D02*
X641350Y63500D01*
X628650Y63500D02*
X622300Y57150D01*
X622300Y44450D01*
X641350Y12700D02*
X647700Y6350D01*
X647700Y-6350D01*
X641350Y-12700D01*
X628650Y-12700D02*
X622300Y-6350D01*
X622300Y6350D01*
X628650Y12700D01*
X628650Y-12700D02*
X641350Y-12700D01*
D13*
X653401Y109841D02*
X653401Y113736D01*
X653403Y113835D01*
X653409Y113935D01*
X653418Y114034D01*
X653431Y114132D01*
X653448Y114230D01*
X653469Y114328D01*
X653494Y114424D01*
X653522Y114519D01*
X653554Y114613D01*
X653589Y114706D01*
X653628Y114798D01*
X653671Y114888D01*
X653716Y114976D01*
X653766Y115063D01*
X653818Y115147D01*
X653874Y115230D01*
X653932Y115310D01*
X653994Y115388D01*
X654059Y115463D01*
X654127Y115536D01*
X654197Y115606D01*
X654270Y115674D01*
X654345Y115739D01*
X654423Y115801D01*
X654503Y115859D01*
X654586Y115915D01*
X654670Y115967D01*
X654757Y116017D01*
X654845Y116062D01*
X654935Y116105D01*
X655027Y116144D01*
X655120Y116179D01*
X655214Y116211D01*
X655309Y116239D01*
X655405Y116264D01*
X655503Y116285D01*
X655601Y116302D01*
X655699Y116315D01*
X655798Y116324D01*
X655898Y116330D01*
X655997Y116332D01*
X656646Y116332D01*
X656759Y116330D01*
X656872Y116324D01*
X656985Y116314D01*
X657098Y116300D01*
X657210Y116283D01*
X657321Y116261D01*
X657431Y116236D01*
X657541Y116206D01*
X657649Y116173D01*
X657756Y116136D01*
X657862Y116096D01*
X657966Y116051D01*
X658069Y116003D01*
X658170Y115952D01*
X658269Y115897D01*
X658366Y115839D01*
X658461Y115777D01*
X658554Y115712D01*
X658644Y115644D01*
X658732Y115573D01*
X658818Y115498D01*
X658901Y115421D01*
X658981Y115341D01*
X659058Y115258D01*
X659133Y115172D01*
X659204Y115084D01*
X659272Y114994D01*
X659337Y114901D01*
X659399Y114806D01*
X659457Y114709D01*
X659512Y114610D01*
X659563Y114509D01*
X659611Y114406D01*
X659656Y114302D01*
X659696Y114196D01*
X659733Y114089D01*
X659766Y113981D01*
X659796Y113871D01*
X659821Y113761D01*
X659843Y113650D01*
X659860Y113538D01*
X659874Y113425D01*
X659884Y113312D01*
X659890Y113199D01*
X659892Y113086D01*
X659890Y112973D01*
X659884Y112860D01*
X659874Y112747D01*
X659860Y112634D01*
X659843Y112522D01*
X659821Y112411D01*
X659796Y112301D01*
X659766Y112191D01*
X659733Y112083D01*
X659696Y111976D01*
X659656Y111870D01*
X659611Y111766D01*
X659563Y111663D01*
X659512Y111562D01*
X659457Y111463D01*
X659399Y111366D01*
X659337Y111271D01*
X659272Y111178D01*
X659204Y111088D01*
X659133Y111000D01*
X659058Y110914D01*
X658981Y110831D01*
X658901Y110751D01*
X658818Y110674D01*
X658732Y110599D01*
X658644Y110528D01*
X658554Y110460D01*
X658461Y110395D01*
X658366Y110333D01*
X658269Y110275D01*
X658170Y110220D01*
X658069Y110169D01*
X657966Y110121D01*
X657862Y110076D01*
X657756Y110036D01*
X657649Y109999D01*
X657541Y109966D01*
X657431Y109936D01*
X657321Y109911D01*
X657210Y109889D01*
X657098Y109872D01*
X656985Y109858D01*
X656872Y109848D01*
X656759Y109842D01*
X656646Y109840D01*
X656646Y109841D02*
X653401Y109841D01*
X653258Y109843D01*
X653115Y109849D01*
X652972Y109859D01*
X652830Y109873D01*
X652688Y109890D01*
X652546Y109912D01*
X652405Y109937D01*
X652265Y109967D01*
X652126Y110000D01*
X651988Y110037D01*
X651851Y110078D01*
X651715Y110122D01*
X651580Y110171D01*
X651447Y110223D01*
X651315Y110278D01*
X651185Y110338D01*
X651056Y110401D01*
X650929Y110467D01*
X650805Y110537D01*
X650682Y110610D01*
X650561Y110687D01*
X650442Y110766D01*
X650326Y110850D01*
X650211Y110936D01*
X650100Y111025D01*
X649991Y111118D01*
X649884Y111213D01*
X649780Y111312D01*
X649679Y111413D01*
X649580Y111517D01*
X649485Y111623D01*
X649392Y111733D01*
X649303Y111844D01*
X649217Y111958D01*
X649134Y112075D01*
X649054Y112194D01*
X648977Y112315D01*
X648904Y112437D01*
X648834Y112562D01*
X648768Y112689D01*
X648705Y112818D01*
X648645Y112948D01*
X648590Y113080D01*
X648538Y113213D01*
X648489Y113348D01*
X648445Y113484D01*
X648404Y113621D01*
X648367Y113759D01*
X648334Y113898D01*
X648304Y114038D01*
X648279Y114179D01*
X648257Y114321D01*
X648240Y114463D01*
X648226Y114605D01*
X648216Y114748D01*
X648210Y114891D01*
X648208Y115034D01*
X659892Y120622D02*
X648208Y128411D01*
X648208Y120622D02*
X659892Y128411D01*
X650804Y132701D02*
X648208Y135946D01*
X659892Y135946D01*
X659892Y132701D02*
X659892Y139192D01*
X621792Y33737D02*
X610108Y33737D01*
X610108Y36982D01*
X610110Y37095D01*
X610116Y37208D01*
X610126Y37321D01*
X610140Y37434D01*
X610157Y37546D01*
X610179Y37657D01*
X610204Y37767D01*
X610234Y37877D01*
X610267Y37985D01*
X610304Y38092D01*
X610344Y38198D01*
X610389Y38302D01*
X610437Y38405D01*
X610488Y38506D01*
X610543Y38605D01*
X610601Y38702D01*
X610663Y38797D01*
X610728Y38890D01*
X610796Y38980D01*
X610867Y39068D01*
X610942Y39154D01*
X611019Y39237D01*
X611099Y39317D01*
X611182Y39394D01*
X611268Y39469D01*
X611356Y39540D01*
X611446Y39608D01*
X611539Y39673D01*
X611634Y39735D01*
X611731Y39793D01*
X611830Y39848D01*
X611931Y39899D01*
X612034Y39947D01*
X612138Y39992D01*
X612244Y40032D01*
X612351Y40069D01*
X612459Y40102D01*
X612569Y40132D01*
X612679Y40157D01*
X612790Y40179D01*
X612902Y40196D01*
X613015Y40210D01*
X613128Y40220D01*
X613241Y40226D01*
X613354Y40228D01*
X613467Y40226D01*
X613580Y40220D01*
X613693Y40210D01*
X613806Y40196D01*
X613918Y40179D01*
X614029Y40157D01*
X614139Y40132D01*
X614249Y40102D01*
X614357Y40069D01*
X614464Y40032D01*
X614570Y39992D01*
X614674Y39947D01*
X614777Y39899D01*
X614878Y39848D01*
X614977Y39793D01*
X615074Y39735D01*
X615169Y39673D01*
X615262Y39608D01*
X615352Y39540D01*
X615440Y39469D01*
X615526Y39394D01*
X615609Y39317D01*
X615689Y39237D01*
X615766Y39154D01*
X615841Y39068D01*
X615912Y38980D01*
X615980Y38890D01*
X616045Y38797D01*
X616107Y38702D01*
X616165Y38605D01*
X616220Y38506D01*
X616271Y38405D01*
X616319Y38302D01*
X616364Y38198D01*
X616404Y38092D01*
X616441Y37985D01*
X616474Y37877D01*
X616504Y37767D01*
X616529Y37657D01*
X616551Y37546D01*
X616568Y37434D01*
X616582Y37321D01*
X616592Y37208D01*
X616598Y37095D01*
X616600Y36982D01*
X616599Y36982D02*
X616599Y33737D01*
X621792Y45576D02*
X610108Y45576D01*
X621792Y44278D02*
X621792Y46874D01*
X610108Y46874D02*
X610108Y44278D01*
X610108Y51855D02*
X621792Y51855D01*
X621792Y58346D02*
X610108Y51855D01*
X610108Y58346D02*
X621792Y58346D01*
X617248Y63779D02*
X617248Y71569D01*
X621792Y77001D02*
X610108Y77001D01*
X615301Y77001D02*
X615301Y83492D01*
X610108Y83492D02*
X621792Y83492D01*
X621792Y89216D02*
X621792Y94409D01*
X621792Y89216D02*
X610108Y89216D01*
X610108Y94409D01*
X615301Y93111D02*
X615301Y89216D01*
X621792Y98069D02*
X610108Y101964D01*
X621792Y105859D01*
X618871Y104885D02*
X618871Y99043D01*
X621792Y110529D02*
X610108Y110529D01*
X610108Y113775D01*
X610110Y113888D01*
X610116Y114001D01*
X610126Y114114D01*
X610140Y114227D01*
X610157Y114339D01*
X610179Y114450D01*
X610204Y114560D01*
X610234Y114670D01*
X610267Y114778D01*
X610304Y114885D01*
X610344Y114991D01*
X610389Y115095D01*
X610437Y115198D01*
X610488Y115299D01*
X610543Y115398D01*
X610601Y115495D01*
X610663Y115590D01*
X610728Y115683D01*
X610796Y115773D01*
X610867Y115861D01*
X610942Y115947D01*
X611019Y116030D01*
X611099Y116110D01*
X611182Y116187D01*
X611268Y116262D01*
X611356Y116333D01*
X611446Y116401D01*
X611539Y116466D01*
X611634Y116528D01*
X611731Y116586D01*
X611830Y116641D01*
X611931Y116692D01*
X612034Y116740D01*
X612138Y116785D01*
X612244Y116825D01*
X612351Y116862D01*
X612459Y116895D01*
X612569Y116925D01*
X612679Y116950D01*
X612790Y116972D01*
X612902Y116989D01*
X613015Y117003D01*
X613128Y117013D01*
X613241Y117019D01*
X613354Y117021D01*
X613354Y117020D02*
X618546Y117020D01*
X618546Y117021D02*
X618659Y117019D01*
X618772Y117013D01*
X618885Y117003D01*
X618998Y116989D01*
X619110Y116972D01*
X619221Y116950D01*
X619331Y116925D01*
X619441Y116895D01*
X619549Y116862D01*
X619656Y116825D01*
X619762Y116785D01*
X619866Y116740D01*
X619969Y116692D01*
X620070Y116641D01*
X620169Y116586D01*
X620266Y116528D01*
X620361Y116466D01*
X620454Y116401D01*
X620544Y116333D01*
X620632Y116262D01*
X620718Y116187D01*
X620801Y116110D01*
X620881Y116030D01*
X620958Y115947D01*
X621033Y115861D01*
X621104Y115773D01*
X621172Y115683D01*
X621237Y115590D01*
X621299Y115495D01*
X621357Y115398D01*
X621412Y115299D01*
X621463Y115198D01*
X621511Y115095D01*
X621556Y114991D01*
X621596Y114885D01*
X621633Y114778D01*
X621666Y114670D01*
X621696Y114560D01*
X621721Y114450D01*
X621743Y114339D01*
X621760Y114227D01*
X621774Y114114D01*
X621784Y114001D01*
X621790Y113888D01*
X621792Y113775D01*
X621792Y110529D01*
X621792Y122744D02*
X621792Y127937D01*
X621792Y122744D02*
X610108Y122744D01*
X610108Y127937D01*
X615301Y126639D02*
X615301Y122744D01*
X610108Y132701D02*
X621792Y132701D01*
X610108Y132701D02*
X610108Y135946D01*
X610110Y136059D01*
X610116Y136172D01*
X610126Y136285D01*
X610140Y136398D01*
X610157Y136510D01*
X610179Y136621D01*
X610204Y136731D01*
X610234Y136841D01*
X610267Y136949D01*
X610304Y137056D01*
X610344Y137162D01*
X610389Y137266D01*
X610437Y137369D01*
X610488Y137470D01*
X610543Y137569D01*
X610601Y137666D01*
X610663Y137761D01*
X610728Y137854D01*
X610796Y137944D01*
X610867Y138032D01*
X610942Y138118D01*
X611019Y138201D01*
X611099Y138281D01*
X611182Y138358D01*
X611268Y138433D01*
X611356Y138504D01*
X611446Y138572D01*
X611539Y138637D01*
X611634Y138699D01*
X611731Y138757D01*
X611830Y138812D01*
X611931Y138863D01*
X612034Y138911D01*
X612138Y138956D01*
X612244Y138996D01*
X612351Y139033D01*
X612459Y139066D01*
X612569Y139096D01*
X612679Y139121D01*
X612790Y139143D01*
X612902Y139160D01*
X613015Y139174D01*
X613128Y139184D01*
X613241Y139190D01*
X613354Y139192D01*
X613467Y139190D01*
X613580Y139184D01*
X613693Y139174D01*
X613806Y139160D01*
X613918Y139143D01*
X614029Y139121D01*
X614139Y139096D01*
X614249Y139066D01*
X614357Y139033D01*
X614464Y138996D01*
X614570Y138956D01*
X614674Y138911D01*
X614777Y138863D01*
X614878Y138812D01*
X614977Y138757D01*
X615074Y138699D01*
X615169Y138637D01*
X615262Y138572D01*
X615352Y138504D01*
X615440Y138433D01*
X615526Y138358D01*
X615609Y138281D01*
X615689Y138201D01*
X615766Y138118D01*
X615841Y138032D01*
X615912Y137944D01*
X615980Y137854D01*
X616045Y137761D01*
X616107Y137666D01*
X616165Y137569D01*
X616220Y137470D01*
X616271Y137369D01*
X616319Y137266D01*
X616364Y137162D01*
X616404Y137056D01*
X616441Y136949D01*
X616474Y136841D01*
X616504Y136731D01*
X616529Y136621D01*
X616551Y136510D01*
X616568Y136398D01*
X616582Y136285D01*
X616592Y136172D01*
X616598Y136059D01*
X616600Y135946D01*
X616599Y135946D02*
X616599Y132701D01*
X616599Y136596D02*
X621792Y139192D01*
D10*
X647700Y-19050D02*
X647700Y-31750D01*
X641350Y-38100D01*
X628650Y-38100D02*
X622300Y-31750D01*
X641350Y-38100D02*
X647700Y-44450D01*
X647700Y-57150D01*
X641350Y-63500D01*
X628650Y-63500D02*
X622300Y-57150D01*
X622300Y-44450D01*
X628650Y-38100D01*
X628650Y-12700D02*
X641350Y-12700D01*
X647700Y-19050D01*
X628650Y-12700D02*
X622300Y-19050D01*
X622300Y-31750D01*
X641350Y-63500D02*
X647700Y-69850D01*
X647700Y-82550D01*
X641350Y-88900D01*
X628650Y-88900D02*
X622300Y-82550D01*
X622300Y-69850D01*
X628650Y-63500D01*
X647700Y-95250D02*
X647700Y-107950D01*
X641350Y-114300D01*
X628650Y-114300D02*
X622300Y-107950D01*
X641350Y-88900D02*
X647700Y-95250D01*
X628650Y-88900D02*
X622300Y-95250D01*
X622300Y-107950D01*
X647700Y-120650D02*
X647700Y-133350D01*
X641350Y-139700D01*
X628650Y-139700D02*
X622300Y-133350D01*
X641350Y-139700D02*
X647700Y-146050D01*
X647700Y-158750D01*
X641350Y-165100D01*
X628650Y-165100D02*
X622300Y-158750D01*
X622300Y-146050D01*
X628650Y-139700D01*
X647700Y-120650D02*
X641350Y-114300D01*
X628650Y-114300D02*
X622300Y-120650D01*
X622300Y-133350D01*
X641350Y-165100D02*
X647700Y-171450D01*
X647700Y-184150D01*
X641350Y-190500D01*
X628650Y-190500D02*
X622300Y-184150D01*
X622300Y-171450D01*
X628650Y-165100D01*
X628650Y-190500D02*
X641350Y-190500D01*
D13*
X648208Y-42559D02*
X649506Y-42559D01*
X648208Y-42559D02*
X648208Y-36068D01*
X659892Y-39314D01*
X659892Y-31778D02*
X648208Y-23989D01*
X648208Y-31778D02*
X659892Y-23989D01*
X650804Y-19699D02*
X648208Y-16454D01*
X659892Y-16454D01*
X659892Y-19699D02*
X659892Y-13208D01*
X621792Y-118663D02*
X610108Y-118663D01*
X610108Y-115418D01*
X610110Y-115305D01*
X610116Y-115192D01*
X610126Y-115079D01*
X610140Y-114966D01*
X610157Y-114854D01*
X610179Y-114743D01*
X610204Y-114633D01*
X610234Y-114523D01*
X610267Y-114415D01*
X610304Y-114308D01*
X610344Y-114202D01*
X610389Y-114098D01*
X610437Y-113995D01*
X610488Y-113894D01*
X610543Y-113795D01*
X610601Y-113698D01*
X610663Y-113603D01*
X610728Y-113510D01*
X610796Y-113420D01*
X610867Y-113332D01*
X610942Y-113246D01*
X611019Y-113163D01*
X611099Y-113083D01*
X611182Y-113006D01*
X611268Y-112931D01*
X611356Y-112860D01*
X611446Y-112792D01*
X611539Y-112727D01*
X611634Y-112665D01*
X611731Y-112607D01*
X611830Y-112552D01*
X611931Y-112501D01*
X612034Y-112453D01*
X612138Y-112408D01*
X612244Y-112368D01*
X612351Y-112331D01*
X612459Y-112298D01*
X612569Y-112268D01*
X612679Y-112243D01*
X612790Y-112221D01*
X612902Y-112204D01*
X613015Y-112190D01*
X613128Y-112180D01*
X613241Y-112174D01*
X613354Y-112172D01*
X613467Y-112174D01*
X613580Y-112180D01*
X613693Y-112190D01*
X613806Y-112204D01*
X613918Y-112221D01*
X614029Y-112243D01*
X614139Y-112268D01*
X614249Y-112298D01*
X614357Y-112331D01*
X614464Y-112368D01*
X614570Y-112408D01*
X614674Y-112453D01*
X614777Y-112501D01*
X614878Y-112552D01*
X614977Y-112607D01*
X615074Y-112665D01*
X615169Y-112727D01*
X615262Y-112792D01*
X615352Y-112860D01*
X615440Y-112931D01*
X615526Y-113006D01*
X615609Y-113083D01*
X615689Y-113163D01*
X615766Y-113246D01*
X615841Y-113332D01*
X615912Y-113420D01*
X615980Y-113510D01*
X616045Y-113603D01*
X616107Y-113698D01*
X616165Y-113795D01*
X616220Y-113894D01*
X616271Y-113995D01*
X616319Y-114098D01*
X616364Y-114202D01*
X616404Y-114308D01*
X616441Y-114415D01*
X616474Y-114523D01*
X616504Y-114633D01*
X616529Y-114743D01*
X616551Y-114854D01*
X616568Y-114966D01*
X616582Y-115079D01*
X616592Y-115192D01*
X616598Y-115305D01*
X616600Y-115418D01*
X616599Y-115418D02*
X616599Y-118663D01*
X621792Y-106824D02*
X610108Y-106824D01*
X621792Y-108122D02*
X621792Y-105526D01*
X610108Y-105526D02*
X610108Y-108122D01*
X610108Y-100545D02*
X621792Y-100545D01*
X621792Y-94054D02*
X610108Y-100545D01*
X610108Y-94054D02*
X621792Y-94054D01*
X617248Y-88621D02*
X617248Y-80831D01*
X621792Y-75399D02*
X610108Y-75399D01*
X615301Y-75399D02*
X615301Y-68908D01*
X610108Y-68908D02*
X621792Y-68908D01*
X621792Y-63184D02*
X621792Y-57991D01*
X621792Y-63184D02*
X610108Y-63184D01*
X610108Y-57991D01*
X615301Y-59289D02*
X615301Y-63184D01*
X621792Y-54331D02*
X610108Y-50436D01*
X621792Y-46541D01*
X618871Y-47515D02*
X618871Y-53357D01*
X621792Y-41871D02*
X610108Y-41871D01*
X610108Y-38625D01*
X610110Y-38512D01*
X610116Y-38399D01*
X610126Y-38286D01*
X610140Y-38173D01*
X610157Y-38061D01*
X610179Y-37950D01*
X610204Y-37840D01*
X610234Y-37730D01*
X610267Y-37622D01*
X610304Y-37515D01*
X610344Y-37409D01*
X610389Y-37305D01*
X610437Y-37202D01*
X610488Y-37101D01*
X610543Y-37002D01*
X610601Y-36905D01*
X610663Y-36810D01*
X610728Y-36717D01*
X610796Y-36627D01*
X610867Y-36539D01*
X610942Y-36453D01*
X611019Y-36370D01*
X611099Y-36290D01*
X611182Y-36213D01*
X611268Y-36138D01*
X611356Y-36067D01*
X611446Y-35999D01*
X611539Y-35934D01*
X611634Y-35872D01*
X611731Y-35814D01*
X611830Y-35759D01*
X611931Y-35708D01*
X612034Y-35660D01*
X612138Y-35615D01*
X612244Y-35575D01*
X612351Y-35538D01*
X612459Y-35505D01*
X612569Y-35475D01*
X612679Y-35450D01*
X612790Y-35428D01*
X612902Y-35411D01*
X613015Y-35397D01*
X613128Y-35387D01*
X613241Y-35381D01*
X613354Y-35379D01*
X613354Y-35380D02*
X618546Y-35380D01*
X618546Y-35379D02*
X618659Y-35381D01*
X618772Y-35387D01*
X618885Y-35397D01*
X618998Y-35411D01*
X619110Y-35428D01*
X619221Y-35450D01*
X619331Y-35475D01*
X619441Y-35505D01*
X619549Y-35538D01*
X619656Y-35575D01*
X619762Y-35615D01*
X619866Y-35660D01*
X619969Y-35708D01*
X620070Y-35759D01*
X620169Y-35814D01*
X620266Y-35872D01*
X620361Y-35934D01*
X620454Y-35999D01*
X620544Y-36067D01*
X620632Y-36138D01*
X620718Y-36213D01*
X620801Y-36290D01*
X620881Y-36370D01*
X620958Y-36453D01*
X621033Y-36539D01*
X621104Y-36627D01*
X621172Y-36717D01*
X621237Y-36810D01*
X621299Y-36905D01*
X621357Y-37002D01*
X621412Y-37101D01*
X621463Y-37202D01*
X621511Y-37305D01*
X621556Y-37409D01*
X621596Y-37515D01*
X621633Y-37622D01*
X621666Y-37730D01*
X621696Y-37840D01*
X621721Y-37950D01*
X621743Y-38061D01*
X621760Y-38173D01*
X621774Y-38286D01*
X621784Y-38399D01*
X621790Y-38512D01*
X621792Y-38625D01*
X621792Y-41871D01*
X621792Y-29656D02*
X621792Y-24463D01*
X621792Y-29656D02*
X610108Y-29656D01*
X610108Y-24463D01*
X615301Y-25761D02*
X615301Y-29656D01*
X610108Y-19699D02*
X621792Y-19699D01*
X610108Y-19699D02*
X610108Y-16454D01*
X610110Y-16341D01*
X610116Y-16228D01*
X610126Y-16115D01*
X610140Y-16002D01*
X610157Y-15890D01*
X610179Y-15779D01*
X610204Y-15669D01*
X610234Y-15559D01*
X610267Y-15451D01*
X610304Y-15344D01*
X610344Y-15238D01*
X610389Y-15134D01*
X610437Y-15031D01*
X610488Y-14930D01*
X610543Y-14831D01*
X610601Y-14734D01*
X610663Y-14639D01*
X610728Y-14546D01*
X610796Y-14456D01*
X610867Y-14368D01*
X610942Y-14282D01*
X611019Y-14199D01*
X611099Y-14119D01*
X611182Y-14042D01*
X611268Y-13967D01*
X611356Y-13896D01*
X611446Y-13828D01*
X611539Y-13763D01*
X611634Y-13701D01*
X611731Y-13643D01*
X611830Y-13588D01*
X611931Y-13537D01*
X612034Y-13489D01*
X612138Y-13444D01*
X612244Y-13404D01*
X612351Y-13367D01*
X612459Y-13334D01*
X612569Y-13304D01*
X612679Y-13279D01*
X612790Y-13257D01*
X612902Y-13240D01*
X613015Y-13226D01*
X613128Y-13216D01*
X613241Y-13210D01*
X613354Y-13208D01*
X613467Y-13210D01*
X613580Y-13216D01*
X613693Y-13226D01*
X613806Y-13240D01*
X613918Y-13257D01*
X614029Y-13279D01*
X614139Y-13304D01*
X614249Y-13334D01*
X614357Y-13367D01*
X614464Y-13404D01*
X614570Y-13444D01*
X614674Y-13489D01*
X614777Y-13537D01*
X614878Y-13588D01*
X614977Y-13643D01*
X615074Y-13701D01*
X615169Y-13763D01*
X615262Y-13828D01*
X615352Y-13896D01*
X615440Y-13967D01*
X615526Y-14042D01*
X615609Y-14119D01*
X615689Y-14199D01*
X615766Y-14282D01*
X615841Y-14368D01*
X615912Y-14456D01*
X615980Y-14546D01*
X616045Y-14639D01*
X616107Y-14734D01*
X616165Y-14831D01*
X616220Y-14930D01*
X616271Y-15031D01*
X616319Y-15134D01*
X616364Y-15238D01*
X616404Y-15344D01*
X616441Y-15451D01*
X616474Y-15559D01*
X616504Y-15669D01*
X616529Y-15779D01*
X616551Y-15890D01*
X616568Y-16002D01*
X616582Y-16115D01*
X616592Y-16228D01*
X616598Y-16341D01*
X616600Y-16454D01*
X616599Y-16454D02*
X616599Y-19699D01*
X616599Y-15804D02*
X621792Y-13208D01*
D10*
X508000Y114300D02*
X495300Y114300D01*
X488950Y120650D01*
X488950Y133350D02*
X495300Y139700D01*
X488950Y120650D02*
X482600Y114300D01*
X469900Y114300D01*
X463550Y120650D01*
X463550Y133350D02*
X469900Y139700D01*
X482600Y139700D01*
X488950Y133350D01*
X514350Y133350D02*
X514350Y120650D01*
X508000Y114300D01*
X514350Y133350D02*
X508000Y139700D01*
X495300Y139700D01*
X463550Y120650D02*
X457200Y114300D01*
X444500Y114300D01*
X438150Y120650D01*
X438150Y133350D02*
X444500Y139700D01*
X457200Y139700D01*
X463550Y133350D01*
X431800Y114300D02*
X419100Y114300D01*
X412750Y120650D01*
X412750Y133350D01*
X419100Y139700D01*
X438150Y120650D02*
X431800Y114300D01*
X438150Y133350D02*
X431800Y139700D01*
X419100Y139700D01*
D13*
X487087Y113792D02*
X484491Y104704D01*
X490982Y104704D01*
X489035Y107301D02*
X489035Y102108D01*
X495272Y102108D02*
X503061Y113792D01*
X495272Y113792D02*
X503061Y102108D01*
X507351Y111196D02*
X510596Y113792D01*
X510596Y102108D01*
X507351Y102108D02*
X513842Y102108D01*
X408387Y140208D02*
X408387Y151892D01*
X411632Y151892D01*
X411745Y151890D01*
X411858Y151884D01*
X411971Y151874D01*
X412084Y151860D01*
X412196Y151843D01*
X412307Y151821D01*
X412417Y151796D01*
X412527Y151766D01*
X412635Y151733D01*
X412742Y151696D01*
X412848Y151656D01*
X412952Y151611D01*
X413055Y151563D01*
X413156Y151512D01*
X413255Y151457D01*
X413352Y151399D01*
X413447Y151337D01*
X413540Y151272D01*
X413630Y151204D01*
X413718Y151133D01*
X413804Y151058D01*
X413887Y150981D01*
X413967Y150901D01*
X414044Y150818D01*
X414119Y150732D01*
X414190Y150644D01*
X414258Y150554D01*
X414323Y150461D01*
X414385Y150366D01*
X414443Y150269D01*
X414498Y150170D01*
X414549Y150069D01*
X414597Y149966D01*
X414642Y149862D01*
X414682Y149756D01*
X414719Y149649D01*
X414752Y149541D01*
X414782Y149431D01*
X414807Y149321D01*
X414829Y149210D01*
X414846Y149098D01*
X414860Y148985D01*
X414870Y148872D01*
X414876Y148759D01*
X414878Y148646D01*
X414876Y148533D01*
X414870Y148420D01*
X414860Y148307D01*
X414846Y148194D01*
X414829Y148082D01*
X414807Y147971D01*
X414782Y147861D01*
X414752Y147751D01*
X414719Y147643D01*
X414682Y147536D01*
X414642Y147430D01*
X414597Y147326D01*
X414549Y147223D01*
X414498Y147122D01*
X414443Y147023D01*
X414385Y146926D01*
X414323Y146831D01*
X414258Y146738D01*
X414190Y146648D01*
X414119Y146560D01*
X414044Y146474D01*
X413967Y146391D01*
X413887Y146311D01*
X413804Y146234D01*
X413718Y146159D01*
X413630Y146088D01*
X413540Y146020D01*
X413447Y145955D01*
X413352Y145893D01*
X413255Y145835D01*
X413156Y145780D01*
X413055Y145729D01*
X412952Y145681D01*
X412848Y145636D01*
X412742Y145596D01*
X412635Y145559D01*
X412527Y145526D01*
X412417Y145496D01*
X412307Y145471D01*
X412196Y145449D01*
X412084Y145432D01*
X411971Y145418D01*
X411858Y145408D01*
X411745Y145402D01*
X411632Y145400D01*
X411632Y145401D02*
X408387Y145401D01*
X420226Y140208D02*
X420226Y151892D01*
X418928Y140208D02*
X421524Y140208D01*
X421524Y151892D02*
X418928Y151892D01*
X426505Y151892D02*
X426505Y140208D01*
X432996Y140208D02*
X426505Y151892D01*
X432996Y151892D02*
X432996Y140208D01*
X438429Y144752D02*
X446219Y144752D01*
X451651Y140208D02*
X451651Y151892D01*
X451651Y146699D02*
X458142Y146699D01*
X458142Y151892D02*
X458142Y140208D01*
X463866Y140208D02*
X469059Y140208D01*
X463866Y140208D02*
X463866Y151892D01*
X469059Y151892D01*
X467761Y146699D02*
X463866Y146699D01*
X472719Y140208D02*
X476614Y151892D01*
X480509Y140208D01*
X479535Y143129D02*
X473693Y143129D01*
X485179Y140208D02*
X485179Y151892D01*
X488425Y151892D01*
X488538Y151890D01*
X488651Y151884D01*
X488764Y151874D01*
X488877Y151860D01*
X488989Y151843D01*
X489100Y151821D01*
X489210Y151796D01*
X489320Y151766D01*
X489428Y151733D01*
X489535Y151696D01*
X489641Y151656D01*
X489745Y151611D01*
X489848Y151563D01*
X489949Y151512D01*
X490048Y151457D01*
X490145Y151399D01*
X490240Y151337D01*
X490333Y151272D01*
X490423Y151204D01*
X490511Y151133D01*
X490597Y151058D01*
X490680Y150981D01*
X490760Y150901D01*
X490837Y150818D01*
X490912Y150732D01*
X490983Y150644D01*
X491051Y150554D01*
X491116Y150461D01*
X491178Y150366D01*
X491236Y150269D01*
X491291Y150170D01*
X491342Y150069D01*
X491390Y149966D01*
X491435Y149862D01*
X491475Y149756D01*
X491512Y149649D01*
X491545Y149541D01*
X491575Y149431D01*
X491600Y149321D01*
X491622Y149210D01*
X491639Y149098D01*
X491653Y148985D01*
X491663Y148872D01*
X491669Y148759D01*
X491671Y148646D01*
X491670Y148646D02*
X491670Y143454D01*
X491671Y143454D02*
X491669Y143341D01*
X491663Y143228D01*
X491653Y143115D01*
X491639Y143002D01*
X491622Y142890D01*
X491600Y142779D01*
X491575Y142669D01*
X491545Y142559D01*
X491512Y142451D01*
X491475Y142344D01*
X491435Y142238D01*
X491390Y142134D01*
X491342Y142031D01*
X491291Y141930D01*
X491236Y141831D01*
X491178Y141734D01*
X491116Y141639D01*
X491051Y141546D01*
X490983Y141456D01*
X490912Y141368D01*
X490837Y141282D01*
X490760Y141199D01*
X490680Y141119D01*
X490597Y141042D01*
X490511Y140967D01*
X490423Y140896D01*
X490333Y140828D01*
X490240Y140763D01*
X490145Y140701D01*
X490048Y140643D01*
X489949Y140588D01*
X489848Y140537D01*
X489745Y140489D01*
X489641Y140444D01*
X489535Y140404D01*
X489428Y140367D01*
X489320Y140334D01*
X489210Y140304D01*
X489100Y140279D01*
X488989Y140257D01*
X488877Y140240D01*
X488764Y140226D01*
X488651Y140216D01*
X488538Y140210D01*
X488425Y140208D01*
X485179Y140208D01*
X497394Y140208D02*
X502587Y140208D01*
X497394Y140208D02*
X497394Y151892D01*
X502587Y151892D01*
X501289Y146699D02*
X497394Y146699D01*
X507351Y151892D02*
X507351Y140208D01*
X507351Y151892D02*
X510596Y151892D01*
X510709Y151890D01*
X510822Y151884D01*
X510935Y151874D01*
X511048Y151860D01*
X511160Y151843D01*
X511271Y151821D01*
X511381Y151796D01*
X511491Y151766D01*
X511599Y151733D01*
X511706Y151696D01*
X511812Y151656D01*
X511916Y151611D01*
X512019Y151563D01*
X512120Y151512D01*
X512219Y151457D01*
X512316Y151399D01*
X512411Y151337D01*
X512504Y151272D01*
X512594Y151204D01*
X512682Y151133D01*
X512768Y151058D01*
X512851Y150981D01*
X512931Y150901D01*
X513008Y150818D01*
X513083Y150732D01*
X513154Y150644D01*
X513222Y150554D01*
X513287Y150461D01*
X513349Y150366D01*
X513407Y150269D01*
X513462Y150170D01*
X513513Y150069D01*
X513561Y149966D01*
X513606Y149862D01*
X513646Y149756D01*
X513683Y149649D01*
X513716Y149541D01*
X513746Y149431D01*
X513771Y149321D01*
X513793Y149210D01*
X513810Y149098D01*
X513824Y148985D01*
X513834Y148872D01*
X513840Y148759D01*
X513842Y148646D01*
X513840Y148533D01*
X513834Y148420D01*
X513824Y148307D01*
X513810Y148194D01*
X513793Y148082D01*
X513771Y147971D01*
X513746Y147861D01*
X513716Y147751D01*
X513683Y147643D01*
X513646Y147536D01*
X513606Y147430D01*
X513561Y147326D01*
X513513Y147223D01*
X513462Y147122D01*
X513407Y147023D01*
X513349Y146926D01*
X513287Y146831D01*
X513222Y146738D01*
X513154Y146648D01*
X513083Y146560D01*
X513008Y146474D01*
X512931Y146391D01*
X512851Y146311D01*
X512768Y146234D01*
X512682Y146159D01*
X512594Y146088D01*
X512504Y146020D01*
X512411Y145955D01*
X512316Y145893D01*
X512219Y145835D01*
X512120Y145780D01*
X512019Y145729D01*
X511916Y145681D01*
X511812Y145636D01*
X511706Y145596D01*
X511599Y145559D01*
X511491Y145526D01*
X511381Y145496D01*
X511271Y145471D01*
X511160Y145449D01*
X511048Y145432D01*
X510935Y145418D01*
X510822Y145408D01*
X510709Y145402D01*
X510596Y145400D01*
X510596Y145401D02*
X507351Y145401D01*
X511246Y145401D02*
X513842Y140208D01*
D14*
X518600Y94850D02*
X518612Y95832D01*
X518648Y96813D01*
X518708Y97793D01*
X518793Y98771D01*
X518901Y99746D01*
X519033Y100719D01*
X519189Y101688D01*
X519369Y102654D01*
X519572Y103614D01*
X519799Y104569D01*
X520049Y105519D01*
X520322Y106461D01*
X520619Y107397D01*
X520938Y108326D01*
X521280Y109246D01*
X521645Y110157D01*
X522032Y111060D01*
X522440Y111952D01*
X522871Y112834D01*
X523323Y113706D01*
X523797Y114566D01*
X524291Y115414D01*
X524806Y116250D01*
X525341Y117073D01*
X525897Y117882D01*
X526472Y118678D01*
X527066Y119459D01*
X527680Y120226D01*
X528312Y120977D01*
X528962Y121712D01*
X529630Y122432D01*
X530316Y123134D01*
X531018Y123820D01*
X531738Y124488D01*
X532473Y125138D01*
X533224Y125770D01*
X533991Y126384D01*
X534772Y126978D01*
X535568Y127553D01*
X536377Y128109D01*
X537200Y128644D01*
X538036Y129159D01*
X538884Y129653D01*
X539744Y130127D01*
X540616Y130579D01*
X541498Y131010D01*
X542390Y131418D01*
X543293Y131805D01*
X544204Y132170D01*
X545124Y132512D01*
X546053Y132831D01*
X546989Y133128D01*
X547931Y133401D01*
X548881Y133651D01*
X549836Y133878D01*
X550796Y134081D01*
X551762Y134261D01*
X552731Y134417D01*
X553704Y134549D01*
X554679Y134657D01*
X555657Y134742D01*
X556637Y134802D01*
X557618Y134838D01*
X558600Y134850D01*
X559582Y134838D01*
X560563Y134802D01*
X561543Y134742D01*
X562521Y134657D01*
X563496Y134549D01*
X564469Y134417D01*
X565438Y134261D01*
X566404Y134081D01*
X567364Y133878D01*
X568319Y133651D01*
X569269Y133401D01*
X570211Y133128D01*
X571147Y132831D01*
X572076Y132512D01*
X572996Y132170D01*
X573907Y131805D01*
X574810Y131418D01*
X575702Y131010D01*
X576584Y130579D01*
X577456Y130127D01*
X578316Y129653D01*
X579164Y129159D01*
X580000Y128644D01*
X580823Y128109D01*
X581632Y127553D01*
X582428Y126978D01*
X583209Y126384D01*
X583976Y125770D01*
X584727Y125138D01*
X585462Y124488D01*
X586182Y123820D01*
X586884Y123134D01*
X587570Y122432D01*
X588238Y121712D01*
X588888Y120977D01*
X589520Y120226D01*
X590134Y119459D01*
X590728Y118678D01*
X591303Y117882D01*
X591859Y117073D01*
X592394Y116250D01*
X592909Y115414D01*
X593403Y114566D01*
X593877Y113706D01*
X594329Y112834D01*
X594760Y111952D01*
X595168Y111060D01*
X595555Y110157D01*
X595920Y109246D01*
X596262Y108326D01*
X596581Y107397D01*
X596878Y106461D01*
X597151Y105519D01*
X597401Y104569D01*
X597628Y103614D01*
X597831Y102654D01*
X598011Y101688D01*
X598167Y100719D01*
X598299Y99746D01*
X598407Y98771D01*
X598492Y97793D01*
X598552Y96813D01*
X598588Y95832D01*
X598600Y94850D01*
X598588Y93868D01*
X598552Y92887D01*
X598492Y91907D01*
X598407Y90929D01*
X598299Y89954D01*
X598167Y88981D01*
X598011Y88012D01*
X597831Y87046D01*
X597628Y86086D01*
X597401Y85131D01*
X597151Y84181D01*
X596878Y83239D01*
X596581Y82303D01*
X596262Y81374D01*
X595920Y80454D01*
X595555Y79543D01*
X595168Y78640D01*
X594760Y77748D01*
X594329Y76866D01*
X593877Y75994D01*
X593403Y75134D01*
X592909Y74286D01*
X592394Y73450D01*
X591859Y72627D01*
X591303Y71818D01*
X590728Y71022D01*
X590134Y70241D01*
X589520Y69474D01*
X588888Y68723D01*
X588238Y67988D01*
X587570Y67268D01*
X586884Y66566D01*
X586182Y65880D01*
X585462Y65212D01*
X584727Y64562D01*
X583976Y63930D01*
X583209Y63316D01*
X582428Y62722D01*
X581632Y62147D01*
X580823Y61591D01*
X580000Y61056D01*
X579164Y60541D01*
X578316Y60047D01*
X577456Y59573D01*
X576584Y59121D01*
X575702Y58690D01*
X574810Y58282D01*
X573907Y57895D01*
X572996Y57530D01*
X572076Y57188D01*
X571147Y56869D01*
X570211Y56572D01*
X569269Y56299D01*
X568319Y56049D01*
X567364Y55822D01*
X566404Y55619D01*
X565438Y55439D01*
X564469Y55283D01*
X563496Y55151D01*
X562521Y55043D01*
X561543Y54958D01*
X560563Y54898D01*
X559582Y54862D01*
X558600Y54850D01*
X557618Y54862D01*
X556637Y54898D01*
X555657Y54958D01*
X554679Y55043D01*
X553704Y55151D01*
X552731Y55283D01*
X551762Y55439D01*
X550796Y55619D01*
X549836Y55822D01*
X548881Y56049D01*
X547931Y56299D01*
X546989Y56572D01*
X546053Y56869D01*
X545124Y57188D01*
X544204Y57530D01*
X543293Y57895D01*
X542390Y58282D01*
X541498Y58690D01*
X540616Y59121D01*
X539744Y59573D01*
X538884Y60047D01*
X538036Y60541D01*
X537200Y61056D01*
X536377Y61591D01*
X535568Y62147D01*
X534772Y62722D01*
X533991Y63316D01*
X533224Y63930D01*
X532473Y64562D01*
X531738Y65212D01*
X531018Y65880D01*
X530316Y66566D01*
X529630Y67268D01*
X528962Y67988D01*
X528312Y68723D01*
X527680Y69474D01*
X527066Y70241D01*
X526472Y71022D01*
X525897Y71818D01*
X525341Y72627D01*
X524806Y73450D01*
X524291Y74286D01*
X523797Y75134D01*
X523323Y75994D01*
X522871Y76866D01*
X522440Y77748D01*
X522032Y78640D01*
X521645Y79543D01*
X521280Y80454D01*
X520938Y81374D01*
X520619Y82303D01*
X520322Y83239D01*
X520049Y84181D01*
X519799Y85131D01*
X519572Y86086D01*
X519369Y87046D01*
X519189Y88012D01*
X519033Y88981D01*
X518901Y89954D01*
X518793Y90929D01*
X518708Y91907D01*
X518648Y92887D01*
X518612Y93868D01*
X518600Y94850D01*
X613600Y142350D02*
X613600Y47350D01*
X518600Y47350D01*
X518600Y142350D01*
X613600Y142350D01*
X165750Y-44900D02*
X140350Y-44900D01*
X191150Y-44900D02*
X191150Y-32200D01*
X191150Y-44900D02*
X191150Y-57600D01*
X165750Y-44900D01*
X191150Y-32200D01*
X165750Y-32200D02*
X165750Y-57600D01*
X191150Y-44900D02*
X216550Y-44900D01*
X-71300Y88700D02*
X-77650Y95050D01*
X-90350Y95050D01*
X-96700Y88700D01*
X-96700Y50600D01*
X-90350Y44250D01*
X-77650Y44250D02*
X-71300Y50600D01*
X-71300Y88700D01*
X-77650Y44250D02*
X-90350Y44250D01*
D15*
X-91493Y-13853D02*
X-80670Y-13853D01*
X-80542Y-13851D01*
X-80414Y-13845D01*
X-80286Y-13835D01*
X-80158Y-13821D01*
X-80031Y-13804D01*
X-79905Y-13782D01*
X-79779Y-13757D01*
X-79655Y-13727D01*
X-79531Y-13694D01*
X-79408Y-13657D01*
X-79286Y-13616D01*
X-79166Y-13572D01*
X-79047Y-13524D01*
X-78930Y-13472D01*
X-78814Y-13417D01*
X-78701Y-13358D01*
X-78589Y-13295D01*
X-78478Y-13229D01*
X-78371Y-13160D01*
X-78265Y-13088D01*
X-78161Y-13012D01*
X-78060Y-12933D01*
X-77961Y-12851D01*
X-77865Y-12766D01*
X-77772Y-12679D01*
X-77681Y-12588D01*
X-77594Y-12495D01*
X-77509Y-12399D01*
X-77427Y-12300D01*
X-77348Y-12199D01*
X-77272Y-12095D01*
X-77200Y-11989D01*
X-77131Y-11882D01*
X-77065Y-11772D01*
X-77002Y-11659D01*
X-76943Y-11546D01*
X-76888Y-11430D01*
X-76836Y-11313D01*
X-76788Y-11194D01*
X-76744Y-11074D01*
X-76703Y-10952D01*
X-76666Y-10829D01*
X-76633Y-10705D01*
X-76603Y-10581D01*
X-76578Y-10455D01*
X-76556Y-10329D01*
X-76539Y-10202D01*
X-76525Y-10074D01*
X-76515Y-9946D01*
X-76509Y-9818D01*
X-76507Y-9690D01*
X-76509Y-9562D01*
X-76515Y-9434D01*
X-76525Y-9306D01*
X-76539Y-9178D01*
X-76556Y-9051D01*
X-76578Y-8925D01*
X-76603Y-8799D01*
X-76633Y-8675D01*
X-76666Y-8551D01*
X-76703Y-8428D01*
X-76744Y-8306D01*
X-76788Y-8186D01*
X-76836Y-8067D01*
X-76888Y-7950D01*
X-76943Y-7834D01*
X-77002Y-7721D01*
X-77065Y-7609D01*
X-77131Y-7498D01*
X-77200Y-7391D01*
X-77272Y-7285D01*
X-77348Y-7181D01*
X-77427Y-7080D01*
X-77509Y-6981D01*
X-77594Y-6885D01*
X-77681Y-6792D01*
X-77772Y-6701D01*
X-77865Y-6614D01*
X-77961Y-6529D01*
X-78060Y-6447D01*
X-78161Y-6368D01*
X-78265Y-6292D01*
X-78371Y-6220D01*
X-78478Y-6151D01*
X-78588Y-6085D01*
X-78701Y-6022D01*
X-78814Y-5963D01*
X-78930Y-5908D01*
X-79047Y-5856D01*
X-79166Y-5808D01*
X-79286Y-5764D01*
X-79408Y-5723D01*
X-79531Y-5686D01*
X-79655Y-5653D01*
X-79779Y-5623D01*
X-79905Y-5598D01*
X-80031Y-5576D01*
X-80158Y-5559D01*
X-80286Y-5545D01*
X-80414Y-5535D01*
X-80542Y-5529D01*
X-80670Y-5527D01*
X-80670Y-5528D02*
X-91493Y-5528D01*
X-91493Y5420D02*
X-76507Y5420D01*
X-84000Y5420D02*
X-85249Y3338D01*
X-85248Y3338D02*
X-85301Y3255D01*
X-85357Y3173D01*
X-85415Y3094D01*
X-85477Y3018D01*
X-85542Y2943D01*
X-85610Y2872D01*
X-85681Y2803D01*
X-85754Y2737D01*
X-85830Y2674D01*
X-85909Y2614D01*
X-85989Y2557D01*
X-86072Y2503D01*
X-86157Y2453D01*
X-86244Y2406D01*
X-86333Y2363D01*
X-86423Y2323D01*
X-86515Y2287D01*
X-86608Y2254D01*
X-86702Y2225D01*
X-86798Y2200D01*
X-86894Y2179D01*
X-86991Y2162D01*
X-87089Y2148D01*
X-87187Y2139D01*
X-87286Y2133D01*
X-87384Y2131D01*
X-87483Y2133D01*
X-87581Y2139D01*
X-87680Y2149D01*
X-87777Y2163D01*
X-87874Y2180D01*
X-87971Y2202D01*
X-88066Y2227D01*
X-88160Y2256D01*
X-88253Y2289D01*
X-88345Y2325D01*
X-88435Y2366D01*
X-88524Y2409D01*
X-88611Y2456D01*
X-88695Y2507D01*
X-88778Y2560D01*
X-88859Y2618D01*
X-88937Y2678D01*
X-89013Y2741D01*
X-89086Y2807D01*
X-89156Y2876D01*
X-89224Y2948D01*
X-89289Y3022D01*
X-89350Y3099D01*
X-89409Y3179D01*
X-89465Y3260D01*
X-89517Y3344D01*
X-89566Y3430D01*
X-89611Y3517D01*
X-89653Y3607D01*
X-89691Y3698D01*
X-89726Y3790D01*
X-89757Y3884D01*
X-89784Y3979D01*
X-89808Y4074D01*
X-89828Y4171D01*
X-89854Y4327D01*
X-89877Y4484D01*
X-89896Y4641D01*
X-89911Y4799D01*
X-89923Y4957D01*
X-89931Y5115D01*
X-89934Y5274D01*
X-89935Y5432D01*
X-89931Y5591D01*
X-89923Y5749D01*
X-89912Y5907D01*
X-89897Y6065D01*
X-89878Y6223D01*
X-89855Y6380D01*
X-89829Y6536D01*
X-89798Y6692D01*
X-89764Y6846D01*
X-89727Y7000D01*
X-89685Y7153D01*
X-89640Y7305D01*
X-89592Y7456D01*
X-89539Y7606D01*
X-89484Y7754D01*
X-89424Y7901D01*
X-89361Y8047D01*
X-89295Y8191D01*
X-89225Y8333D01*
X-89152Y8474D01*
X-89075Y8613D01*
X-88995Y8750D01*
X-84000Y5420D02*
X-82751Y7501D01*
X-82752Y7502D02*
X-82699Y7585D01*
X-82643Y7667D01*
X-82585Y7746D01*
X-82523Y7823D01*
X-82458Y7897D01*
X-82390Y7968D01*
X-82319Y8037D01*
X-82246Y8103D01*
X-82170Y8166D01*
X-82091Y8226D01*
X-82011Y8283D01*
X-81928Y8337D01*
X-81843Y8387D01*
X-81756Y8434D01*
X-81667Y8477D01*
X-81577Y8517D01*
X-81485Y8553D01*
X-81392Y8586D01*
X-81298Y8615D01*
X-81202Y8640D01*
X-81106Y8661D01*
X-81009Y8678D01*
X-80911Y8692D01*
X-80813Y8701D01*
X-80714Y8707D01*
X-80616Y8709D01*
X-80517Y8707D01*
X-80419Y8701D01*
X-80320Y8691D01*
X-80223Y8677D01*
X-80126Y8660D01*
X-80029Y8638D01*
X-79934Y8613D01*
X-79840Y8584D01*
X-79747Y8551D01*
X-79655Y8515D01*
X-79565Y8474D01*
X-79476Y8431D01*
X-79389Y8384D01*
X-79305Y8333D01*
X-79222Y8280D01*
X-79141Y8222D01*
X-79063Y8162D01*
X-78987Y8099D01*
X-78914Y8033D01*
X-78844Y7964D01*
X-78776Y7892D01*
X-78711Y7818D01*
X-78650Y7741D01*
X-78591Y7661D01*
X-78535Y7580D01*
X-78483Y7496D01*
X-78434Y7410D01*
X-78389Y7323D01*
X-78347Y7233D01*
X-78309Y7142D01*
X-78274Y7050D01*
X-78243Y6956D01*
X-78216Y6862D01*
X-78192Y6766D01*
X-78173Y6669D01*
X-78172Y6669D02*
X-78146Y6512D01*
X-78123Y6355D01*
X-78104Y6198D01*
X-78089Y6040D01*
X-78077Y5882D01*
X-78069Y5724D01*
X-78066Y5565D01*
X-78065Y5407D01*
X-78069Y5248D01*
X-78077Y5090D01*
X-78088Y4932D01*
X-78103Y4774D01*
X-78122Y4616D01*
X-78145Y4459D01*
X-78171Y4303D01*
X-78202Y4147D01*
X-78236Y3993D01*
X-78273Y3839D01*
X-78315Y3685D01*
X-78360Y3533D01*
X-78408Y3383D01*
X-78461Y3233D01*
X-78517Y3085D01*
X-78576Y2938D01*
X-78639Y2792D01*
X-78705Y2648D01*
X-78775Y2506D01*
X-78848Y2365D01*
X-78925Y2226D01*
X-79005Y2089D01*
X-88163Y15846D02*
X-91493Y20009D01*
X-76507Y20009D01*
X-76507Y15846D02*
X-76507Y24172D01*
X-84000Y31477D02*
X-84295Y31481D01*
X-84589Y31491D01*
X-84884Y31509D01*
X-85178Y31533D01*
X-85471Y31565D01*
X-85763Y31603D01*
X-86054Y31649D01*
X-86344Y31702D01*
X-86633Y31761D01*
X-86920Y31827D01*
X-87206Y31900D01*
X-87490Y31980D01*
X-87772Y32067D01*
X-88051Y32160D01*
X-88329Y32260D01*
X-88603Y32367D01*
X-88876Y32480D01*
X-89145Y32600D01*
X-89412Y32726D01*
X-89515Y32764D01*
X-89616Y32805D01*
X-89715Y32849D01*
X-89814Y32897D01*
X-89910Y32948D01*
X-90004Y33003D01*
X-90097Y33061D01*
X-90187Y33122D01*
X-90275Y33187D01*
X-90361Y33254D01*
X-90444Y33325D01*
X-90525Y33398D01*
X-90603Y33474D01*
X-90679Y33553D01*
X-90751Y33635D01*
X-90821Y33719D01*
X-90887Y33806D01*
X-90951Y33894D01*
X-91011Y33985D01*
X-91068Y34079D01*
X-91122Y34174D01*
X-91172Y34271D01*
X-91219Y34369D01*
X-91262Y34469D01*
X-91302Y34571D01*
X-91338Y34674D01*
X-91370Y34778D01*
X-91399Y34884D01*
X-91424Y34990D01*
X-91445Y35097D01*
X-91462Y35205D01*
X-91476Y35313D01*
X-91485Y35422D01*
X-91491Y35531D01*
X-91493Y35640D01*
X-91491Y35749D01*
X-91485Y35858D01*
X-91476Y35967D01*
X-91462Y36075D01*
X-91445Y36183D01*
X-91424Y36290D01*
X-91399Y36396D01*
X-91370Y36502D01*
X-91338Y36606D01*
X-91302Y36709D01*
X-91262Y36811D01*
X-91219Y36911D01*
X-91172Y37009D01*
X-91122Y37106D01*
X-91068Y37201D01*
X-91011Y37295D01*
X-90951Y37386D01*
X-90887Y37474D01*
X-90821Y37561D01*
X-90751Y37645D01*
X-90679Y37727D01*
X-90603Y37806D01*
X-90525Y37882D01*
X-90444Y37955D01*
X-90361Y38026D01*
X-90275Y38093D01*
X-90187Y38158D01*
X-90097Y38219D01*
X-90004Y38277D01*
X-89910Y38332D01*
X-89814Y38383D01*
X-89715Y38431D01*
X-89616Y38475D01*
X-89515Y38516D01*
X-89412Y38554D01*
X-89145Y38680D01*
X-88876Y38800D01*
X-88603Y38913D01*
X-88329Y39020D01*
X-88051Y39120D01*
X-87772Y39213D01*
X-87490Y39300D01*
X-87206Y39380D01*
X-86920Y39453D01*
X-86633Y39519D01*
X-86344Y39578D01*
X-86054Y39631D01*
X-85763Y39677D01*
X-85471Y39715D01*
X-85178Y39747D01*
X-84884Y39771D01*
X-84589Y39789D01*
X-84295Y39799D01*
X-84000Y39803D01*
X-84000Y31477D02*
X-83705Y31481D01*
X-83411Y31491D01*
X-83116Y31509D01*
X-82822Y31533D01*
X-82529Y31565D01*
X-82237Y31603D01*
X-81946Y31649D01*
X-81656Y31702D01*
X-81367Y31761D01*
X-81080Y31827D01*
X-80794Y31900D01*
X-80510Y31980D01*
X-80228Y32067D01*
X-79949Y32160D01*
X-79671Y32260D01*
X-79397Y32367D01*
X-79124Y32480D01*
X-78855Y32600D01*
X-78588Y32726D01*
X-78485Y32764D01*
X-78384Y32805D01*
X-78285Y32849D01*
X-78186Y32897D01*
X-78090Y32948D01*
X-77996Y33003D01*
X-77903Y33061D01*
X-77813Y33122D01*
X-77725Y33187D01*
X-77639Y33254D01*
X-77556Y33325D01*
X-77475Y33398D01*
X-77397Y33474D01*
X-77321Y33553D01*
X-77249Y33635D01*
X-77179Y33719D01*
X-77113Y33806D01*
X-77049Y33894D01*
X-76989Y33985D01*
X-76932Y34079D01*
X-76878Y34174D01*
X-76828Y34271D01*
X-76781Y34369D01*
X-76738Y34469D01*
X-76698Y34571D01*
X-76662Y34674D01*
X-76630Y34778D01*
X-76601Y34884D01*
X-76576Y34990D01*
X-76555Y35097D01*
X-76538Y35205D01*
X-76524Y35313D01*
X-76515Y35422D01*
X-76509Y35531D01*
X-76507Y35640D01*
X-78588Y38554D02*
X-78855Y38680D01*
X-79124Y38800D01*
X-79397Y38913D01*
X-79671Y39020D01*
X-79949Y39120D01*
X-80228Y39213D01*
X-80510Y39300D01*
X-80794Y39380D01*
X-81080Y39453D01*
X-81367Y39519D01*
X-81656Y39578D01*
X-81946Y39631D01*
X-82237Y39677D01*
X-82529Y39715D01*
X-82822Y39747D01*
X-83116Y39771D01*
X-83411Y39789D01*
X-83705Y39799D01*
X-84000Y39803D01*
X-78588Y38554D02*
X-78485Y38516D01*
X-78384Y38475D01*
X-78285Y38431D01*
X-78186Y38383D01*
X-78090Y38332D01*
X-77996Y38277D01*
X-77903Y38219D01*
X-77813Y38158D01*
X-77725Y38093D01*
X-77639Y38026D01*
X-77556Y37955D01*
X-77475Y37882D01*
X-77397Y37806D01*
X-77321Y37727D01*
X-77249Y37645D01*
X-77179Y37561D01*
X-77113Y37474D01*
X-77049Y37386D01*
X-76989Y37294D01*
X-76932Y37201D01*
X-76878Y37106D01*
X-76828Y37009D01*
X-76781Y36911D01*
X-76738Y36811D01*
X-76698Y36709D01*
X-76662Y36606D01*
X-76630Y36502D01*
X-76601Y36396D01*
X-76576Y36290D01*
X-76555Y36183D01*
X-76538Y36075D01*
X-76524Y35967D01*
X-76515Y35858D01*
X-76509Y35749D01*
X-76507Y35640D01*
X-79837Y32310D02*
X-88163Y38970D01*
D14*
X511100Y-204850D02*
X581100Y-204850D01*
X581100Y39750D02*
X511100Y39750D01*
X533400Y38100D02*
X533404Y37791D01*
X533415Y37482D01*
X533434Y37173D01*
X533460Y36865D01*
X533494Y36557D01*
X533535Y36251D01*
X533584Y35945D01*
X533640Y35641D01*
X533704Y35339D01*
X533775Y35038D01*
X533853Y34738D01*
X533938Y34441D01*
X534031Y34146D01*
X534131Y33853D01*
X534238Y33563D01*
X534352Y33276D01*
X534473Y32991D01*
X534601Y32709D01*
X534735Y32431D01*
X534877Y32156D01*
X535025Y31884D01*
X535180Y31617D01*
X535341Y31353D01*
X535508Y31093D01*
X535682Y30837D01*
X535862Y30585D01*
X536048Y30338D01*
X536240Y30096D01*
X536438Y29858D01*
X536641Y29625D01*
X536851Y29397D01*
X537065Y29175D01*
X537285Y28957D01*
X537511Y28745D01*
X537741Y28539D01*
X537976Y28338D01*
X538216Y28143D01*
X538461Y27954D01*
X538710Y27771D01*
X538964Y27594D01*
X539222Y27424D01*
X539484Y27259D01*
X539750Y27101D01*
X540020Y26950D01*
X540293Y26805D01*
X540570Y26667D01*
X540850Y26536D01*
X541133Y26412D01*
X541419Y26294D01*
X541708Y26184D01*
X541999Y26080D01*
X542293Y25984D01*
X542589Y25895D01*
X542888Y25813D01*
X543188Y25738D01*
X543490Y25671D01*
X543793Y25611D01*
X544098Y25559D01*
X544404Y25514D01*
X544711Y25476D01*
X545019Y25446D01*
X545327Y25424D01*
X545636Y25408D01*
X545945Y25401D01*
X546255Y25401D01*
X546564Y25408D01*
X546873Y25424D01*
X547181Y25446D01*
X547489Y25476D01*
X547796Y25514D01*
X548102Y25559D01*
X548407Y25611D01*
X548710Y25671D01*
X549012Y25738D01*
X549312Y25813D01*
X549611Y25895D01*
X549907Y25984D01*
X550201Y26080D01*
X550492Y26184D01*
X550781Y26294D01*
X551067Y26412D01*
X551350Y26536D01*
X551630Y26667D01*
X551907Y26805D01*
X552180Y26950D01*
X552450Y27101D01*
X552716Y27259D01*
X552978Y27424D01*
X553236Y27594D01*
X553490Y27771D01*
X553739Y27954D01*
X553984Y28143D01*
X554224Y28338D01*
X554459Y28539D01*
X554689Y28745D01*
X554915Y28957D01*
X555135Y29175D01*
X555349Y29397D01*
X555559Y29625D01*
X555762Y29858D01*
X555960Y30096D01*
X556152Y30338D01*
X556338Y30585D01*
X556518Y30837D01*
X556692Y31093D01*
X556859Y31353D01*
X557020Y31617D01*
X557175Y31884D01*
X557323Y32156D01*
X557465Y32431D01*
X557599Y32709D01*
X557727Y32991D01*
X557848Y33276D01*
X557962Y33563D01*
X558069Y33853D01*
X558169Y34146D01*
X558262Y34441D01*
X558347Y34738D01*
X558425Y35038D01*
X558496Y35339D01*
X558560Y35641D01*
X558616Y35945D01*
X558665Y36251D01*
X558706Y36557D01*
X558740Y36865D01*
X558766Y37173D01*
X558785Y37482D01*
X558796Y37791D01*
X558800Y38100D01*
D16*
X546100Y-67550D02*
X546100Y-97550D01*
X541100Y-82550D02*
X556100Y-82550D01*
D13*
X533292Y-93717D02*
X533290Y-93618D01*
X533284Y-93518D01*
X533275Y-93419D01*
X533262Y-93321D01*
X533245Y-93223D01*
X533224Y-93125D01*
X533199Y-93029D01*
X533171Y-92934D01*
X533139Y-92840D01*
X533104Y-92747D01*
X533065Y-92655D01*
X533022Y-92565D01*
X532977Y-92477D01*
X532927Y-92390D01*
X532875Y-92306D01*
X532819Y-92223D01*
X532761Y-92143D01*
X532699Y-92065D01*
X532634Y-91990D01*
X532566Y-91917D01*
X532496Y-91847D01*
X532423Y-91779D01*
X532348Y-91714D01*
X532270Y-91652D01*
X532190Y-91594D01*
X532107Y-91538D01*
X532023Y-91486D01*
X531936Y-91436D01*
X531848Y-91391D01*
X531758Y-91348D01*
X531666Y-91309D01*
X531573Y-91274D01*
X531479Y-91242D01*
X531384Y-91214D01*
X531288Y-91189D01*
X531190Y-91168D01*
X531092Y-91151D01*
X530994Y-91138D01*
X530895Y-91129D01*
X530795Y-91123D01*
X530696Y-91121D01*
X533292Y-93717D02*
X533290Y-93861D01*
X533284Y-94006D01*
X533275Y-94150D01*
X533262Y-94293D01*
X533245Y-94437D01*
X533224Y-94580D01*
X533199Y-94722D01*
X533171Y-94863D01*
X533139Y-95004D01*
X533103Y-95144D01*
X533064Y-95283D01*
X533021Y-95421D01*
X532974Y-95557D01*
X532924Y-95693D01*
X532870Y-95827D01*
X532813Y-95959D01*
X532752Y-96090D01*
X532688Y-96219D01*
X532620Y-96347D01*
X532549Y-96473D01*
X532475Y-96597D01*
X532398Y-96718D01*
X532317Y-96838D01*
X532234Y-96956D01*
X532147Y-97071D01*
X532057Y-97184D01*
X531964Y-97295D01*
X531869Y-97403D01*
X531770Y-97509D01*
X531669Y-97612D01*
X524204Y-97288D02*
X524105Y-97286D01*
X524005Y-97280D01*
X523906Y-97271D01*
X523808Y-97258D01*
X523710Y-97240D01*
X523612Y-97220D01*
X523516Y-97195D01*
X523420Y-97167D01*
X523326Y-97135D01*
X523233Y-97100D01*
X523142Y-97061D01*
X523052Y-97018D01*
X522963Y-96973D01*
X522877Y-96923D01*
X522792Y-96871D01*
X522710Y-96815D01*
X522630Y-96756D01*
X522552Y-96695D01*
X522476Y-96630D01*
X522403Y-96562D01*
X522333Y-96492D01*
X522265Y-96419D01*
X522200Y-96343D01*
X522139Y-96265D01*
X522080Y-96185D01*
X522024Y-96103D01*
X521972Y-96018D01*
X521923Y-95932D01*
X521877Y-95843D01*
X521834Y-95753D01*
X521795Y-95662D01*
X521760Y-95569D01*
X521728Y-95475D01*
X521700Y-95379D01*
X521675Y-95283D01*
X521655Y-95185D01*
X521637Y-95087D01*
X521624Y-94989D01*
X521615Y-94890D01*
X521609Y-94791D01*
X521607Y-94691D01*
X521608Y-94691D02*
X521610Y-94555D01*
X521616Y-94419D01*
X521625Y-94283D01*
X521638Y-94147D01*
X521656Y-94012D01*
X521676Y-93878D01*
X521701Y-93744D01*
X521729Y-93610D01*
X521762Y-93478D01*
X521797Y-93347D01*
X521837Y-93216D01*
X521880Y-93087D01*
X521926Y-92959D01*
X521977Y-92833D01*
X522030Y-92707D01*
X522088Y-92584D01*
X522148Y-92462D01*
X522212Y-92342D01*
X522280Y-92223D01*
X522350Y-92107D01*
X522424Y-91992D01*
X522501Y-91880D01*
X522582Y-91770D01*
X526476Y-95989D02*
X526423Y-96075D01*
X526366Y-96159D01*
X526307Y-96241D01*
X526244Y-96321D01*
X526178Y-96398D01*
X526110Y-96473D01*
X526038Y-96545D01*
X525964Y-96614D01*
X525887Y-96680D01*
X525808Y-96743D01*
X525726Y-96803D01*
X525642Y-96860D01*
X525556Y-96914D01*
X525468Y-96964D01*
X525378Y-97011D01*
X525287Y-97055D01*
X525193Y-97094D01*
X525099Y-97131D01*
X525003Y-97163D01*
X524905Y-97192D01*
X524807Y-97217D01*
X524708Y-97238D01*
X524608Y-97256D01*
X524508Y-97269D01*
X524407Y-97279D01*
X524305Y-97285D01*
X524204Y-97287D01*
X528424Y-92419D02*
X528477Y-92333D01*
X528534Y-92249D01*
X528593Y-92167D01*
X528656Y-92087D01*
X528722Y-92010D01*
X528790Y-91935D01*
X528862Y-91863D01*
X528936Y-91794D01*
X529013Y-91728D01*
X529092Y-91665D01*
X529174Y-91605D01*
X529258Y-91548D01*
X529344Y-91494D01*
X529432Y-91444D01*
X529522Y-91397D01*
X529613Y-91353D01*
X529707Y-91314D01*
X529801Y-91277D01*
X529897Y-91245D01*
X529995Y-91216D01*
X530093Y-91191D01*
X530192Y-91170D01*
X530292Y-91152D01*
X530392Y-91139D01*
X530493Y-91129D01*
X530595Y-91123D01*
X530696Y-91121D01*
X528424Y-92419D02*
X526476Y-95989D01*
X521608Y-86182D02*
X533292Y-86182D01*
X533292Y-79691D02*
X521608Y-86182D01*
X521608Y-79691D02*
X533292Y-79691D01*
X522906Y-74371D02*
X521608Y-74371D01*
X521608Y-67880D01*
X533292Y-71125D01*
X530696Y-62941D02*
X521608Y-60345D01*
X530696Y-62941D02*
X530696Y-56450D01*
X528099Y-58397D02*
X533292Y-58397D01*
X533292Y-51107D02*
X521608Y-51107D01*
X533292Y-51107D02*
X533292Y-45915D01*
X533292Y-38359D02*
X521608Y-42254D01*
X521608Y-34465D02*
X533292Y-38359D01*
X533292Y-27612D02*
X533292Y-25015D01*
X533292Y-27612D02*
X533290Y-27711D01*
X533284Y-27811D01*
X533275Y-27910D01*
X533262Y-28008D01*
X533245Y-28106D01*
X533224Y-28204D01*
X533199Y-28300D01*
X533171Y-28395D01*
X533139Y-28489D01*
X533104Y-28582D01*
X533065Y-28674D01*
X533022Y-28764D01*
X532977Y-28852D01*
X532927Y-28939D01*
X532875Y-29023D01*
X532819Y-29106D01*
X532761Y-29186D01*
X532699Y-29264D01*
X532634Y-29339D01*
X532566Y-29412D01*
X532496Y-29482D01*
X532423Y-29550D01*
X532348Y-29615D01*
X532270Y-29677D01*
X532190Y-29735D01*
X532107Y-29791D01*
X532023Y-29843D01*
X531936Y-29893D01*
X531848Y-29938D01*
X531758Y-29981D01*
X531666Y-30020D01*
X531573Y-30055D01*
X531479Y-30087D01*
X531384Y-30115D01*
X531288Y-30140D01*
X531190Y-30161D01*
X531092Y-30178D01*
X530994Y-30191D01*
X530895Y-30200D01*
X530795Y-30206D01*
X530696Y-30208D01*
X524204Y-30208D01*
X524204Y-30209D02*
X524105Y-30207D01*
X524005Y-30201D01*
X523906Y-30192D01*
X523808Y-30179D01*
X523710Y-30161D01*
X523612Y-30141D01*
X523516Y-30116D01*
X523420Y-30088D01*
X523326Y-30056D01*
X523233Y-30021D01*
X523142Y-29982D01*
X523052Y-29939D01*
X522963Y-29894D01*
X522877Y-29844D01*
X522792Y-29792D01*
X522710Y-29736D01*
X522630Y-29677D01*
X522552Y-29616D01*
X522476Y-29551D01*
X522403Y-29483D01*
X522333Y-29413D01*
X522265Y-29340D01*
X522200Y-29264D01*
X522139Y-29186D01*
X522080Y-29106D01*
X522024Y-29024D01*
X521972Y-28939D01*
X521923Y-28853D01*
X521877Y-28764D01*
X521834Y-28674D01*
X521795Y-28583D01*
X521760Y-28490D01*
X521728Y-28396D01*
X521700Y-28300D01*
X521675Y-28204D01*
X521655Y-28106D01*
X521637Y-28008D01*
X521624Y-27910D01*
X521615Y-27811D01*
X521609Y-27712D01*
X521607Y-27612D01*
X521608Y-27612D02*
X521608Y-25015D01*
X521608Y-17080D02*
X521610Y-16973D01*
X521616Y-16867D01*
X521626Y-16761D01*
X521639Y-16655D01*
X521657Y-16549D01*
X521678Y-16445D01*
X521703Y-16341D01*
X521732Y-16238D01*
X521764Y-16137D01*
X521801Y-16037D01*
X521841Y-15938D01*
X521884Y-15840D01*
X521931Y-15744D01*
X521982Y-15650D01*
X522036Y-15558D01*
X522093Y-15468D01*
X522153Y-15380D01*
X522217Y-15295D01*
X522284Y-15212D01*
X522354Y-15131D01*
X522426Y-15053D01*
X522502Y-14977D01*
X522580Y-14905D01*
X522661Y-14835D01*
X522744Y-14768D01*
X522829Y-14704D01*
X522917Y-14644D01*
X523007Y-14587D01*
X523099Y-14533D01*
X523193Y-14482D01*
X523289Y-14435D01*
X523387Y-14392D01*
X523486Y-14352D01*
X523586Y-14315D01*
X523687Y-14283D01*
X523790Y-14254D01*
X523894Y-14229D01*
X523998Y-14208D01*
X524104Y-14190D01*
X524210Y-14177D01*
X524316Y-14167D01*
X524422Y-14161D01*
X524529Y-14159D01*
X521608Y-17080D02*
X521610Y-17201D01*
X521616Y-17322D01*
X521626Y-17442D01*
X521639Y-17563D01*
X521657Y-17682D01*
X521678Y-17802D01*
X521703Y-17920D01*
X521732Y-18037D01*
X521765Y-18154D01*
X521801Y-18269D01*
X521842Y-18383D01*
X521885Y-18496D01*
X521933Y-18608D01*
X521984Y-18717D01*
X522039Y-18825D01*
X522097Y-18932D01*
X522158Y-19036D01*
X522223Y-19138D01*
X522291Y-19238D01*
X522362Y-19336D01*
X522436Y-19432D01*
X522513Y-19525D01*
X522594Y-19615D01*
X522677Y-19703D01*
X522763Y-19788D01*
X522852Y-19871D01*
X522943Y-19950D01*
X523037Y-20027D01*
X523133Y-20100D01*
X523231Y-20170D01*
X523332Y-20237D01*
X523435Y-20301D01*
X523540Y-20362D01*
X523647Y-20419D01*
X523755Y-20472D01*
X523865Y-20522D01*
X523977Y-20569D01*
X524090Y-20611D01*
X524205Y-20650D01*
X526801Y-15133D02*
X526723Y-15054D01*
X526643Y-14978D01*
X526560Y-14905D01*
X526474Y-14835D01*
X526387Y-14768D01*
X526296Y-14704D01*
X526204Y-14644D01*
X526110Y-14586D01*
X526013Y-14532D01*
X525915Y-14482D01*
X525815Y-14435D01*
X525714Y-14391D01*
X525611Y-14351D01*
X525506Y-14315D01*
X525401Y-14283D01*
X525294Y-14254D01*
X525187Y-14229D01*
X525078Y-14207D01*
X524969Y-14190D01*
X524860Y-14176D01*
X524750Y-14167D01*
X524639Y-14161D01*
X524529Y-14159D01*
X526801Y-15133D02*
X533292Y-20650D01*
X533292Y-14159D01*
X533292Y-9220D02*
X533292Y-5325D01*
X533290Y-5226D01*
X533284Y-5126D01*
X533275Y-5027D01*
X533262Y-4929D01*
X533245Y-4831D01*
X533224Y-4733D01*
X533199Y-4637D01*
X533171Y-4542D01*
X533139Y-4448D01*
X533104Y-4355D01*
X533065Y-4263D01*
X533022Y-4173D01*
X532977Y-4085D01*
X532927Y-3998D01*
X532875Y-3914D01*
X532819Y-3831D01*
X532761Y-3751D01*
X532699Y-3673D01*
X532634Y-3598D01*
X532566Y-3525D01*
X532496Y-3455D01*
X532423Y-3387D01*
X532348Y-3322D01*
X532270Y-3260D01*
X532190Y-3202D01*
X532107Y-3146D01*
X532023Y-3094D01*
X531936Y-3044D01*
X531848Y-2999D01*
X531758Y-2956D01*
X531666Y-2917D01*
X531573Y-2882D01*
X531479Y-2850D01*
X531384Y-2822D01*
X531288Y-2797D01*
X531190Y-2776D01*
X531092Y-2759D01*
X530994Y-2746D01*
X530895Y-2737D01*
X530795Y-2731D01*
X530696Y-2729D01*
X529397Y-2729D01*
X529298Y-2731D01*
X529198Y-2737D01*
X529099Y-2746D01*
X529001Y-2759D01*
X528903Y-2776D01*
X528805Y-2797D01*
X528709Y-2822D01*
X528614Y-2850D01*
X528520Y-2882D01*
X528427Y-2917D01*
X528335Y-2956D01*
X528245Y-2999D01*
X528157Y-3044D01*
X528070Y-3094D01*
X527986Y-3146D01*
X527903Y-3202D01*
X527823Y-3260D01*
X527745Y-3322D01*
X527670Y-3387D01*
X527597Y-3455D01*
X527527Y-3525D01*
X527459Y-3598D01*
X527394Y-3673D01*
X527332Y-3751D01*
X527274Y-3831D01*
X527218Y-3914D01*
X527166Y-3998D01*
X527116Y-4085D01*
X527071Y-4173D01*
X527028Y-4263D01*
X526989Y-4355D01*
X526954Y-4448D01*
X526922Y-4542D01*
X526894Y-4637D01*
X526869Y-4733D01*
X526848Y-4831D01*
X526831Y-4929D01*
X526818Y-5027D01*
X526809Y-5126D01*
X526803Y-5226D01*
X526801Y-5325D01*
X526801Y-9220D01*
X521608Y-9220D01*
X521608Y-2729D01*
X521608Y4806D02*
X530696Y2210D01*
X530696Y8701D01*
X528099Y6754D02*
X533292Y6754D01*
X533292Y12991D02*
X521608Y16885D01*
X533292Y20780D01*
X530371Y19806D02*
X530371Y13964D01*
X533292Y25451D02*
X521608Y25451D01*
X533292Y31942D01*
X521608Y31942D01*
D14*
X222250Y-146050D02*
X215900Y-152400D01*
X215900Y-165100D01*
X222250Y-171450D01*
X260350Y-171450D01*
X266700Y-165100D01*
X266700Y-152400D02*
X260350Y-146050D01*
X222250Y-146050D01*
X266700Y-152400D02*
X266700Y-165100D01*
D15*
X271147Y-166243D02*
X271147Y-151257D01*
X275310Y-151257D01*
X275438Y-151259D01*
X275566Y-151265D01*
X275694Y-151275D01*
X275822Y-151289D01*
X275949Y-151306D01*
X276075Y-151328D01*
X276201Y-151353D01*
X276325Y-151383D01*
X276449Y-151416D01*
X276572Y-151453D01*
X276694Y-151494D01*
X276814Y-151538D01*
X276933Y-151586D01*
X277050Y-151638D01*
X277166Y-151693D01*
X277279Y-151752D01*
X277392Y-151815D01*
X277502Y-151881D01*
X277609Y-151950D01*
X277715Y-152022D01*
X277819Y-152098D01*
X277920Y-152177D01*
X278019Y-152259D01*
X278115Y-152344D01*
X278208Y-152431D01*
X278299Y-152522D01*
X278386Y-152615D01*
X278471Y-152711D01*
X278553Y-152810D01*
X278632Y-152911D01*
X278708Y-153015D01*
X278780Y-153121D01*
X278849Y-153228D01*
X278915Y-153339D01*
X278978Y-153451D01*
X279037Y-153564D01*
X279092Y-153680D01*
X279144Y-153797D01*
X279192Y-153916D01*
X279236Y-154036D01*
X279277Y-154158D01*
X279314Y-154281D01*
X279347Y-154405D01*
X279377Y-154529D01*
X279402Y-154655D01*
X279424Y-154781D01*
X279441Y-154908D01*
X279455Y-155036D01*
X279465Y-155164D01*
X279471Y-155292D01*
X279473Y-155420D01*
X279471Y-155548D01*
X279465Y-155676D01*
X279455Y-155804D01*
X279441Y-155932D01*
X279424Y-156059D01*
X279402Y-156185D01*
X279377Y-156311D01*
X279347Y-156435D01*
X279314Y-156559D01*
X279277Y-156682D01*
X279236Y-156804D01*
X279192Y-156924D01*
X279144Y-157043D01*
X279092Y-157160D01*
X279037Y-157276D01*
X278978Y-157389D01*
X278915Y-157502D01*
X278849Y-157612D01*
X278780Y-157719D01*
X278708Y-157825D01*
X278632Y-157929D01*
X278553Y-158030D01*
X278471Y-158129D01*
X278386Y-158225D01*
X278299Y-158318D01*
X278208Y-158409D01*
X278115Y-158496D01*
X278019Y-158581D01*
X277920Y-158663D01*
X277819Y-158742D01*
X277715Y-158818D01*
X277609Y-158890D01*
X277502Y-158959D01*
X277392Y-159025D01*
X277279Y-159088D01*
X277166Y-159147D01*
X277050Y-159202D01*
X276933Y-159254D01*
X276814Y-159302D01*
X276694Y-159346D01*
X276572Y-159387D01*
X276449Y-159424D01*
X276325Y-159457D01*
X276201Y-159487D01*
X276075Y-159512D01*
X275949Y-159534D01*
X275822Y-159551D01*
X275694Y-159565D01*
X275566Y-159575D01*
X275438Y-159581D01*
X275310Y-159583D01*
X271147Y-159583D01*
X276142Y-159583D02*
X279473Y-166243D01*
X291114Y-166243D02*
X291228Y-166241D01*
X291341Y-166235D01*
X291455Y-166226D01*
X291567Y-166212D01*
X291680Y-166195D01*
X291792Y-166173D01*
X291902Y-166148D01*
X292012Y-166120D01*
X292121Y-166087D01*
X292229Y-166051D01*
X292336Y-166011D01*
X292441Y-165967D01*
X292544Y-165920D01*
X292646Y-165870D01*
X292746Y-165816D01*
X292844Y-165758D01*
X292940Y-165697D01*
X293034Y-165634D01*
X293126Y-165566D01*
X293216Y-165496D01*
X293302Y-165423D01*
X293387Y-165347D01*
X293469Y-165268D01*
X293548Y-165186D01*
X293624Y-165101D01*
X293697Y-165015D01*
X293767Y-164925D01*
X293835Y-164833D01*
X293898Y-164739D01*
X293959Y-164643D01*
X294017Y-164545D01*
X294071Y-164445D01*
X294121Y-164343D01*
X294168Y-164240D01*
X294212Y-164135D01*
X294252Y-164028D01*
X294288Y-163920D01*
X294321Y-163811D01*
X294349Y-163701D01*
X294374Y-163591D01*
X294396Y-163479D01*
X294413Y-163366D01*
X294427Y-163254D01*
X294436Y-163140D01*
X294442Y-163027D01*
X294444Y-162913D01*
X291114Y-166243D02*
X290946Y-166241D01*
X290777Y-166235D01*
X290609Y-166225D01*
X290442Y-166211D01*
X290274Y-166193D01*
X290108Y-166171D01*
X289941Y-166145D01*
X289776Y-166115D01*
X289611Y-166081D01*
X289447Y-166043D01*
X289284Y-166001D01*
X289122Y-165955D01*
X288961Y-165905D01*
X288801Y-165852D01*
X288643Y-165795D01*
X288486Y-165734D01*
X288331Y-165669D01*
X288177Y-165601D01*
X288025Y-165528D01*
X287875Y-165453D01*
X287726Y-165373D01*
X287580Y-165291D01*
X287435Y-165204D01*
X287293Y-165115D01*
X287152Y-165022D01*
X287014Y-164925D01*
X286879Y-164825D01*
X286746Y-164722D01*
X286615Y-164616D01*
X286487Y-164507D01*
X286361Y-164395D01*
X286239Y-164280D01*
X286119Y-164162D01*
X286536Y-154587D02*
X286538Y-154473D01*
X286544Y-154360D01*
X286553Y-154246D01*
X286567Y-154134D01*
X286584Y-154021D01*
X286606Y-153909D01*
X286631Y-153799D01*
X286659Y-153689D01*
X286692Y-153580D01*
X286728Y-153472D01*
X286768Y-153365D01*
X286812Y-153260D01*
X286859Y-153157D01*
X286909Y-153055D01*
X286963Y-152955D01*
X287021Y-152857D01*
X287082Y-152761D01*
X287145Y-152667D01*
X287213Y-152575D01*
X287283Y-152485D01*
X287356Y-152399D01*
X287432Y-152314D01*
X287511Y-152232D01*
X287593Y-152153D01*
X287678Y-152077D01*
X287764Y-152004D01*
X287854Y-151934D01*
X287946Y-151866D01*
X288040Y-151803D01*
X288136Y-151742D01*
X288234Y-151684D01*
X288334Y-151630D01*
X288436Y-151580D01*
X288539Y-151533D01*
X288644Y-151489D01*
X288751Y-151449D01*
X288859Y-151413D01*
X288968Y-151380D01*
X289078Y-151352D01*
X289188Y-151327D01*
X289300Y-151305D01*
X289413Y-151288D01*
X289525Y-151274D01*
X289639Y-151265D01*
X289752Y-151259D01*
X289866Y-151257D01*
X290021Y-151259D01*
X290175Y-151265D01*
X290329Y-151274D01*
X290483Y-151288D01*
X290637Y-151305D01*
X290790Y-151326D01*
X290942Y-151350D01*
X291094Y-151379D01*
X291245Y-151411D01*
X291396Y-151447D01*
X291545Y-151487D01*
X291693Y-151530D01*
X291841Y-151577D01*
X291987Y-151628D01*
X292131Y-151682D01*
X292275Y-151740D01*
X292416Y-151802D01*
X292557Y-151866D01*
X292695Y-151935D01*
X292832Y-152006D01*
X292967Y-152082D01*
X293100Y-152160D01*
X293232Y-152242D01*
X293361Y-152327D01*
X293488Y-152415D01*
X293612Y-152506D01*
X288201Y-157501D02*
X288104Y-157442D01*
X288010Y-157379D01*
X287917Y-157314D01*
X287827Y-157245D01*
X287739Y-157174D01*
X287654Y-157099D01*
X287571Y-157022D01*
X287491Y-156942D01*
X287413Y-156860D01*
X287339Y-156774D01*
X287267Y-156687D01*
X287198Y-156597D01*
X287132Y-156505D01*
X287070Y-156410D01*
X287010Y-156314D01*
X286954Y-156216D01*
X286901Y-156115D01*
X286852Y-156013D01*
X286806Y-155910D01*
X286763Y-155805D01*
X286724Y-155699D01*
X286688Y-155591D01*
X286657Y-155482D01*
X286629Y-155373D01*
X286604Y-155262D01*
X286583Y-155151D01*
X286566Y-155039D01*
X286553Y-154926D01*
X286544Y-154813D01*
X286538Y-154700D01*
X286536Y-154587D01*
X292779Y-159999D02*
X292876Y-160058D01*
X292970Y-160121D01*
X293063Y-160186D01*
X293153Y-160255D01*
X293241Y-160326D01*
X293326Y-160401D01*
X293409Y-160478D01*
X293489Y-160558D01*
X293567Y-160640D01*
X293641Y-160726D01*
X293713Y-160813D01*
X293782Y-160903D01*
X293848Y-160995D01*
X293910Y-161090D01*
X293970Y-161186D01*
X294026Y-161284D01*
X294079Y-161385D01*
X294128Y-161487D01*
X294175Y-161590D01*
X294217Y-161695D01*
X294256Y-161801D01*
X294292Y-161909D01*
X294323Y-162018D01*
X294351Y-162127D01*
X294376Y-162238D01*
X294397Y-162349D01*
X294414Y-162461D01*
X294427Y-162574D01*
X294436Y-162687D01*
X294442Y-162800D01*
X294444Y-162913D01*
X292780Y-159999D02*
X288201Y-157501D01*
X304350Y-151257D02*
X304350Y-166243D01*
X300187Y-151257D02*
X308513Y-151257D01*
D12*
X-217000Y-106000D02*
X-217000Y4000D01*
X-62000Y4000D02*
X-62000Y-106000D01*
X-62000Y4000D02*
X-122000Y4000D01*
X-217000Y4000D01*
X-122000Y-106000D02*
X-62000Y-106000D01*
X-122000Y-106000D02*
X-217000Y-106000D01*
X-122000Y-106000D02*
X-122000Y4000D01*
D10*
X-108274Y-51000D02*
X-108269Y-50557D01*
X-108252Y-50115D01*
X-108225Y-49673D01*
X-108187Y-49232D01*
X-108138Y-48792D01*
X-108079Y-48354D01*
X-108008Y-47917D01*
X-107927Y-47482D01*
X-107836Y-47049D01*
X-107734Y-46618D01*
X-107621Y-46190D01*
X-107497Y-45765D01*
X-107364Y-45343D01*
X-107220Y-44925D01*
X-107066Y-44510D01*
X-106901Y-44099D01*
X-106727Y-43692D01*
X-106543Y-43289D01*
X-106348Y-42892D01*
X-106145Y-42499D01*
X-105931Y-42111D01*
X-105708Y-41729D01*
X-105476Y-41352D01*
X-105235Y-40981D01*
X-104984Y-40616D01*
X-104725Y-40257D01*
X-104457Y-39905D01*
X-104180Y-39559D01*
X-103896Y-39221D01*
X-103602Y-38889D01*
X-103301Y-38565D01*
X-102992Y-38248D01*
X-102675Y-37939D01*
X-102351Y-37638D01*
X-102019Y-37344D01*
X-101681Y-37060D01*
X-101335Y-36783D01*
X-100983Y-36515D01*
X-100624Y-36256D01*
X-100259Y-36005D01*
X-99888Y-35764D01*
X-99511Y-35532D01*
X-99129Y-35309D01*
X-98741Y-35095D01*
X-98348Y-34892D01*
X-97951Y-34697D01*
X-97548Y-34513D01*
X-97141Y-34339D01*
X-96730Y-34174D01*
X-96315Y-34020D01*
X-95897Y-33876D01*
X-95475Y-33743D01*
X-95050Y-33619D01*
X-94622Y-33506D01*
X-94191Y-33404D01*
X-93758Y-33313D01*
X-93323Y-33232D01*
X-92886Y-33161D01*
X-92448Y-33102D01*
X-92008Y-33053D01*
X-91567Y-33015D01*
X-91125Y-32988D01*
X-90683Y-32971D01*
X-90240Y-32966D01*
X-89797Y-32971D01*
X-89355Y-32988D01*
X-88913Y-33015D01*
X-88472Y-33053D01*
X-88032Y-33102D01*
X-87594Y-33161D01*
X-87157Y-33232D01*
X-86722Y-33313D01*
X-86289Y-33404D01*
X-85858Y-33506D01*
X-85430Y-33619D01*
X-85005Y-33743D01*
X-84583Y-33876D01*
X-84165Y-34020D01*
X-83750Y-34174D01*
X-83339Y-34339D01*
X-82932Y-34513D01*
X-82529Y-34697D01*
X-82132Y-34892D01*
X-81739Y-35095D01*
X-81351Y-35309D01*
X-80969Y-35532D01*
X-80592Y-35764D01*
X-80221Y-36005D01*
X-79856Y-36256D01*
X-79497Y-36515D01*
X-79145Y-36783D01*
X-78799Y-37060D01*
X-78461Y-37344D01*
X-78129Y-37638D01*
X-77805Y-37939D01*
X-77488Y-38248D01*
X-77179Y-38565D01*
X-76878Y-38889D01*
X-76584Y-39221D01*
X-76300Y-39559D01*
X-76023Y-39905D01*
X-75755Y-40257D01*
X-75496Y-40616D01*
X-75245Y-40981D01*
X-75004Y-41352D01*
X-74772Y-41729D01*
X-74549Y-42111D01*
X-74335Y-42499D01*
X-74132Y-42892D01*
X-73937Y-43289D01*
X-73753Y-43692D01*
X-73579Y-44099D01*
X-73414Y-44510D01*
X-73260Y-44925D01*
X-73116Y-45343D01*
X-72983Y-45765D01*
X-72859Y-46190D01*
X-72746Y-46618D01*
X-72644Y-47049D01*
X-72553Y-47482D01*
X-72472Y-47917D01*
X-72401Y-48354D01*
X-72342Y-48792D01*
X-72293Y-49232D01*
X-72255Y-49673D01*
X-72228Y-50115D01*
X-72211Y-50557D01*
X-72206Y-51000D01*
X-72211Y-51443D01*
X-72228Y-51885D01*
X-72255Y-52327D01*
X-72293Y-52768D01*
X-72342Y-53208D01*
X-72401Y-53646D01*
X-72472Y-54083D01*
X-72553Y-54518D01*
X-72644Y-54951D01*
X-72746Y-55382D01*
X-72859Y-55810D01*
X-72983Y-56235D01*
X-73116Y-56657D01*
X-73260Y-57075D01*
X-73414Y-57490D01*
X-73579Y-57901D01*
X-73753Y-58308D01*
X-73937Y-58711D01*
X-74132Y-59108D01*
X-74335Y-59501D01*
X-74549Y-59889D01*
X-74772Y-60271D01*
X-75004Y-60648D01*
X-75245Y-61019D01*
X-75496Y-61384D01*
X-75755Y-61743D01*
X-76023Y-62095D01*
X-76300Y-62441D01*
X-76584Y-62779D01*
X-76878Y-63111D01*
X-77179Y-63435D01*
X-77488Y-63752D01*
X-77805Y-64061D01*
X-78129Y-64362D01*
X-78461Y-64656D01*
X-78799Y-64940D01*
X-79145Y-65217D01*
X-79497Y-65485D01*
X-79856Y-65744D01*
X-80221Y-65995D01*
X-80592Y-66236D01*
X-80969Y-66468D01*
X-81351Y-66691D01*
X-81739Y-66905D01*
X-82132Y-67108D01*
X-82529Y-67303D01*
X-82932Y-67487D01*
X-83339Y-67661D01*
X-83750Y-67826D01*
X-84165Y-67980D01*
X-84583Y-68124D01*
X-85005Y-68257D01*
X-85430Y-68381D01*
X-85858Y-68494D01*
X-86289Y-68596D01*
X-86722Y-68687D01*
X-87157Y-68768D01*
X-87594Y-68839D01*
X-88032Y-68898D01*
X-88472Y-68947D01*
X-88913Y-68985D01*
X-89355Y-69012D01*
X-89797Y-69029D01*
X-90240Y-69034D01*
X-90683Y-69029D01*
X-91125Y-69012D01*
X-91567Y-68985D01*
X-92008Y-68947D01*
X-92448Y-68898D01*
X-92886Y-68839D01*
X-93323Y-68768D01*
X-93758Y-68687D01*
X-94191Y-68596D01*
X-94622Y-68494D01*
X-95050Y-68381D01*
X-95475Y-68257D01*
X-95897Y-68124D01*
X-96315Y-67980D01*
X-96730Y-67826D01*
X-97141Y-67661D01*
X-97548Y-67487D01*
X-97951Y-67303D01*
X-98348Y-67108D01*
X-98741Y-66905D01*
X-99129Y-66691D01*
X-99511Y-66468D01*
X-99888Y-66236D01*
X-100259Y-65995D01*
X-100624Y-65744D01*
X-100983Y-65485D01*
X-101335Y-65217D01*
X-101681Y-64940D01*
X-102019Y-64656D01*
X-102351Y-64362D01*
X-102675Y-64061D01*
X-102992Y-63752D01*
X-103301Y-63435D01*
X-103602Y-63111D01*
X-103896Y-62779D01*
X-104180Y-62441D01*
X-104457Y-62095D01*
X-104725Y-61743D01*
X-104984Y-61384D01*
X-105235Y-61019D01*
X-105476Y-60648D01*
X-105708Y-60271D01*
X-105931Y-59889D01*
X-106145Y-59501D01*
X-106348Y-59108D01*
X-106543Y-58711D01*
X-106727Y-58308D01*
X-106901Y-57901D01*
X-107066Y-57490D01*
X-107220Y-57075D01*
X-107364Y-56657D01*
X-107497Y-56235D01*
X-107621Y-55810D01*
X-107734Y-55382D01*
X-107836Y-54951D01*
X-107927Y-54518D01*
X-108008Y-54083D01*
X-108079Y-53646D01*
X-108138Y-53208D01*
X-108187Y-52768D01*
X-108225Y-52327D01*
X-108252Y-51885D01*
X-108269Y-51443D01*
X-108274Y-51000D01*
D17*
X-234111Y-62689D02*
X-234111Y-74246D01*
X-234109Y-74378D01*
X-234103Y-74509D01*
X-234093Y-74641D01*
X-234080Y-74772D01*
X-234062Y-74902D01*
X-234041Y-75032D01*
X-234016Y-75162D01*
X-233987Y-75290D01*
X-233954Y-75418D01*
X-233917Y-75544D01*
X-233877Y-75670D01*
X-233833Y-75794D01*
X-233785Y-75917D01*
X-233734Y-76038D01*
X-233679Y-76158D01*
X-233621Y-76276D01*
X-233559Y-76392D01*
X-233493Y-76506D01*
X-233425Y-76619D01*
X-233353Y-76729D01*
X-233278Y-76837D01*
X-233199Y-76943D01*
X-233118Y-77047D01*
X-233033Y-77148D01*
X-232946Y-77246D01*
X-232855Y-77342D01*
X-232762Y-77435D01*
X-232666Y-77526D01*
X-232568Y-77613D01*
X-232467Y-77698D01*
X-232363Y-77779D01*
X-232257Y-77858D01*
X-232149Y-77933D01*
X-232039Y-78005D01*
X-231926Y-78073D01*
X-231812Y-78139D01*
X-231696Y-78201D01*
X-231578Y-78259D01*
X-231458Y-78314D01*
X-231337Y-78365D01*
X-231214Y-78413D01*
X-231090Y-78457D01*
X-230964Y-78497D01*
X-230838Y-78534D01*
X-230710Y-78567D01*
X-230582Y-78596D01*
X-230452Y-78621D01*
X-230322Y-78642D01*
X-230192Y-78660D01*
X-230061Y-78673D01*
X-229929Y-78683D01*
X-229798Y-78689D01*
X-229666Y-78691D01*
X-229534Y-78689D01*
X-229403Y-78683D01*
X-229271Y-78673D01*
X-229140Y-78660D01*
X-229010Y-78642D01*
X-228880Y-78621D01*
X-228750Y-78596D01*
X-228622Y-78567D01*
X-228494Y-78534D01*
X-228368Y-78497D01*
X-228242Y-78457D01*
X-228118Y-78413D01*
X-227995Y-78365D01*
X-227874Y-78314D01*
X-227754Y-78259D01*
X-227636Y-78201D01*
X-227520Y-78139D01*
X-227406Y-78073D01*
X-227293Y-78005D01*
X-227183Y-77933D01*
X-227075Y-77858D01*
X-226969Y-77779D01*
X-226865Y-77698D01*
X-226764Y-77613D01*
X-226666Y-77526D01*
X-226570Y-77435D01*
X-226477Y-77342D01*
X-226386Y-77246D01*
X-226299Y-77148D01*
X-226214Y-77047D01*
X-226133Y-76943D01*
X-226054Y-76837D01*
X-225979Y-76729D01*
X-225907Y-76619D01*
X-225839Y-76506D01*
X-225773Y-76392D01*
X-225711Y-76276D01*
X-225653Y-76158D01*
X-225598Y-76038D01*
X-225547Y-75917D01*
X-225499Y-75794D01*
X-225455Y-75670D01*
X-225415Y-75544D01*
X-225378Y-75418D01*
X-225345Y-75290D01*
X-225316Y-75162D01*
X-225291Y-75032D01*
X-225270Y-74902D01*
X-225252Y-74772D01*
X-225239Y-74641D01*
X-225229Y-74509D01*
X-225223Y-74378D01*
X-225221Y-74246D01*
X-225221Y-62689D01*
X-214556Y-62689D02*
X-214556Y-78691D01*
X-214556Y-70690D02*
X-216778Y-69357D01*
X-216865Y-69302D01*
X-216949Y-69245D01*
X-217031Y-69184D01*
X-217111Y-69120D01*
X-217188Y-69054D01*
X-217263Y-68984D01*
X-217335Y-68912D01*
X-217403Y-68836D01*
X-217470Y-68759D01*
X-217533Y-68678D01*
X-217592Y-68596D01*
X-217649Y-68511D01*
X-217702Y-68424D01*
X-217752Y-68335D01*
X-217799Y-68244D01*
X-217842Y-68151D01*
X-217881Y-68057D01*
X-217917Y-67962D01*
X-217949Y-67865D01*
X-217977Y-67767D01*
X-218002Y-67668D01*
X-218023Y-67568D01*
X-218039Y-67467D01*
X-218052Y-67366D01*
X-218062Y-67264D01*
X-218067Y-67163D01*
X-218068Y-67061D01*
X-218065Y-66959D01*
X-218059Y-66857D01*
X-218048Y-66755D01*
X-218034Y-66654D01*
X-218016Y-66554D01*
X-217993Y-66454D01*
X-217968Y-66355D01*
X-217938Y-66258D01*
X-217904Y-66161D01*
X-217867Y-66066D01*
X-217827Y-65973D01*
X-217782Y-65881D01*
X-217735Y-65791D01*
X-217683Y-65702D01*
X-217629Y-65616D01*
X-217571Y-65532D01*
X-217510Y-65450D01*
X-217446Y-65371D01*
X-217379Y-65294D01*
X-217309Y-65220D01*
X-217236Y-65148D01*
X-217161Y-65080D01*
X-217082Y-65014D01*
X-217002Y-64951D01*
X-216919Y-64892D01*
X-216834Y-64836D01*
X-216747Y-64783D01*
X-216657Y-64733D01*
X-216566Y-64687D01*
X-216474Y-64644D01*
X-216379Y-64605D01*
X-216284Y-64570D01*
X-216187Y-64538D01*
X-216089Y-64511D01*
X-215989Y-64487D01*
X-215889Y-64466D01*
X-215889Y-64467D02*
X-215722Y-64438D01*
X-215554Y-64414D01*
X-215386Y-64393D01*
X-215218Y-64377D01*
X-215049Y-64365D01*
X-214880Y-64357D01*
X-214711Y-64353D01*
X-214541Y-64352D01*
X-214372Y-64356D01*
X-214203Y-64365D01*
X-214034Y-64377D01*
X-213866Y-64393D01*
X-213698Y-64413D01*
X-213530Y-64437D01*
X-213363Y-64466D01*
X-213197Y-64498D01*
X-213032Y-64534D01*
X-212867Y-64574D01*
X-212704Y-64619D01*
X-212541Y-64667D01*
X-212380Y-64719D01*
X-212220Y-64774D01*
X-212062Y-64834D01*
X-211905Y-64898D01*
X-211750Y-64965D01*
X-211596Y-65036D01*
X-211444Y-65110D01*
X-211294Y-65189D01*
X-211146Y-65270D01*
X-210999Y-65356D01*
X-214556Y-70690D02*
X-212333Y-72024D01*
X-212334Y-72023D02*
X-212247Y-72078D01*
X-212163Y-72135D01*
X-212081Y-72196D01*
X-212001Y-72260D01*
X-211924Y-72326D01*
X-211849Y-72396D01*
X-211777Y-72468D01*
X-211709Y-72544D01*
X-211642Y-72621D01*
X-211579Y-72702D01*
X-211520Y-72784D01*
X-211463Y-72869D01*
X-211410Y-72956D01*
X-211360Y-73045D01*
X-211313Y-73136D01*
X-211270Y-73229D01*
X-211231Y-73323D01*
X-211195Y-73418D01*
X-211163Y-73515D01*
X-211135Y-73613D01*
X-211110Y-73712D01*
X-211089Y-73812D01*
X-211073Y-73913D01*
X-211060Y-74014D01*
X-211050Y-74116D01*
X-211045Y-74217D01*
X-211044Y-74319D01*
X-211047Y-74421D01*
X-211053Y-74523D01*
X-211064Y-74625D01*
X-211078Y-74726D01*
X-211096Y-74826D01*
X-211119Y-74926D01*
X-211144Y-75025D01*
X-211174Y-75122D01*
X-211208Y-75219D01*
X-211245Y-75314D01*
X-211285Y-75407D01*
X-211330Y-75499D01*
X-211377Y-75589D01*
X-211429Y-75678D01*
X-211483Y-75764D01*
X-211541Y-75848D01*
X-211602Y-75930D01*
X-211666Y-76009D01*
X-211733Y-76086D01*
X-211803Y-76160D01*
X-211876Y-76232D01*
X-211951Y-76300D01*
X-212030Y-76366D01*
X-212110Y-76429D01*
X-212193Y-76488D01*
X-212278Y-76544D01*
X-212365Y-76597D01*
X-212455Y-76647D01*
X-212546Y-76693D01*
X-212638Y-76736D01*
X-212733Y-76775D01*
X-212828Y-76810D01*
X-212925Y-76842D01*
X-213023Y-76869D01*
X-213123Y-76893D01*
X-213223Y-76914D01*
X-213222Y-76913D02*
X-213389Y-76942D01*
X-213557Y-76966D01*
X-213725Y-76987D01*
X-213893Y-77003D01*
X-214062Y-77015D01*
X-214231Y-77023D01*
X-214400Y-77027D01*
X-214570Y-77028D01*
X-214739Y-77024D01*
X-214908Y-77015D01*
X-215077Y-77003D01*
X-215245Y-76987D01*
X-215413Y-76967D01*
X-215581Y-76943D01*
X-215748Y-76914D01*
X-215914Y-76882D01*
X-216079Y-76846D01*
X-216244Y-76806D01*
X-216407Y-76761D01*
X-216570Y-76713D01*
X-216731Y-76661D01*
X-216891Y-76606D01*
X-217049Y-76546D01*
X-217206Y-76482D01*
X-217361Y-76415D01*
X-217515Y-76344D01*
X-217667Y-76270D01*
X-217817Y-76191D01*
X-217965Y-76110D01*
X-218112Y-76024D01*
X-204412Y-66245D02*
X-199967Y-62689D01*
X-199967Y-78691D01*
X-204412Y-78691D02*
X-195522Y-78691D01*
X-179890Y-66690D02*
X-179892Y-66564D01*
X-179898Y-66439D01*
X-179908Y-66313D01*
X-179922Y-66189D01*
X-179939Y-66064D01*
X-179961Y-65940D01*
X-179986Y-65817D01*
X-180016Y-65695D01*
X-180049Y-65574D01*
X-180086Y-65454D01*
X-180127Y-65335D01*
X-180171Y-65217D01*
X-180219Y-65101D01*
X-180271Y-64986D01*
X-180326Y-64874D01*
X-180385Y-64763D01*
X-180447Y-64653D01*
X-180513Y-64546D01*
X-180582Y-64441D01*
X-180654Y-64338D01*
X-180730Y-64238D01*
X-180808Y-64140D01*
X-180890Y-64044D01*
X-180974Y-63951D01*
X-181062Y-63861D01*
X-181152Y-63773D01*
X-181245Y-63689D01*
X-181341Y-63607D01*
X-181439Y-63529D01*
X-181539Y-63453D01*
X-181642Y-63381D01*
X-181747Y-63312D01*
X-181854Y-63246D01*
X-181964Y-63184D01*
X-182075Y-63125D01*
X-182187Y-63070D01*
X-182302Y-63018D01*
X-182418Y-62970D01*
X-182536Y-62926D01*
X-182655Y-62885D01*
X-182775Y-62848D01*
X-182896Y-62815D01*
X-183018Y-62785D01*
X-183141Y-62760D01*
X-183265Y-62738D01*
X-183390Y-62721D01*
X-183514Y-62707D01*
X-183640Y-62697D01*
X-183765Y-62691D01*
X-183891Y-62689D01*
X-184032Y-62691D01*
X-184172Y-62697D01*
X-184312Y-62706D01*
X-184452Y-62720D01*
X-184591Y-62737D01*
X-184730Y-62758D01*
X-184869Y-62783D01*
X-185006Y-62811D01*
X-185143Y-62844D01*
X-185279Y-62880D01*
X-185414Y-62920D01*
X-185547Y-62963D01*
X-185680Y-63010D01*
X-185811Y-63061D01*
X-185940Y-63115D01*
X-186068Y-63173D01*
X-186195Y-63234D01*
X-186320Y-63299D01*
X-186442Y-63367D01*
X-186563Y-63438D01*
X-186683Y-63513D01*
X-186799Y-63591D01*
X-186914Y-63672D01*
X-187027Y-63756D01*
X-187137Y-63844D01*
X-187245Y-63934D01*
X-187350Y-64027D01*
X-187452Y-64123D01*
X-187552Y-64222D01*
X-187650Y-64323D01*
X-187744Y-64427D01*
X-187836Y-64534D01*
X-187924Y-64643D01*
X-188010Y-64754D01*
X-188092Y-64868D01*
X-188172Y-64984D01*
X-188248Y-65102D01*
X-188321Y-65222D01*
X-188390Y-65344D01*
X-188457Y-65468D01*
X-188520Y-65594D01*
X-188579Y-65721D01*
X-188635Y-65850D01*
X-188687Y-65980D01*
X-188736Y-66112D01*
X-188781Y-66245D01*
X-181224Y-69802D02*
X-181132Y-69711D01*
X-181042Y-69618D01*
X-180956Y-69523D01*
X-180872Y-69425D01*
X-180792Y-69324D01*
X-180714Y-69221D01*
X-180640Y-69116D01*
X-180569Y-69008D01*
X-180501Y-68899D01*
X-180437Y-68787D01*
X-180375Y-68674D01*
X-180318Y-68559D01*
X-180263Y-68442D01*
X-180212Y-68323D01*
X-180165Y-68203D01*
X-180122Y-68082D01*
X-180082Y-67960D01*
X-180046Y-67836D01*
X-180013Y-67711D01*
X-179984Y-67586D01*
X-179959Y-67459D01*
X-179938Y-67332D01*
X-179921Y-67204D01*
X-179907Y-67076D01*
X-179898Y-66948D01*
X-179892Y-66819D01*
X-179890Y-66690D01*
X-181224Y-69801D02*
X-188780Y-78691D01*
X-179890Y-78691D01*
D14*
X137000Y63000D02*
X145000Y63000D01*
X165000Y63000D02*
X253000Y63000D01*
X253140Y62998D01*
X253280Y62992D01*
X253420Y62982D01*
X253560Y62969D01*
X253699Y62951D01*
X253838Y62929D01*
X253975Y62904D01*
X254113Y62875D01*
X254249Y62842D01*
X254384Y62805D01*
X254518Y62764D01*
X254651Y62719D01*
X254783Y62671D01*
X254913Y62619D01*
X255042Y62564D01*
X255169Y62505D01*
X255295Y62442D01*
X255419Y62376D01*
X255540Y62307D01*
X255660Y62234D01*
X255778Y62157D01*
X255893Y62078D01*
X256007Y61995D01*
X256117Y61909D01*
X256226Y61820D01*
X256332Y61728D01*
X256435Y61633D01*
X256536Y61536D01*
X256633Y61435D01*
X256728Y61332D01*
X256820Y61226D01*
X256909Y61117D01*
X256995Y61007D01*
X257078Y60893D01*
X257157Y60778D01*
X257234Y60660D01*
X257307Y60540D01*
X257376Y60419D01*
X257442Y60295D01*
X257505Y60169D01*
X257564Y60042D01*
X257619Y59913D01*
X257671Y59783D01*
X257719Y59651D01*
X257764Y59518D01*
X257805Y59384D01*
X257842Y59249D01*
X257875Y59113D01*
X257904Y58975D01*
X257929Y58838D01*
X257951Y58699D01*
X257969Y58560D01*
X257982Y58420D01*
X257992Y58280D01*
X257998Y58140D01*
X258000Y58000D01*
X258000Y-16000D02*
X257998Y-16140D01*
X257992Y-16280D01*
X257982Y-16420D01*
X257969Y-16560D01*
X257951Y-16699D01*
X257929Y-16838D01*
X257904Y-16975D01*
X257875Y-17113D01*
X257842Y-17249D01*
X257805Y-17384D01*
X257764Y-17518D01*
X257719Y-17651D01*
X257671Y-17783D01*
X257619Y-17913D01*
X257564Y-18042D01*
X257505Y-18169D01*
X257442Y-18295D01*
X257376Y-18419D01*
X257307Y-18540D01*
X257234Y-18660D01*
X257157Y-18778D01*
X257078Y-18893D01*
X256995Y-19007D01*
X256909Y-19117D01*
X256820Y-19226D01*
X256728Y-19332D01*
X256633Y-19435D01*
X256536Y-19536D01*
X256435Y-19633D01*
X256332Y-19728D01*
X256226Y-19820D01*
X256117Y-19909D01*
X256007Y-19995D01*
X255893Y-20078D01*
X255778Y-20157D01*
X255660Y-20234D01*
X255540Y-20307D01*
X255419Y-20376D01*
X255295Y-20442D01*
X255169Y-20505D01*
X255042Y-20564D01*
X254913Y-20619D01*
X254783Y-20671D01*
X254651Y-20719D01*
X254518Y-20764D01*
X254384Y-20805D01*
X254249Y-20842D01*
X254113Y-20875D01*
X253975Y-20904D01*
X253838Y-20929D01*
X253699Y-20951D01*
X253560Y-20969D01*
X253420Y-20982D01*
X253280Y-20992D01*
X253140Y-20998D01*
X253000Y-21000D01*
X165000Y-21000D01*
X145000Y-21000D02*
X137000Y-21000D01*
X145000Y63000D02*
X145125Y62758D01*
X145255Y62520D01*
X145392Y62284D01*
X145534Y62052D01*
X145681Y61824D01*
X145834Y61599D01*
X145993Y61377D01*
X146156Y61160D01*
X146325Y60947D01*
X146500Y60738D01*
X146679Y60533D01*
X146863Y60333D01*
X147052Y60138D01*
X147245Y59946D01*
X147444Y59760D01*
X147646Y59579D01*
X147853Y59402D01*
X148065Y59231D01*
X148280Y59065D01*
X148500Y58904D01*
X148723Y58749D01*
X148950Y58599D01*
X149180Y58454D01*
X149414Y58315D01*
X149652Y58182D01*
X149892Y58055D01*
X150135Y57934D01*
X150382Y57818D01*
X150631Y57709D01*
X150883Y57606D01*
X151137Y57509D01*
X151393Y57418D01*
X151652Y57333D01*
X151912Y57255D01*
X152175Y57183D01*
X152439Y57117D01*
X152704Y57058D01*
X152971Y57006D01*
X153239Y56960D01*
X153508Y56920D01*
X153778Y56887D01*
X154049Y56861D01*
X154320Y56841D01*
X154592Y56827D01*
X154864Y56821D01*
X155136Y56821D01*
X155408Y56827D01*
X155680Y56841D01*
X155951Y56861D01*
X156222Y56887D01*
X156492Y56920D01*
X156761Y56960D01*
X157029Y57006D01*
X157296Y57058D01*
X157561Y57117D01*
X157825Y57183D01*
X158088Y57255D01*
X158348Y57333D01*
X158607Y57418D01*
X158863Y57509D01*
X159117Y57606D01*
X159369Y57709D01*
X159618Y57818D01*
X159865Y57934D01*
X160108Y58055D01*
X160348Y58182D01*
X160586Y58315D01*
X160820Y58454D01*
X161050Y58599D01*
X161277Y58749D01*
X161500Y58904D01*
X161720Y59065D01*
X161935Y59231D01*
X162147Y59402D01*
X162354Y59579D01*
X162556Y59760D01*
X162755Y59946D01*
X162948Y60138D01*
X163137Y60333D01*
X163321Y60533D01*
X163500Y60738D01*
X163675Y60947D01*
X163844Y61160D01*
X164007Y61377D01*
X164166Y61599D01*
X164319Y61824D01*
X164466Y62052D01*
X164608Y62284D01*
X164745Y62520D01*
X164875Y62758D01*
X165000Y63000D01*
X165000Y-21000D02*
X164875Y-20758D01*
X164745Y-20520D01*
X164608Y-20284D01*
X164466Y-20052D01*
X164319Y-19824D01*
X164166Y-19599D01*
X164007Y-19377D01*
X163844Y-19160D01*
X163675Y-18947D01*
X163500Y-18738D01*
X163321Y-18533D01*
X163137Y-18333D01*
X162948Y-18138D01*
X162755Y-17946D01*
X162556Y-17760D01*
X162354Y-17579D01*
X162147Y-17402D01*
X161935Y-17231D01*
X161720Y-17065D01*
X161500Y-16904D01*
X161277Y-16749D01*
X161050Y-16599D01*
X160820Y-16454D01*
X160586Y-16315D01*
X160348Y-16182D01*
X160108Y-16055D01*
X159865Y-15934D01*
X159618Y-15818D01*
X159369Y-15709D01*
X159117Y-15606D01*
X158863Y-15509D01*
X158607Y-15418D01*
X158348Y-15333D01*
X158088Y-15255D01*
X157825Y-15183D01*
X157561Y-15117D01*
X157296Y-15058D01*
X157029Y-15006D01*
X156761Y-14960D01*
X156492Y-14920D01*
X156222Y-14887D01*
X155951Y-14861D01*
X155680Y-14841D01*
X155408Y-14827D01*
X155136Y-14821D01*
X154864Y-14821D01*
X154592Y-14827D01*
X154320Y-14841D01*
X154049Y-14861D01*
X153778Y-14887D01*
X153508Y-14920D01*
X153239Y-14960D01*
X152971Y-15006D01*
X152704Y-15058D01*
X152439Y-15117D01*
X152175Y-15183D01*
X151912Y-15255D01*
X151652Y-15333D01*
X151393Y-15418D01*
X151137Y-15509D01*
X150883Y-15606D01*
X150631Y-15709D01*
X150382Y-15818D01*
X150135Y-15934D01*
X149892Y-16055D01*
X149652Y-16182D01*
X149414Y-16315D01*
X149180Y-16454D01*
X148950Y-16599D01*
X148723Y-16749D01*
X148500Y-16904D01*
X148280Y-17065D01*
X148065Y-17231D01*
X147853Y-17402D01*
X147646Y-17579D01*
X147444Y-17760D01*
X147245Y-17946D01*
X147052Y-18138D01*
X146863Y-18333D01*
X146679Y-18533D01*
X146500Y-18738D01*
X146325Y-18947D01*
X146156Y-19160D01*
X145993Y-19377D01*
X145834Y-19599D01*
X145681Y-19824D01*
X145534Y-20052D01*
X145392Y-20284D01*
X145255Y-20520D01*
X145125Y-20758D01*
X145000Y-21000D01*
X146750Y-2050D02*
X146750Y10650D01*
X153100Y4300D02*
X140400Y4300D01*
X137000Y-21000D02*
X137000Y63000D01*
X258000Y58000D02*
X258000Y-16000D01*
D18*
X192000Y47500D03*
D19*
X135500Y37500D03*
X135500Y4500D03*
D14*
X-222000Y36000D02*
X-222000Y106000D01*
X-214000Y106000D01*
X-194000Y106000D02*
X-116000Y106000D01*
X-115860Y105998D01*
X-115720Y105992D01*
X-115580Y105982D01*
X-115440Y105969D01*
X-115301Y105951D01*
X-115162Y105929D01*
X-115025Y105904D01*
X-114887Y105875D01*
X-114751Y105842D01*
X-114616Y105805D01*
X-114482Y105764D01*
X-114349Y105719D01*
X-114217Y105671D01*
X-114087Y105619D01*
X-113958Y105564D01*
X-113831Y105505D01*
X-113705Y105442D01*
X-113581Y105376D01*
X-113460Y105307D01*
X-113340Y105234D01*
X-113222Y105157D01*
X-113107Y105078D01*
X-112993Y104995D01*
X-112883Y104909D01*
X-112774Y104820D01*
X-112668Y104728D01*
X-112565Y104633D01*
X-112464Y104536D01*
X-112367Y104435D01*
X-112272Y104332D01*
X-112180Y104226D01*
X-112091Y104117D01*
X-112005Y104007D01*
X-111922Y103893D01*
X-111843Y103778D01*
X-111766Y103660D01*
X-111693Y103540D01*
X-111624Y103419D01*
X-111558Y103295D01*
X-111495Y103169D01*
X-111436Y103042D01*
X-111381Y102913D01*
X-111329Y102783D01*
X-111281Y102651D01*
X-111236Y102518D01*
X-111195Y102384D01*
X-111158Y102249D01*
X-111125Y102113D01*
X-111096Y101975D01*
X-111071Y101838D01*
X-111049Y101699D01*
X-111031Y101560D01*
X-111018Y101420D01*
X-111008Y101280D01*
X-111002Y101140D01*
X-111000Y101000D01*
X-111000Y41000D01*
X-111002Y40860D01*
X-111008Y40720D01*
X-111018Y40580D01*
X-111031Y40440D01*
X-111049Y40301D01*
X-111071Y40162D01*
X-111096Y40025D01*
X-111125Y39887D01*
X-111158Y39751D01*
X-111195Y39616D01*
X-111236Y39482D01*
X-111281Y39349D01*
X-111329Y39217D01*
X-111381Y39087D01*
X-111436Y38958D01*
X-111495Y38831D01*
X-111558Y38705D01*
X-111624Y38581D01*
X-111693Y38460D01*
X-111766Y38340D01*
X-111843Y38222D01*
X-111922Y38107D01*
X-112005Y37993D01*
X-112091Y37883D01*
X-112180Y37774D01*
X-112272Y37668D01*
X-112367Y37565D01*
X-112464Y37464D01*
X-112565Y37367D01*
X-112668Y37272D01*
X-112774Y37180D01*
X-112883Y37091D01*
X-112993Y37005D01*
X-113107Y36922D01*
X-113222Y36843D01*
X-113340Y36766D01*
X-113460Y36693D01*
X-113581Y36624D01*
X-113705Y36558D01*
X-113831Y36495D01*
X-113958Y36436D01*
X-114087Y36381D01*
X-114217Y36329D01*
X-114349Y36281D01*
X-114482Y36236D01*
X-114616Y36195D01*
X-114751Y36158D01*
X-114887Y36125D01*
X-115025Y36096D01*
X-115162Y36071D01*
X-115301Y36049D01*
X-115440Y36031D01*
X-115580Y36018D01*
X-115720Y36008D01*
X-115860Y36002D01*
X-116000Y36000D01*
X-194000Y36000D01*
X-214000Y36000D02*
X-222000Y36000D01*
X-214000Y106000D02*
X-213875Y105758D01*
X-213745Y105520D01*
X-213608Y105284D01*
X-213466Y105052D01*
X-213319Y104824D01*
X-213166Y104599D01*
X-213007Y104377D01*
X-212844Y104160D01*
X-212675Y103947D01*
X-212500Y103738D01*
X-212321Y103533D01*
X-212137Y103333D01*
X-211948Y103138D01*
X-211755Y102946D01*
X-211556Y102760D01*
X-211354Y102579D01*
X-211147Y102402D01*
X-210935Y102231D01*
X-210720Y102065D01*
X-210500Y101904D01*
X-210277Y101749D01*
X-210050Y101599D01*
X-209820Y101454D01*
X-209586Y101315D01*
X-209348Y101182D01*
X-209108Y101055D01*
X-208865Y100934D01*
X-208618Y100818D01*
X-208369Y100709D01*
X-208117Y100606D01*
X-207863Y100509D01*
X-207607Y100418D01*
X-207348Y100333D01*
X-207088Y100255D01*
X-206825Y100183D01*
X-206561Y100117D01*
X-206296Y100058D01*
X-206029Y100006D01*
X-205761Y99960D01*
X-205492Y99920D01*
X-205222Y99887D01*
X-204951Y99861D01*
X-204680Y99841D01*
X-204408Y99827D01*
X-204136Y99821D01*
X-203864Y99821D01*
X-203592Y99827D01*
X-203320Y99841D01*
X-203049Y99861D01*
X-202778Y99887D01*
X-202508Y99920D01*
X-202239Y99960D01*
X-201971Y100006D01*
X-201704Y100058D01*
X-201439Y100117D01*
X-201175Y100183D01*
X-200912Y100255D01*
X-200652Y100333D01*
X-200393Y100418D01*
X-200137Y100509D01*
X-199883Y100606D01*
X-199631Y100709D01*
X-199382Y100818D01*
X-199135Y100934D01*
X-198892Y101055D01*
X-198652Y101182D01*
X-198414Y101315D01*
X-198180Y101454D01*
X-197950Y101599D01*
X-197723Y101749D01*
X-197500Y101904D01*
X-197280Y102065D01*
X-197065Y102231D01*
X-196853Y102402D01*
X-196646Y102579D01*
X-196444Y102760D01*
X-196245Y102946D01*
X-196052Y103138D01*
X-195863Y103333D01*
X-195679Y103533D01*
X-195500Y103738D01*
X-195325Y103947D01*
X-195156Y104160D01*
X-194993Y104377D01*
X-194834Y104599D01*
X-194681Y104824D01*
X-194534Y105052D01*
X-194392Y105284D01*
X-194255Y105520D01*
X-194125Y105758D01*
X-194000Y106000D01*
X-194000Y36000D02*
X-194125Y36242D01*
X-194255Y36480D01*
X-194392Y36716D01*
X-194534Y36948D01*
X-194681Y37176D01*
X-194834Y37401D01*
X-194993Y37623D01*
X-195156Y37840D01*
X-195325Y38053D01*
X-195500Y38262D01*
X-195679Y38467D01*
X-195863Y38667D01*
X-196052Y38862D01*
X-196245Y39054D01*
X-196444Y39240D01*
X-196646Y39421D01*
X-196853Y39598D01*
X-197065Y39769D01*
X-197280Y39935D01*
X-197500Y40096D01*
X-197723Y40251D01*
X-197950Y40401D01*
X-198180Y40546D01*
X-198414Y40685D01*
X-198652Y40818D01*
X-198892Y40945D01*
X-199135Y41066D01*
X-199382Y41182D01*
X-199631Y41291D01*
X-199883Y41394D01*
X-200137Y41491D01*
X-200393Y41582D01*
X-200652Y41667D01*
X-200912Y41745D01*
X-201175Y41817D01*
X-201439Y41883D01*
X-201704Y41942D01*
X-201971Y41994D01*
X-202239Y42040D01*
X-202508Y42080D01*
X-202778Y42113D01*
X-203049Y42139D01*
X-203320Y42159D01*
X-203592Y42173D01*
X-203864Y42179D01*
X-204136Y42179D01*
X-204408Y42173D01*
X-204680Y42159D01*
X-204951Y42139D01*
X-205222Y42113D01*
X-205492Y42080D01*
X-205761Y42040D01*
X-206029Y41994D01*
X-206296Y41942D01*
X-206561Y41883D01*
X-206825Y41817D01*
X-207088Y41745D01*
X-207348Y41667D01*
X-207607Y41582D01*
X-207863Y41491D01*
X-208117Y41394D01*
X-208369Y41291D01*
X-208618Y41182D01*
X-208865Y41066D01*
X-209108Y40945D01*
X-209348Y40818D01*
X-209586Y40685D01*
X-209820Y40546D01*
X-210050Y40401D01*
X-210277Y40251D01*
X-210500Y40096D01*
X-210720Y39935D01*
X-210935Y39769D01*
X-211147Y39598D01*
X-211354Y39421D01*
X-211556Y39240D01*
X-211755Y39054D01*
X-211948Y38862D01*
X-212137Y38667D01*
X-212321Y38467D01*
X-212500Y38262D01*
X-212675Y38053D01*
X-212844Y37840D01*
X-213007Y37623D01*
X-213166Y37401D01*
X-213319Y37176D01*
X-213466Y36948D01*
X-213608Y36716D01*
X-213745Y36480D01*
X-213875Y36242D01*
X-214000Y36000D01*
X-212250Y77950D02*
X-212250Y90650D01*
X-205900Y84300D02*
X-218600Y84300D01*
D20*
X-170500Y51500D03*
D19*
X-223500Y81000D03*
X-223500Y61000D03*
D14*
X317500Y114300D02*
X323850Y120650D01*
X323850Y133350D01*
X317500Y139700D01*
X279400Y139700D01*
X273050Y133350D01*
X273050Y120650D02*
X279400Y114300D01*
X317500Y114300D01*
X273050Y120650D02*
X273050Y133350D01*
D15*
X178846Y122837D02*
X178844Y122723D01*
X178838Y122610D01*
X178829Y122496D01*
X178815Y122384D01*
X178798Y122271D01*
X178776Y122159D01*
X178751Y122049D01*
X178723Y121939D01*
X178690Y121830D01*
X178654Y121722D01*
X178614Y121615D01*
X178570Y121510D01*
X178523Y121407D01*
X178473Y121305D01*
X178419Y121205D01*
X178361Y121107D01*
X178300Y121011D01*
X178237Y120917D01*
X178169Y120825D01*
X178099Y120735D01*
X178026Y120649D01*
X177950Y120564D01*
X177871Y120482D01*
X177789Y120403D01*
X177705Y120327D01*
X177618Y120254D01*
X177528Y120184D01*
X177436Y120117D01*
X177342Y120053D01*
X177246Y119992D01*
X177148Y119934D01*
X177048Y119880D01*
X176946Y119830D01*
X176843Y119783D01*
X176738Y119739D01*
X176631Y119699D01*
X176523Y119663D01*
X176414Y119630D01*
X176304Y119602D01*
X176194Y119577D01*
X176082Y119555D01*
X175969Y119538D01*
X175857Y119524D01*
X175743Y119515D01*
X175630Y119509D01*
X175516Y119507D01*
X175348Y119509D01*
X175180Y119515D01*
X175012Y119525D01*
X174844Y119539D01*
X174676Y119557D01*
X174510Y119579D01*
X174343Y119605D01*
X174178Y119635D01*
X174013Y119669D01*
X173849Y119707D01*
X173686Y119749D01*
X173524Y119795D01*
X173363Y119845D01*
X173203Y119898D01*
X173045Y119955D01*
X172888Y120016D01*
X172733Y120081D01*
X172579Y120149D01*
X172427Y120222D01*
X172277Y120297D01*
X172128Y120377D01*
X171981Y120459D01*
X171837Y120546D01*
X171695Y120635D01*
X171554Y120729D01*
X171416Y120825D01*
X171281Y120925D01*
X171148Y121028D01*
X171017Y121134D01*
X170889Y121243D01*
X170763Y121355D01*
X170641Y121470D01*
X170521Y121588D01*
X170937Y131163D02*
X170939Y131277D01*
X170945Y131390D01*
X170954Y131504D01*
X170968Y131616D01*
X170985Y131729D01*
X171007Y131841D01*
X171032Y131951D01*
X171060Y132061D01*
X171093Y132170D01*
X171129Y132278D01*
X171169Y132385D01*
X171213Y132490D01*
X171260Y132593D01*
X171310Y132695D01*
X171364Y132795D01*
X171422Y132893D01*
X171483Y132989D01*
X171546Y133083D01*
X171614Y133175D01*
X171684Y133265D01*
X171757Y133351D01*
X171833Y133436D01*
X171912Y133518D01*
X171994Y133597D01*
X172079Y133673D01*
X172165Y133746D01*
X172255Y133816D01*
X172347Y133884D01*
X172441Y133947D01*
X172537Y134008D01*
X172635Y134066D01*
X172735Y134120D01*
X172837Y134170D01*
X172940Y134217D01*
X173045Y134261D01*
X173152Y134301D01*
X173260Y134337D01*
X173369Y134370D01*
X173479Y134398D01*
X173589Y134423D01*
X173701Y134445D01*
X173814Y134462D01*
X173926Y134476D01*
X174040Y134485D01*
X174153Y134491D01*
X174267Y134493D01*
X174422Y134491D01*
X174576Y134485D01*
X174730Y134476D01*
X174884Y134462D01*
X175038Y134445D01*
X175191Y134424D01*
X175343Y134400D01*
X175495Y134371D01*
X175646Y134339D01*
X175797Y134303D01*
X175946Y134263D01*
X176094Y134220D01*
X176242Y134173D01*
X176388Y134122D01*
X176532Y134068D01*
X176676Y134010D01*
X176817Y133948D01*
X176958Y133884D01*
X177096Y133815D01*
X177233Y133744D01*
X177368Y133668D01*
X177501Y133590D01*
X177633Y133508D01*
X177762Y133423D01*
X177889Y133335D01*
X178013Y133244D01*
X172602Y128249D02*
X172505Y128308D01*
X172411Y128371D01*
X172318Y128436D01*
X172228Y128505D01*
X172140Y128576D01*
X172055Y128651D01*
X171972Y128728D01*
X171892Y128808D01*
X171814Y128890D01*
X171740Y128976D01*
X171668Y129063D01*
X171599Y129153D01*
X171533Y129245D01*
X171471Y129340D01*
X171411Y129436D01*
X171355Y129534D01*
X171302Y129635D01*
X171253Y129737D01*
X171207Y129840D01*
X171164Y129945D01*
X171125Y130051D01*
X171089Y130159D01*
X171058Y130268D01*
X171030Y130377D01*
X171005Y130488D01*
X170984Y130599D01*
X170967Y130711D01*
X170954Y130824D01*
X170945Y130937D01*
X170939Y131050D01*
X170937Y131163D01*
X177181Y125751D02*
X177278Y125692D01*
X177372Y125629D01*
X177465Y125564D01*
X177555Y125495D01*
X177643Y125424D01*
X177728Y125349D01*
X177811Y125272D01*
X177891Y125192D01*
X177969Y125110D01*
X178043Y125024D01*
X178115Y124937D01*
X178184Y124847D01*
X178250Y124755D01*
X178312Y124660D01*
X178372Y124564D01*
X178428Y124466D01*
X178481Y124365D01*
X178530Y124263D01*
X178577Y124160D01*
X178619Y124055D01*
X178658Y123949D01*
X178694Y123841D01*
X178725Y123732D01*
X178753Y123623D01*
X178778Y123512D01*
X178799Y123401D01*
X178816Y123289D01*
X178829Y123176D01*
X178838Y123063D01*
X178844Y122950D01*
X178846Y122837D01*
X177181Y125751D02*
X172602Y128249D01*
X186470Y134493D02*
X186470Y119507D01*
X186470Y134493D02*
X190632Y134493D01*
X190760Y134491D01*
X190888Y134485D01*
X191016Y134475D01*
X191144Y134461D01*
X191271Y134444D01*
X191397Y134422D01*
X191523Y134397D01*
X191647Y134367D01*
X191771Y134334D01*
X191894Y134297D01*
X192016Y134256D01*
X192136Y134212D01*
X192255Y134164D01*
X192372Y134112D01*
X192488Y134057D01*
X192601Y133998D01*
X192714Y133935D01*
X192824Y133869D01*
X192931Y133800D01*
X193037Y133728D01*
X193141Y133652D01*
X193242Y133573D01*
X193341Y133491D01*
X193437Y133406D01*
X193530Y133319D01*
X193621Y133228D01*
X193708Y133135D01*
X193793Y133039D01*
X193875Y132940D01*
X193954Y132839D01*
X194030Y132735D01*
X194102Y132629D01*
X194171Y132522D01*
X194237Y132411D01*
X194300Y132299D01*
X194359Y132186D01*
X194414Y132070D01*
X194466Y131953D01*
X194514Y131834D01*
X194558Y131714D01*
X194599Y131592D01*
X194636Y131469D01*
X194669Y131345D01*
X194699Y131221D01*
X194724Y131095D01*
X194746Y130969D01*
X194763Y130842D01*
X194777Y130714D01*
X194787Y130586D01*
X194793Y130458D01*
X194795Y130330D01*
X194793Y130202D01*
X194787Y130074D01*
X194777Y129946D01*
X194763Y129818D01*
X194746Y129691D01*
X194724Y129565D01*
X194699Y129439D01*
X194669Y129315D01*
X194636Y129191D01*
X194599Y129068D01*
X194558Y128946D01*
X194514Y128826D01*
X194466Y128707D01*
X194414Y128590D01*
X194359Y128474D01*
X194300Y128361D01*
X194237Y128248D01*
X194171Y128138D01*
X194102Y128031D01*
X194030Y127925D01*
X193954Y127821D01*
X193875Y127720D01*
X193793Y127621D01*
X193708Y127525D01*
X193621Y127432D01*
X193530Y127341D01*
X193437Y127254D01*
X193341Y127169D01*
X193242Y127087D01*
X193141Y127008D01*
X193037Y126932D01*
X192931Y126860D01*
X192824Y126791D01*
X192714Y126725D01*
X192601Y126662D01*
X192488Y126603D01*
X192372Y126548D01*
X192255Y126496D01*
X192136Y126448D01*
X192016Y126404D01*
X191894Y126363D01*
X191771Y126326D01*
X191647Y126293D01*
X191523Y126263D01*
X191397Y126238D01*
X191271Y126216D01*
X191144Y126199D01*
X191016Y126185D01*
X190888Y126175D01*
X190760Y126169D01*
X190632Y126167D01*
X186470Y126167D01*
X201828Y119507D02*
X208488Y119507D01*
X201828Y119507D02*
X201828Y134493D01*
X208488Y134493D01*
X206823Y127833D02*
X201828Y127833D01*
X213976Y119507D02*
X218972Y134493D01*
X223967Y119507D01*
X222718Y123254D02*
X215225Y123254D01*
X231279Y119507D02*
X231279Y134493D01*
X239605Y134493D02*
X231279Y125335D01*
X234609Y128665D02*
X239605Y119507D01*
X246637Y119507D02*
X253298Y119507D01*
X246637Y119507D02*
X246637Y134493D01*
X253298Y134493D01*
X251633Y127833D02*
X246637Y127833D01*
X260277Y134493D02*
X260277Y119507D01*
X260277Y134493D02*
X264440Y134493D01*
X264568Y134491D01*
X264696Y134485D01*
X264824Y134475D01*
X264952Y134461D01*
X265079Y134444D01*
X265205Y134422D01*
X265331Y134397D01*
X265455Y134367D01*
X265579Y134334D01*
X265702Y134297D01*
X265824Y134256D01*
X265944Y134212D01*
X266063Y134164D01*
X266180Y134112D01*
X266296Y134057D01*
X266409Y133998D01*
X266522Y133935D01*
X266632Y133869D01*
X266739Y133800D01*
X266845Y133728D01*
X266949Y133652D01*
X267050Y133573D01*
X267149Y133491D01*
X267245Y133406D01*
X267338Y133319D01*
X267429Y133228D01*
X267516Y133135D01*
X267601Y133039D01*
X267683Y132940D01*
X267762Y132839D01*
X267838Y132735D01*
X267910Y132629D01*
X267979Y132522D01*
X268045Y132411D01*
X268108Y132299D01*
X268167Y132186D01*
X268222Y132070D01*
X268274Y131953D01*
X268322Y131834D01*
X268366Y131714D01*
X268407Y131592D01*
X268444Y131469D01*
X268477Y131345D01*
X268507Y131221D01*
X268532Y131095D01*
X268554Y130969D01*
X268571Y130842D01*
X268585Y130714D01*
X268595Y130586D01*
X268601Y130458D01*
X268603Y130330D01*
X268601Y130202D01*
X268595Y130074D01*
X268585Y129946D01*
X268571Y129818D01*
X268554Y129691D01*
X268532Y129565D01*
X268507Y129439D01*
X268477Y129315D01*
X268444Y129191D01*
X268407Y129068D01*
X268366Y128946D01*
X268322Y128826D01*
X268274Y128707D01*
X268222Y128590D01*
X268167Y128474D01*
X268108Y128361D01*
X268045Y128248D01*
X267979Y128138D01*
X267910Y128031D01*
X267838Y127925D01*
X267762Y127821D01*
X267683Y127720D01*
X267601Y127621D01*
X267516Y127525D01*
X267429Y127432D01*
X267338Y127341D01*
X267245Y127254D01*
X267149Y127169D01*
X267050Y127087D01*
X266949Y127008D01*
X266845Y126932D01*
X266739Y126860D01*
X266632Y126791D01*
X266522Y126725D01*
X266409Y126662D01*
X266296Y126603D01*
X266180Y126548D01*
X266063Y126496D01*
X265944Y126448D01*
X265824Y126404D01*
X265702Y126363D01*
X265579Y126326D01*
X265455Y126293D01*
X265331Y126263D01*
X265205Y126238D01*
X265079Y126216D01*
X264952Y126199D01*
X264824Y126185D01*
X264696Y126175D01*
X264568Y126169D01*
X264440Y126167D01*
X260277Y126167D01*
X265273Y126167D02*
X268603Y119507D01*
D14*
X-124550Y21000D02*
X-124550Y8300D01*
X-213450Y8300D01*
X-213450Y21000D01*
X-213450Y33700D01*
X-124550Y33700D01*
X-124550Y21000D01*
X-118200Y21000D01*
X-213450Y21000D02*
X-219800Y21000D01*
M02*
