G04 EAGLE Gerber RS-274X export*
G75*
%MOMM*%
%FSLAX34Y34*%
%LPD*%
%INSoldermask Top*%
%IPPOS*%
%AMOC8*
5,1,8,0,0,1.08239X$1,22.5*%
G01*
%ADD10C,7.403200*%
%ADD11C,4.703200*%
%ADD12C,4.013200*%
%ADD13C,1.903200*%
%ADD14P,2.144431X8X112.500000*%
%ADD15P,2.309387X8X202.500000*%
%ADD16P,2.144431X8X22.500000*%
%ADD17P,2.144431X8X292.500000*%
%ADD18P,2.034460X8X292.500000*%
%ADD19P,2.168244X8X202.500000*%
%ADD20P,2.060005X8X292.500000*%
%ADD21R,1.903200X1.903200*%
%ADD22R,1.473200X1.473200*%
%ADD23P,1.594577X8X292.500000*%
%ADD24P,2.060005X8X22.500000*%
%ADD25C,2.103119*%
%ADD26R,1.563200X1.563200*%
%ADD27P,1.691992X8X292.500000*%
%ADD28P,2.060005X8X202.500000*%
%ADD29C,0.953200*%


D10*
X408000Y18000D03*
D11*
X408000Y-115000D03*
D12*
X408000Y-173000D03*
X456000Y-144000D03*
D13*
X254000Y118500D02*
X254000Y135500D01*
X228600Y135500D02*
X228600Y118500D01*
X203200Y118500D02*
X203200Y135500D01*
X177800Y135500D02*
X177800Y118500D01*
X152400Y118500D02*
X152400Y135500D01*
X127000Y135500D02*
X127000Y118500D01*
X101600Y118500D02*
X101600Y135500D01*
X76200Y135500D02*
X76200Y118500D01*
X50800Y118500D02*
X50800Y135500D01*
X25400Y135500D02*
X25400Y118500D01*
X0Y118500D02*
X0Y135500D01*
X-25400Y135500D02*
X-25400Y118500D01*
X-50800Y118500D02*
X-50800Y135500D01*
X-76200Y135500D02*
X-76200Y118500D01*
X-101600Y118500D02*
X-101600Y135500D01*
X-127000Y135500D02*
X-127000Y118500D01*
X-152400Y118500D02*
X-152400Y135500D01*
X-177800Y135500D02*
X-177800Y118500D01*
X-203200Y118500D02*
X-203200Y135500D01*
X-228600Y135500D02*
X-228600Y118500D01*
X-254000Y118500D02*
X-254000Y135500D01*
X-254000Y-118500D02*
X-254000Y-135500D01*
X-228600Y-135500D02*
X-228600Y-118500D01*
X-203200Y-118500D02*
X-203200Y-135500D01*
X-177800Y-135500D02*
X-177800Y-118500D01*
X-152400Y-118500D02*
X-152400Y-135500D01*
X-127000Y-135500D02*
X-127000Y-118500D01*
X-101600Y-118500D02*
X-101600Y-135500D01*
X-76200Y-135500D02*
X-76200Y-118500D01*
X-50800Y-118500D02*
X-50800Y-135500D01*
X-25400Y-135500D02*
X-25400Y-118500D01*
X0Y-118500D02*
X0Y-135500D01*
X25400Y-135500D02*
X25400Y-118500D01*
X50800Y-118500D02*
X50800Y-135500D01*
X76200Y-135500D02*
X76200Y-118500D01*
X101600Y-118500D02*
X101600Y-135500D01*
X127000Y-135500D02*
X127000Y-118500D01*
X152400Y-118500D02*
X152400Y-135500D01*
X177800Y-135500D02*
X177800Y-118500D01*
X203200Y-118500D02*
X203200Y-135500D01*
X228600Y-135500D02*
X228600Y-118500D01*
X254000Y-118500D02*
X254000Y-135500D01*
D14*
X342900Y127000D03*
X368300Y127000D03*
X393700Y127000D03*
D15*
X254000Y177800D03*
X127000Y177800D03*
X88900Y177800D03*
X-38100Y177800D03*
X-76200Y177800D03*
X-203200Y177800D03*
D16*
X635000Y127000D03*
X635000Y101600D03*
X635000Y76200D03*
X635000Y50800D03*
X635000Y25400D03*
X635000Y0D03*
X635000Y-25400D03*
X635000Y-50800D03*
X635000Y-76200D03*
X635000Y-101600D03*
X635000Y-127000D03*
X635000Y-152400D03*
X635000Y-177800D03*
D17*
X501650Y127000D03*
X476250Y127000D03*
X450850Y127000D03*
X425450Y127000D03*
D18*
X598600Y120250D03*
X598600Y94850D03*
X598600Y69450D03*
D19*
X229250Y-44900D03*
X127650Y-44900D03*
D20*
X-84000Y82350D03*
D21*
X-84000Y56950D03*
D22*
X508000Y-196850D03*
D23*
X508000Y31750D03*
X508000Y6350D03*
X508000Y-19050D03*
X508000Y-44450D03*
X508000Y-69850D03*
X508000Y-95250D03*
X508000Y-120650D03*
X508000Y-146050D03*
X508000Y-171450D03*
X584200Y-171450D03*
X584200Y-146050D03*
X584200Y-120650D03*
X584200Y-95250D03*
X584200Y-69850D03*
X584200Y-44450D03*
X584200Y-196850D03*
X584200Y-19050D03*
X584200Y6350D03*
X584200Y31750D03*
D24*
X228600Y-158750D03*
D21*
X254000Y-158750D03*
D25*
X-223300Y-25600D02*
X-242300Y-25600D01*
X-242300Y-51000D02*
X-223300Y-51000D01*
X-223300Y-76400D02*
X-242300Y-76400D01*
D26*
X127000Y37500D03*
D27*
X127000Y4500D03*
D26*
X-232000Y61000D03*
D27*
X-232000Y81000D03*
D28*
X311150Y127000D03*
D21*
X285750Y127000D03*
D15*
X-105500Y21000D03*
X-232500Y21000D03*
D29*
X116290Y202860D03*
X279400Y-139700D03*
X304800Y-114300D03*
X250250Y-197750D03*
X285250Y-169750D03*
X-49000Y-169750D03*
X206500Y-169750D03*
X316750Y-138250D03*
X381500Y-194250D03*
X-167890Y-61250D03*
X306250Y3500D03*
X539000Y-147000D03*
X378000Y-71750D03*
X138250Y-94500D03*
X302750Y-180250D03*
X276500Y-206500D03*
X288750Y35000D03*
X245000Y105000D03*
X201250Y-7000D03*
M02*
