M48
;GenerationSoftware,Autodesk,EAGLE,9.6.2*%
;CreationDate,2021-12-23T15:36:58Z*%
FMAT,2
ICI,OFF
METRIC,TZ,000.000
T9C0.350
T8C0.600
T7C0.800
T6C0.900
T5C1.000
T4C1.118
T3C2.500
T2C3.000
T1C7.200
%
G90
M71
T1
X40800Y1800
T2
X40800Y-11500
T3
X45600Y-14400
X40800Y-17300
T4
X-23280Y-7640
X-23280Y-2560
X-23280Y-5100
T5
X22860Y-15875
X22925Y-4490
X12765Y-4490
X-8400Y8235
X-8400Y5695
X-23250Y2100
X-10550Y2100
X25400Y-15875
X31115Y12700
X28575Y12700
X2540Y12700
X-7620Y17780
X-3810Y17780
X8890Y17780
X12700Y17780
X25400Y17780
X-20320Y17780
X25400Y12700
X22860Y12700
X20320Y12700
X17780Y12700
X15240Y12700
X12700Y12700
X10160Y12700
X7620Y12700
X5080Y12700
X0Y12700
X-2540Y12700
X-5080Y12700
X-7620Y12700
X-10160Y12700
X-12700Y12700
X-15240Y12700
X-17780Y12700
X-20320Y12700
X-22860Y12700
X-25400Y12700
X-25400Y-12700
X-22860Y-12700
X-20320Y-12700
X-17780Y-12700
X-15240Y-12700
X-12700Y-12700
X-10160Y-12700
X-7620Y-12700
X-5080Y-12700
X-2540Y-12700
X0Y-12700
X2540Y-12700
X5080Y-12700
X7620Y-12700
X10160Y-12700
X12700Y-12700
X15240Y-12700
X17780Y-12700
X20320Y-12700
X22860Y-12700
X25400Y-12700
T6
X59860Y12025
X59860Y9485
X59860Y6945
T7
X63500Y-10160
X63500Y-7620
X63500Y-5080
X63500Y-2540
X63500Y0
X63500Y2540
X63500Y5080
X63500Y7620
X63500Y10160
X63500Y12700
X63500Y-15240
X63500Y-17780
X50165Y12700
X63500Y-12700
X45085Y12700
X42545Y12700
X36830Y12700
X39370Y12700
X34290Y12700
X12700Y3750
X12700Y450
X-23200Y6100
X-23200Y8100
X47625Y12700
T8
X58420Y-12065
X58420Y-9525
X58420Y-6985
X58420Y-4445
X58420Y-1905
X58420Y635
X58420Y3175
X50800Y-19685
X50800Y3175
X50800Y635
X50800Y-1905
X50800Y-4445
X50800Y-6985
X50800Y-9525
X50800Y-12065
X50800Y-14605
X50800Y-17145
X58420Y-17145
X58420Y-14605
X58420Y-19685
T9
X38150Y-19425
X31675Y-13825
X11629Y20286
X20650Y-16975
X-4900Y-16975
X28525Y-16975
X25025Y-19775
X30480Y-11430
X27940Y-13970
X28875Y3500
X20125Y-700
X24500Y10500
X27650Y-20650
X30275Y-18025
X13825Y-9450
X37800Y-7175
X53900Y-14700
X30625Y350
X-16789Y-6125
M30